{
.appVersion = "3202";
DisplayStrings = (
"/u1ED04/u1ED31/u1ED09/u1ED07/u1ED0D/u1ED10",
"/u1ED05/u1ED0E/u1ED10/u1ED09/u1ED12/u1ED17/u1ED1F/u1ED22/u1ED28/u1ED29/u1ED2B/u1ED2D/u1ED32",
"/u1ED1F/u1ED24",
"/u1ED04/u1ED1F",
"/u1ED04/u1ED07/u1ED0D/u1ED10/u1ED1F/u1ED20/u1ED22/u1ED28/u1ED2B",
"/u1ED13_u1ED2E.liga/u1ED01/u1ED02/u1ED03/u1ED04/u1ED05/u1ED06/u1ED07/u1ED08/u1ED09/u1ED0A/u1ED0B/u1ED0C/u1ED0D/u1ED0E/u1ED0F/u1ED10/u1ED11/u1ED12/u1ED13/u1ED14/u1ED15/u1ED16/u1ED17/u1ED18/u1ED19/u1ED1A/u1ED1B/u1ED1C/u1ED1D/u1ED1E/u1ED1F/u1ED20/u1ED21/u1ED22/u1ED23/u1ED24/u1ED25/u1ED26/u1ED27/u1ED28/u1ED29/u1ED2A/u1ED2B/u1ED2C/u1ED2D/u1ED2E/u1ED2F/u1ED30/u1ED31/u1ED32/u1ED33/u1ED34/u1ED35/u1ED36/u1ED37/u1ED38/u1ED39/u1ED3A/u1ED3B/u1ED3C/u1ED3D"
);
copyright = "Copyright 2022 Google LLC. All Rights Reserved.";
customParameters = (
{
name = fsType;
value = (
);
},
{
name = "Enforce Compatibility Check";
value = 1;
},
{
name = "Use Typo Metrics";
value = 1;
},
{
name = "Disable Last Change";
value = 1;
},
{
name = "Use Line Breaks";
value = 1;
},
{
name = vendorID;
value = GOOG;
},
{
name = trademark;
value = "Noto is a trademark of Google LLC.";
},
{
name = license;
value = "This Font Software is licensed under the SIL Open Font License, Version 1.1. This license is available with a FAQ at: https://scripts.sil.org/OFL";
},
{
name = licenseURL;
value = "https://scripts.sil.org/OFL";
},
{
name = description;
value = "Sérgio Martins";
},
{
name = versionString;
value = "Version 1.005";
}
);
date = "2021-06-02 21:08:18 +0000";
designer = "Sérgio Martins";
disablesNiceNames = 1;
familyName = "Noto Serif Ottoman Siyaq";
featurePrefixes = (
{
automatic = 1;
code = "languagesystem DFLT dflt;
";
name = Languagesystems;
}
);
features = (
{
automatic = 1;
code = "lookupflag IgnoreMarks;
sub u1ED13 u1ED2E by u1ED13_u1ED2E.liga;
";
name = liga;
}
);
fontMaster = (
{
alignmentZones = (
"{1069, 15}",
"{0, -20}",
"{0, -20}",
"{0, -20}",
"{-634, -15}"
);
ascender = 1069;
capHeight = 0;

glyphs = (
{
glyphname = u1ED13_u1ED2E.liga;
layers = (
{
layerId = master01;
paths = (
{
closed = 1;
nodes = (
"500 0 OFFCURVE",
"591 28 OFFCURVE",
"617 45 CURVE SMOOTH",
"644 62 OFFCURVE",
"670 93 OFFCURVE",
"670 127 CURVE SMOOTH",
"670 163 OFFCURVE",
"649 220 OFFCURVE",
"633 251 CURVE",
"673 264 OFFCURVE",
"743 268 OFFCURVE",
"786 268 CURVE",
"790 287 OFFCURVE",
"775 349 OFFCURVE",
"757 351 CURVE SMOOTH",
"746 352 OFFCURVE",
"734 352 OFFCURVE",
"721 351 CURVE SMOOTH",
"667 348 OFFCURVE",
"612 327 OFFCURVE",
"599 310 CURVE SMOOTH",
"596 306 OFFCURVE",
"580 255 OFFCURVE",
"580 237 CURVE SMOOTH",
"580 213 OFFCURVE",
"623 147 OFFCURVE",
"625 111 CURVE",
"592 95 OFFCURVE",
"488 76 OFFCURVE",
"392 76 CURVE SMOOTH",
"192 76 OFFCURVE",
"99 119 OFFCURVE",
"99 185 CURVE SMOOTH",
"99 217 OFFCURVE",
"126 258 OFFCURVE",
"188 278 CURVE SMOOTH",
"236 293 OFFCURVE",
"278 299 OFFCURVE",
"317 302 CURVE SMOOTH",
"342 304 OFFCURVE",
"366 308 OFFCURVE",
"390 312 CURVE",
"395 312 OFFCURVE",
"398 315 OFFCURVE",
"398 320 CURVE SMOOTH",
"398 380 LINE SMOOTH",
"398 385 OFFCURVE",
"395 388 OFFCURVE",
"390 388 CURVE SMOOTH",
"352 388 OFFCURVE",
"277 397 OFFCURVE",
"246 414 CURVE",
"244 503 LINE SMOOTH",
"239 709 OFFCURVE",
"238 827 OFFCURVE",
"232 983 CURVE",
"205 965 OFFCURVE",
"183 946 OFFCURVE",
"164 927 CURVE",
"186 624 OFFCURVE",
"197 494 OFFCURVE",
"208 399 CURVE SMOOTH",
"210 382 OFFCURVE",
"220 368 OFFCURVE",
"236 355 CURVE",
"224 353 OFFCURVE",
"211 349 OFFCURVE",
"195 344 CURVE SMOOTH",
"101 314 OFFCURVE",
"61 229 OFFCURVE",
"61 160 CURVE SMOOTH",
"61 59 OFFCURVE",
"161 0 OFFCURVE",
"379 0 CURVE SMOOTH"
);
}
);
width = 833;
}
);
},
{
glyphname = u1ED01;
layers = (
{
layerId = master01;
paths = (
{
closed = 1;
nodes = (
"150 8 LINE",
"159 230 OFFCURVE",
"159 380 OFFCURVE",
"151 529 CURVE",
"178 552 LINE",
"162 599 OFFCURVE",
"148 645 OFFCURVE",
"143 671 CURVE",
"91 661 OFFCURVE",
"72 636 OFFCURVE",
"77 582 CURVE SMOOTH",
"92 428 OFFCURVE",
"100 234 OFFCURVE",
"104 0 CURVE"
);
}
);
width = 238;
}
);
unicode = 1ED01;
},
{
glyphname = u1ED02;
layers = (
{
layerId = master01;
paths = (
{
closed = 1;
nodes = (
"369 0 OFFCURVE",
"409 12 OFFCURVE",
"421 35 CURVE SMOOTH",
"441 70 OFFCURVE",
"456 112 OFFCURVE",
"456 135 CURVE SMOOTH",
"455 206 OFFCURVE",
"452 291 OFFCURVE",
"446 388 CURVE SMOOTH",
"438 505 OFFCURVE",
"433 599 OFFCURVE",
"429 671 CURVE",
"404 653 OFFCURVE",
"382 635 OFFCURVE",
"363 615 CURVE",
"377 497 OFFCURVE",
"389 376 OFFCURVE",
"401 251 CURVE SMOOTH",
"413 103 LINE",
"379 85 OFFCURVE",
"342 76 OFFCURVE",
"302 76 CURVE SMOOTH",
"264 76 OFFCURVE",
"189 85 OFFCURVE",
"158 102 CURVE",
"156 169 LINE SMOOTH",
"150 375 OFFCURVE",
"150 515 OFFCURVE",
"144 671 CURVE",
"117 653 OFFCURVE",
"95 634 OFFCURVE",
"76 615 CURVE",
"98 312 OFFCURVE",
"109 182 OFFCURVE",
"120 87 CURVE SMOOTH",
"126 33 OFFCURVE",
"223 0 OFFCURVE",
"302 0 CURVE SMOOTH"
);
}
);
width = 515;
}
);
unicode = 1ED02;
},
{
glyphname = u1ED03;
layers = (
{
layerId = master01;
paths = (
{
closed = 1;
nodes = (
"435 302 OFFCURVE",
"479 317 OFFCURVE",
"490 337 CURVE SMOOTH",
"509 372 OFFCURVE",
"525 414 OFFCURVE",
"524 437 CURVE SMOOTH",
"521 511 OFFCURVE",
"517 589 OFFCURVE",
"512 667 CURVE",
"487 649 OFFCURVE",
"468 634 OFFCURVE",
"451 615 CURVE",
"460 547 OFFCURVE",
"468 486 OFFCURVE",
"477 400 CURVE",
"455 388 OFFCURVE",
"415 378 OFFCURVE",
"370 378 CURVE SMOOTH",
"332 378 OFFCURVE",
"291 386 OFFCURVE",
"260 399 CURVE",
"259 458 LINE SMOOTH",
"258 524 OFFCURVE",
"258 592 OFFCURVE",
"258 668 CURVE",
"232 652 OFFCURVE",
"212 639 OFFCURVE",
"193 621 CURVE",
"202 532 OFFCURVE",
"207 484 OFFCURVE",
"218 389 CURVE SMOOTH",
"219 376 OFFCURVE",
"225 365 OFFCURVE",
"234 354 CURVE",
"223 352 OFFCURVE",
"211 349 OFFCURVE",
"195 344 CURVE SMOOTH",
"101 314 OFFCURVE",
"61 229 OFFCURVE",
"61 160 CURVE SMOOTH",
"61 59 OFFCURVE",
"161 0 OFFCURVE",
"396 0 CURVE SMOOTH",
"486 0 OFFCURVE",
"636 18 OFFCURVE",
"690 45 CURVE SMOOTH",
"714 57 OFFCURVE",
"725 71 OFFCURVE",
"725 89 CURVE SMOOTH",
"725 100 OFFCURVE",
"721 111 OFFCURVE",
"711 122 CURVE",
"617 94 OFFCURVE",
"491 76 OFFCURVE",
"389 76 CURVE SMOOTH",
"192 76 OFFCURVE",
"99 119 OFFCURVE",
"99 185 CURVE SMOOTH",
"99 217 OFFCURVE",
"126 258 OFFCURVE",
"188 278 CURVE SMOOTH",
"223 289 OFFCURVE",
"255 294 OFFCURVE",
"289 297 CURVE SMOOTH",
"319 300 OFFCURVE",
"341 301 OFFCURVE",
"370 302 CURVE SMOOTH"
);
}
);
width = 743;
}
);
unicode = 1ED03;
},
{
glyphname = u1ED04;
layers = (
{
layerId = master01;
paths = (
{
closed = 1;
nodes = (
"745 0 OFFCURVE",
"780 10 OFFCURVE",
"788 22 CURVE SMOOTH",
"809 56 OFFCURVE",
"825 99 OFFCURVE",
"825 122 CURVE SMOOTH",
"825 211 OFFCURVE",
"820 438 OFFCURVE",
"817 522 CURVE",
"793 509 OFFCURVE",
"768 488 OFFCURVE",
"750 472 CURVE",
"756 398 OFFCURVE",
"770 227 OFFCURVE",
"781 84 CURVE",
"762 72 OFFCURVE",
"722 63 OFFCURVE",
"690 63 CURVE SMOOTH",
"659 63 OFFCURVE",
"607 70 OFFCURVE",
"598 76 CURVE",
"600 192 LINE SMOOTH",
"603 355 OFFCURVE",
"605 450 OFFCURVE",
"605 522 CURVE",
"579 508 OFFCURVE",
"553 487 OFFCURVE",
"537 472 CURVE",
"537 430 OFFCURVE",
"538 403 OFFCURVE",
"541 310 CURVE",
"493 277 OFFCURVE",
"439 261 OFFCURVE",
"393 261 CURVE SMOOTH",
"382 261 OFFCURVE",
"372 261 OFFCURVE",
"361 262 CURVE",
"395 304 OFFCURVE",
"430 356 OFFCURVE",
"430 407 CURVE SMOOTH",
"430 431 OFFCURVE",
"425 450 OFFCURVE",
"412 468 CURVE SMOOTH",
"387 505 OFFCURVE",
"339 522 OFFCURVE",
"282 522 CURVE SMOOTH",
"253 522 OFFCURVE",
"225 518 OFFCURVE",
"197 509 CURVE SMOOTH",
"142 492 OFFCURVE",
"86 462 OFFCURVE",
"86 415 CURVE SMOOTH",
"86 398 OFFCURVE",
"92 384 OFFCURVE",
"104 371 CURVE",
"120 381 LINE",
"130 374 OFFCURVE",
"142 363 OFFCURVE",
"155 348 CURVE SMOOTH",
"164 337 OFFCURVE",
"192 303 OFFCURVE",
"235 255 CURVE SMOOTH",
"242 247 OFFCURVE",
"250 240 OFFCURVE",
"258 233 CURVE",
"176 149 OFFCURVE",
"123 110 OFFCURVE",
"84 85 CURVE SMOOTH",
"52 64 OFFCURVE",
"24 50 OFFCURVE",
"4 41 CURVE",
"4 9 LINE",
"25 3 OFFCURVE",
"39 0 OFFCURVE",
"61 0 CURVE SMOOTH",
"124 0 OFFCURVE",
"217 90 OFFCURVE",
"310 203 CURVE",
"332 194 OFFCURVE",
"357 189 OFFCURVE",
"383 189 CURVE SMOOTH",
"456 189 OFFCURVE",
"514 215 OFFCURVE",
"547 233 CURVE",
"550 181 OFFCURVE",
"557 100 OFFCURVE",
"560 66 CURVE SMOOTH",
"564 24 OFFCURVE",
"639 0 OFFCURVE",
"706 0 CURVE SMOOTH"
);
},
{
closed = 1;
nodes = (
"291 288 OFFCURVE",
"283 296 OFFCURVE",
"273 307 CURVE SMOOTH",
"230 355 OFFCURVE",
"201 391 OFFCURVE",
"177 410 CURVE",
"215 430 OFFCURVE",
"254 440 OFFCURVE",
"295 440 CURVE SMOOTH",
"339 440 OFFCURVE",
"370 417 OFFCURVE",
"370 383 CURVE SMOOTH",
"370 358 OFFCURVE",
"333 310 OFFCURVE",
"304 280 CURVE"
);
}
);
width = 885;
}
);
unicode = 1ED04;
},
{
glyphname = u1ED05;
layers = (
{
layerId = master01;
paths = (
{
closed = 1;
nodes = (
"397 0 OFFCURVE",
"455 21 OFFCURVE",
"539 64 CURVE SMOOTH",
"628 110 OFFCURVE",
"657 119 OFFCURVE",
"703 119 CURVE SMOOTH",
"734 119 OFFCURVE",
"761 116 OFFCURVE",
"783 114 CURVE",
"822 187 LINE",
"774 187 OFFCURVE",
"737 190 OFFCURVE",
"712 196 CURVE SMOOTH",
"662 207 OFFCURVE",
"619 230 OFFCURVE",
"549 281 CURVE SMOOTH",
"492 323 OFFCURVE",
"452 340 OFFCURVE",
"409 340 CURVE SMOOTH",
"332 340 OFFCURVE",
"269 252 OFFCURVE",
"274 78 CURVE",
"202 81 OFFCURVE",
"136 99 OFFCURVE",
"73 115 CURVE",
"62 80 LINE",
"121 39 OFFCURVE",
"217 0 OFFCURVE",
"297 0 CURVE SMOOTH"
);
},
{
closed = 1;
nodes = (
"319 220 OFFCURVE",
"360 256 OFFCURVE",
"413 256 CURVE SMOOTH",
"448 256 OFFCURVE",
"476 242 OFFCURVE",
"530 200 CURVE SMOOTH",
"555 180 OFFCURVE",
"581 163 OFFCURVE",
"607 150 CURVE",
"575 144 OFFCURVE",
"540 133 OFFCURVE",
"451 102 CURVE SMOOTH",
"414 91 OFFCURVE",
"360 81 OFFCURVE",
"309 78 CURVE"
);
}
);
width = 855;
}
);
unicode = 1ED05;
},
{
glyphname = u1ED06;
layers = (
{
layerId = master01;
paths = (
{
closed = 1;
nodes = (
"295 -10 OFFCURVE",
"334 -6 OFFCURVE",
"377 7 CURVE SMOOTH",
"435 24 OFFCURVE",
"494 58 OFFCURVE",
"528 92 CURVE SMOOTH",
"543 107 OFFCURVE",
"557 129 OFFCURVE",
"570 156 CURVE",
"544 177 LINE",
"528 157 OFFCURVE",
"505 139 OFFCURVE",
"470 123 CURVE SMOOTH",
"381 81 OFFCURVE",
"298 70 OFFCURVE",
"209 70 CURVE SMOOTH",
"164 70 OFFCURVE",
"108 74 OFFCURVE",
"70 78 CURVE",
"60 39 LINE",
"101 14 OFFCURVE",
"191 -10 OFFCURVE",
"242 -10 CURVE SMOOTH"
);
}
);
width = 643;
}
);
unicode = 1ED06;
},
{
glyphname = u1ED07;
layers = (
{
layerId = master01;
paths = (
{
closed = 1;
nodes = (
"607 8 LINE",
"612 127 OFFCURVE",
"614 203 OFFCURVE",
"613 237 CURVE SMOOTH",
"609 357 OFFCURVE",
"608 451 OFFCURVE",
"605 523 CURVE",
"568 511 OFFCURVE",
"537 493 OFFCURVE",
"537 447 CURVE SMOOTH",
"537 435 OFFCURVE",
"537 392 OFFCURVE",
"540 309 CURVE",
"492 276 OFFCURVE",
"439 261 OFFCURVE",
"393 261 CURVE SMOOTH",
"382 261 OFFCURVE",
"372 261 OFFCURVE",
"361 262 CURVE",
"395 304 OFFCURVE",
"430 356 OFFCURVE",
"430 407 CURVE SMOOTH",
"430 431 OFFCURVE",
"425 450 OFFCURVE",
"412 468 CURVE SMOOTH",
"387 505 OFFCURVE",
"339 522 OFFCURVE",
"282 522 CURVE SMOOTH",
"253 522 OFFCURVE",
"225 518 OFFCURVE",
"197 509 CURVE SMOOTH",
"142 492 OFFCURVE",
"86 462 OFFCURVE",
"86 415 CURVE SMOOTH",
"86 398 OFFCURVE",
"92 384 OFFCURVE",
"104 371 CURVE",
"120 381 LINE",
"130 374 OFFCURVE",
"142 363 OFFCURVE",
"155 348 CURVE SMOOTH",
"164 337 OFFCURVE",
"192 303 OFFCURVE",
"235 255 CURVE SMOOTH",
"242 247 OFFCURVE",
"250 240 OFFCURVE",
"258 233 CURVE",
"176 149 OFFCURVE",
"123 110 OFFCURVE",
"84 85 CURVE SMOOTH",
"52 64 OFFCURVE",
"24 50 OFFCURVE",
"4 41 CURVE",
"4 9 LINE",
"25 3 OFFCURVE",
"39 0 OFFCURVE",
"61 0 CURVE SMOOTH",
"124 0 OFFCURVE",
"217 90 OFFCURVE",
"310 203 CURVE",
"332 194 OFFCURVE",
"357 189 OFFCURVE",
"383 189 CURVE SMOOTH",
"456 189 OFFCURVE",
"514 215 OFFCURVE",
"547 233 CURVE",
"551 194 OFFCURVE",
"557 95 OFFCURVE",
"561 0 CURVE"
);
},
{
closed = 1;
nodes = (
"291 288 OFFCURVE",
"283 296 OFFCURVE",
"273 307 CURVE SMOOTH",
"230 355 OFFCURVE",
"201 391 OFFCURVE",
"177 410 CURVE",
"215 430 OFFCURVE",
"254 440 OFFCURVE",
"295 440 CURVE SMOOTH",
"339 440 OFFCURVE",
"370 417 OFFCURVE",
"370 383 CURVE SMOOTH",
"370 358 OFFCURVE",
"333 310 OFFCURVE",
"304 280 CURVE"
);
}
);
width = 673;
}
);
unicode = 1ED07;
},
{
glyphname = u1ED08;
layers = (
{
layerId = master01;
paths = (
{
closed = 1;
nodes = (
"0 170 OFFCURVE",
"13 132 OFFCURVE",
"98 132 CURVE SMOOTH",
"137 132 OFFCURVE",
"178 139 OFFCURVE",
"202 146 CURVE",
"201 138 OFFCURVE",
"201 131 OFFCURVE",
"201 122 CURVE SMOOTH",
"201 18 OFFCURVE",
"282 -89 OFFCURVE",
"346 -118 CURVE",
"398 -73 LINE",
"398 -12 OFFCURVE",
"410 58 OFFCURVE",
"431 110 CURVE",
"452 122 OFFCURVE",
"492 134 OFFCURVE",
"538 140 CURVE SMOOTH",
"563 143 OFFCURVE",
"580 161 OFFCURVE",
"580 190 CURVE SMOOTH",
"580 202 OFFCURVE",
"576 215 OFFCURVE",
"567 226 CURVE",
"555 227 OFFCURVE",
"543 226 OFFCURVE",
"527 223 CURVE SMOOTH",
"507 219 OFFCURVE",
"485 212 OFFCURVE",
"462 198 CURVE SMOOTH",
"409 165 OFFCURVE",
"361 85 OFFCURVE",
"348 2 CURVE SMOOTH",
"345 -17 LINE",
"304 15 OFFCURVE",
"261 79 OFFCURVE",
"261 156 CURVE SMOOTH",
"261 179 OFFCURVE",
"263 192 OFFCURVE",
"270 218 CURVE",
"241 239 LINE",
"168 219 OFFCURVE",
"70 204 OFFCURVE",
"0 198 CURVE"
);
}
);
width = 600;
}
);
unicode = 1ED08;
},
{
glyphname = u1ED09;
layers = (
{
layerId = master01;
paths = (
{
closed = 1;
nodes = (
"528 0 OFFCURVE",
"619 18 OFFCURVE",
"680 55 CURVE",
"703 97 OFFCURVE",
"716 137 OFFCURVE",
"716 157 CURVE SMOOTH",
"716 181 OFFCURVE",
"711 215 OFFCURVE",
"701 259 CURVE SMOOTH",
"689 317 OFFCURVE",
"681 355 OFFCURVE",
"678 374 CURVE",
"638 352 OFFCURVE",
"613 319 OFFCURVE",
"613 290 CURVE SMOOTH",
"613 279 OFFCURVE",
"619 257 OFFCURVE",
"631 223 CURVE SMOOTH",
"647 180 OFFCURVE",
"659 144 OFFCURVE",
"668 113 CURVE",
"620 91 OFFCURVE",
"532 76 OFFCURVE",
"460 76 CURVE SMOOTH",
"413 76 OFFCURVE",
"372 79 OFFCURVE",
"348 87 CURVE",
"392 134 OFFCURVE",
"427 186 OFFCURVE",
"427 237 CURVE SMOOTH",
"427 261 OFFCURVE",
"422 280 OFFCURVE",
"409 298 CURVE SMOOTH",
"384 335 OFFCURVE",
"336 352 OFFCURVE",
"279 352 CURVE SMOOTH",
"250 352 OFFCURVE",
"222 348 OFFCURVE",
"194 339 CURVE SMOOTH",
"139 322 OFFCURVE",
"83 292 OFFCURVE",
"83 245 CURVE SMOOTH",
"83 228 OFFCURVE",
"89 214 OFFCURVE",
"101 201 CURVE",
"117 211 LINE",
"127 204 OFFCURVE",
"139 193 OFFCURVE",
"152 178 CURVE SMOOTH",
"161 167 OFFCURVE",
"189 133 OFFCURVE",
"232 85 CURVE SMOOTH",
"239 77 OFFCURVE",
"247 69 OFFCURVE",
"255 62 CURVE",
"185 -1 OFFCURVE",
"131 -32 OFFCURVE",
"101 -47 CURVE SMOOTH",
"71 -62 OFFCURVE",
"42 -75 OFFCURVE",
"0 -88 CURVE",
"0 -121 LINE",
"20 -128 OFFCURVE",
"35 -131 OFFCURVE",
"57 -131 CURVE SMOOTH",
"130 -131 OFFCURVE",
"207 -69 OFFCURVE",
"303 29 CURVE",
"342 9 OFFCURVE",
"389 0 OFFCURVE",
"450 0 CURVE SMOOTH"
);
},
{
closed = 1;
nodes = (
"291 118 OFFCURVE",
"283 126 OFFCURVE",
"273 137 CURVE SMOOTH",
"230 185 OFFCURVE",
"201 221 OFFCURVE",
"177 240 CURVE",
"215 260 OFFCURVE",
"254 270 OFFCURVE",
"295 270 CURVE SMOOTH",
"339 270 OFFCURVE",
"370 247 OFFCURVE",
"370 213 CURVE SMOOTH",
"370 188 OFFCURVE",
"333 140 OFFCURVE",
"304 110 CURVE"
);
}
);
width = 766;
}
);
unicode = 1ED09;
},
{
glyphname = u1ED0A;
layers = (
{
layerId = master01;
paths = (
{
closed = 1;
nodes = (
"504 -15 OFFCURVE",
"690 19 OFFCURVE",
"816 51 CURVE SMOOTH",
"849 59 OFFCURVE",
"881 67 OFFCURVE",
"887 70 CURVE SMOOTH",
"902 79 OFFCURVE",
"909 92 OFFCURVE",
"909 116 CURVE SMOOTH",
"909 131 OFFCURVE",
"905 144 OFFCURVE",
"896 152 CURVE",
"812 119 OFFCURVE",
"777 108 OFFCURVE",
"726 98 CURVE",
"690 100 OFFCURVE",
"659 108 OFFCURVE",
"633 122 CURVE SMOOTH",
"580 151 OFFCURVE",
"552 200 OFFCURVE",
"552 257 CURVE",
"596 282 OFFCURVE",
"639 294 OFFCURVE",
"680 294 CURVE SMOOTH",
"709 294 OFFCURVE",
"724 291 OFFCURVE",
"777 271 CURVE",
"795 303 LINE",
"739 352 OFFCURVE",
"701 374 OFFCURVE",
"655 374 CURVE SMOOTH",
"628 374 OFFCURVE",
"602 364 OFFCURVE",
"578 345 CURVE SMOOTH",
"529 307 OFFCURVE",
"495 237 OFFCURVE",
"495 180 CURVE SMOOTH",
"495 139 OFFCURVE",
"523 101 OFFCURVE",
"555 81 CURVE",
"511 73 OFFCURVE",
"444 68 OFFCURVE",
"409 68 CURVE SMOOTH",
"297 68 OFFCURVE",
"252 126 OFFCURVE",
"252 218 CURVE SMOOTH",
"252 254 OFFCURVE",
"258 291 OFFCURVE",
"272 329 CURVE",
"241 349 LINE",
"168 329 OFFCURVE",
"70 314 OFFCURVE",
"0 308 CURVE",
"0 280 OFFCURVE",
"13 242 OFFCURVE",
"98 242 CURVE SMOOTH",
"142 242 OFFCURVE",
"187 250 OFFCURVE",
"209 258 CURVE",
"205 235 OFFCURVE",
"203 209 OFFCURVE",
"203 180 CURVE SMOOTH",
"203 67 OFFCURVE",
"263 -15 OFFCURVE",
"398 -15 CURVE SMOOTH"
);
}
);
width = 935;
}
);
unicode = 1ED0A;
},
{
glyphname = u1ED0B;
layers = (
{
layerId = master01;
paths = (
{
closed = 1;
nodes = (
"425 0 OFFCURVE",
"483 16 OFFCURVE",
"533 49 CURVE SMOOTH",
"573 76 OFFCURVE",
"596 103 OFFCURVE",
"596 137 CURVE SMOOTH",
"596 146 OFFCURVE",
"593 156 OFFCURVE",
"588 162 CURVE",
"509 106 OFFCURVE",
"452 76 OFFCURVE",
"392 76 CURVE SMOOTH",
"307 76 OFFCURVE",
"252 126 OFFCURVE",
"252 218 CURVE SMOOTH",
"252 254 OFFCURVE",
"258 291 OFFCURVE",
"272 329 CURVE",
"241 349 LINE",
"168 329 OFFCURVE",
"70 314 OFFCURVE",
"0 308 CURVE",
"0 280 OFFCURVE",
"13 242 OFFCURVE",
"98 242 CURVE SMOOTH",
"142 242 OFFCURVE",
"187 250 OFFCURVE",
"209 258 CURVE",
"205 235 OFFCURVE",
"203 209 OFFCURVE",
"203 180 CURVE SMOOTH",
"203 67 OFFCURVE",
"272 0 OFFCURVE",
"371 0 CURVE SMOOTH"
);
},
{
closed = 1;
nodes = (
"617 -37 OFFCURVE",
"686 -20 OFFCURVE",
"739 -10 CURVE SMOOTH",
"800 2 OFFCURVE",
"891 21 OFFCURVE",
"974 41 CURVE SMOOTH",
"1007 49 OFFCURVE",
"1039 57 OFFCURVE",
"1045 60 CURVE SMOOTH",
"1060 69 OFFCURVE",
"1067 82 OFFCURVE",
"1067 106 CURVE SMOOTH",
"1067 121 OFFCURVE",
"1063 134 OFFCURVE",
"1054 142 CURVE",
"979 113 OFFCURVE",
"935 99 OFFCURVE",
"881 88 CURVE",
"848 90 OFFCURVE",
"817 98 OFFCURVE",
"791 112 CURVE SMOOTH",
"738 141 OFFCURVE",
"710 190 OFFCURVE",
"710 247 CURVE",
"754 272 OFFCURVE",
"797 284 OFFCURVE",
"838 284 CURVE SMOOTH",
"867 284 OFFCURVE",
"882 281 OFFCURVE",
"935 261 CURVE",
"953 293 LINE",
"897 342 OFFCURVE",
"859 364 OFFCURVE",
"813 364 CURVE SMOOTH",
"786 364 OFFCURVE",
"760 354 OFFCURVE",
"736 335 CURVE SMOOTH",
"687 297 OFFCURVE",
"653 227 OFFCURVE",
"653 170 CURVE SMOOTH",
"653 131 OFFCURVE",
"681 87 OFFCURVE",
"730 56 CURVE",
"659 33 OFFCURVE",
"577 4 OFFCURVE",
"521 -19 CURVE",
"529 -60 LINE"
);
}
);
width = 1093;
}
);
unicode = 1ED0B;
},
{
glyphname = u1ED0C;
layers = (
{
layerId = master01;
paths = (
{
closed = 1;
nodes = (
"459 0 OFFCURVE",
"517 20 OFFCURVE",
"530 37 CURVE SMOOTH",
"536 44 OFFCURVE",
"542 51 OFFCURVE",
"547 59 CURVE",
"590 20 OFFCURVE",
"643 0 OFFCURVE",
"705 0 CURVE SMOOTH",
"770 0 OFFCURVE",
"833 18 OFFCURVE",
"894 55 CURVE",
"917 97 OFFCURVE",
"930 137 OFFCURVE",
"930 157 CURVE SMOOTH",
"930 181 OFFCURVE",
"925 215 OFFCURVE",
"915 259 CURVE SMOOTH",
"903 317 OFFCURVE",
"895 355 OFFCURVE",
"892 374 CURVE",
"852 352 OFFCURVE",
"827 319 OFFCURVE",
"827 290 CURVE SMOOTH",
"827 279 OFFCURVE",
"833 257 OFFCURVE",
"846 223 CURVE SMOOTH",
"861 180 OFFCURVE",
"873 144 OFFCURVE",
"882 113 CURVE",
"834 91 OFFCURVE",
"766 76 OFFCURVE",
"705 76 CURVE SMOOTH",
"659 76 OFFCURVE",
"626 86 OFFCURVE",
"579 114 CURVE",
"597 149 OFFCURVE",
"613 185 OFFCURVE",
"628 220 CURVE",
"620 225 OFFCURVE",
"612 228 OFFCURVE",
"603 228 CURVE SMOOTH",
"589 228 OFFCURVE",
"578 222 OFFCURVE",
"572 211 CURVE SMOOTH",
"536 143 OFFCURVE",
"520 115 OFFCURVE",
"508 104 CURVE SMOOTH",
"488 86 OFFCURVE",
"453 76 OFFCURVE",
"404 76 CURVE SMOOTH",
"307 76 OFFCURVE",
"252 126 OFFCURVE",
"252 218 CURVE SMOOTH",
"252 254 OFFCURVE",
"258 291 OFFCURVE",
"272 329 CURVE",
"241 349 LINE",
"168 329 OFFCURVE",
"70 314 OFFCURVE",
"0 308 CURVE",
"0 280 OFFCURVE",
"13 242 OFFCURVE",
"98 242 CURVE SMOOTH",
"142 242 OFFCURVE",
"187 250 OFFCURVE",
"209 258 CURVE",
"205 235 OFFCURVE",
"203 209 OFFCURVE",
"203 180 CURVE SMOOTH",
"203 67 OFFCURVE",
"274 0 OFFCURVE",
"404 0 CURVE SMOOTH"
);
}
);
width = 980;
}
);
unicode = 1ED0C;
},
{
glyphname = u1ED0D;
layers = (
{
layerId = master01;
paths = (
{
closed = 1;
nodes = (
"1135 0 OFFCURVE",
"1170 10 OFFCURVE",
"1178 22 CURVE SMOOTH",
"1199 56 OFFCURVE",
"1215 99 OFFCURVE",
"1215 122 CURVE SMOOTH",
"1215 211 OFFCURVE",
"1210 438 OFFCURVE",
"1207 522 CURVE",
"1183 509 OFFCURVE",
"1158 488 OFFCURVE",
"1140 472 CURVE",
"1146 398 OFFCURVE",
"1160 227 OFFCURVE",
"1171 84 CURVE",
"1152 72 OFFCURVE",
"1112 63 OFFCURVE",
"1080 63 CURVE SMOOTH",
"1049 63 OFFCURVE",
"997 70 OFFCURVE",
"988 76 CURVE",
"990 192 LINE SMOOTH",
"993 355 OFFCURVE",
"995 450 OFFCURVE",
"995 522 CURVE",
"969 508 OFFCURVE",
"943 487 OFFCURVE",
"927 472 CURVE",
"927 430 OFFCURVE",
"928 403 OFFCURVE",
"931 310 CURVE",
"883 277 OFFCURVE",
"829 261 OFFCURVE",
"783 261 CURVE SMOOTH",
"772 261 OFFCURVE",
"762 261 OFFCURVE",
"751 262 CURVE",
"785 304 OFFCURVE",
"820 356 OFFCURVE",
"820 407 CURVE SMOOTH",
"820 431 OFFCURVE",
"815 450 OFFCURVE",
"802 468 CURVE SMOOTH",
"777 505 OFFCURVE",
"729 522 OFFCURVE",
"672 522 CURVE SMOOTH",
"643 522 OFFCURVE",
"615 518 OFFCURVE",
"587 509 CURVE SMOOTH",
"532 492 OFFCURVE",
"476 462 OFFCURVE",
"476 415 CURVE SMOOTH",
"476 398 OFFCURVE",
"482 384 OFFCURVE",
"494 371 CURVE",
"510 381 LINE",
"520 374 OFFCURVE",
"532 363 OFFCURVE",
"545 348 CURVE SMOOTH",
"554 337 OFFCURVE",
"582 303 OFFCURVE",
"625 255 CURVE SMOOTH",
"634 245 OFFCURVE",
"644 236 OFFCURVE",
"655 228 CURVE",
"572 140 OFFCURVE",
"477 80 OFFCURVE",
"389 80 CURVE SMOOTH",
"322 80 OFFCURVE",
"272 131 OFFCURVE",
"272 218 CURVE SMOOTH",
"272 254 OFFCURVE",
"278 291 OFFCURVE",
"292 329 CURVE",
"261 349 LINE",
"188 329 OFFCURVE",
"90 314 OFFCURVE",
"20 308 CURVE",
"20 280 OFFCURVE",
"33 242 OFFCURVE",
"118 242 CURVE SMOOTH",
"162 242 OFFCURVE",
"207 250 OFFCURVE",
"229 258 CURVE",
"225 235 OFFCURVE",
"223 209 OFFCURVE",
"223 180 CURVE SMOOTH",
"223 67 OFFCURVE",
"281 0 OFFCURVE",
"389 0 CURVE SMOOTH",
"457 0 OFFCURVE",
"554 32 OFFCURVE",
"701 203 CURVE",
"723 194 OFFCURVE",
"747 189 OFFCURVE",
"773 189 CURVE SMOOTH",
"846 189 OFFCURVE",
"904 215 OFFCURVE",
"937 233 CURVE",
"940 181 OFFCURVE",
"947 100 OFFCURVE",
"950 66 CURVE SMOOTH",
"954 24 OFFCURVE",
"1029 0 OFFCURVE",
"1096 0 CURVE SMOOTH"
);
},
{
closed = 1;
nodes = (
"684 288 OFFCURVE",
"676 296 OFFCURVE",
"666 307 CURVE SMOOTH",
"623 355 OFFCURVE",
"594 391 OFFCURVE",
"570 410 CURVE",
"608 430 OFFCURVE",
"647 440 OFFCURVE",
"688 440 CURVE SMOOTH",
"732 440 OFFCURVE",
"763 417 OFFCURVE",
"763 383 CURVE SMOOTH",
"763 358 OFFCURVE",
"726 310 OFFCURVE",
"697 280 CURVE"
);
}
);
width = 1275;
}
);
unicode = 1ED0D;
},
{
glyphname = u1ED0E;
layers = (
{
layerId = master01;
paths = (
{
closed = 1;
nodes = (
"568 0 OFFCURVE",
"636 21 OFFCURVE",
"720 64 CURVE SMOOTH",
"809 110 OFFCURVE",
"838 119 OFFCURVE",
"884 119 CURVE SMOOTH",
"915 119 OFFCURVE",
"942 116 OFFCURVE",
"964 114 CURVE",
"1003 187 LINE",
"955 187 OFFCURVE",
"918 190 OFFCURVE",
"893 196 CURVE SMOOTH",
"843 207 OFFCURVE",
"800 230 OFFCURVE",
"730 281 CURVE SMOOTH",
"673 323 OFFCURVE",
"633 340 OFFCURVE",
"590 340 CURVE SMOOTH",
"512 340 OFFCURVE",
"449 251 OFFCURVE",
"455 76 CURVE",
"454 76 LINE SMOOTH",
"337 76 OFFCURVE",
"272 126 OFFCURVE",
"272 218 CURVE SMOOTH",
"272 254 OFFCURVE",
"278 291 OFFCURVE",
"292 329 CURVE",
"261 349 LINE",
"188 329 OFFCURVE",
"90 314 OFFCURVE",
"20 308 CURVE",
"20 280 OFFCURVE",
"33 242 OFFCURVE",
"118 242 CURVE SMOOTH",
"162 242 OFFCURVE",
"207 250 OFFCURVE",
"229 258 CURVE",
"225 235 OFFCURVE",
"223 209 OFFCURVE",
"223 180 CURVE SMOOTH",
"223 67 OFFCURVE",
"304 0 OFFCURVE",
"454 0 CURVE SMOOTH"
);
},
{
closed = 1;
nodes = (
"500 220 OFFCURVE",
"541 256 OFFCURVE",
"594 256 CURVE SMOOTH",
"629 256 OFFCURVE",
"657 242 OFFCURVE",
"711 200 CURVE SMOOTH",
"736 180 OFFCURVE",
"762 163 OFFCURVE",
"788 150 CURVE",
"756 144 OFFCURVE",
"721 133 OFFCURVE",
"632 103 CURVE SMOOTH",
"598 92 OFFCURVE",
"543 81 OFFCURVE",
"490 77 CURVE"
);
}
);
width = 1036;
}
);
unicode = 1ED0E;
},
{
glyphname = u1ED0F;
layers = (
{
layerId = master01;
paths = (
{
closed = 1;
nodes = (
"517 0 OFFCURVE",
"621 26 OFFCURVE",
"656 38 CURVE SMOOTH",
"710 56 OFFCURVE",
"734 71 OFFCURVE",
"734 107 CURVE SMOOTH",
"734 114 OFFCURVE",
"732 124 OFFCURVE",
"728 131 CURVE",
"617 98 OFFCURVE",
"494 76 OFFCURVE",
"404 76 CURVE SMOOTH",
"307 76 OFFCURVE",
"252 126 OFFCURVE",
"252 218 CURVE SMOOTH",
"252 254 OFFCURVE",
"258 291 OFFCURVE",
"272 329 CURVE",
"241 349 LINE",
"168 329 OFFCURVE",
"70 314 OFFCURVE",
"0 308 CURVE",
"0 280 OFFCURVE",
"13 242 OFFCURVE",
"98 242 CURVE SMOOTH",
"142 242 OFFCURVE",
"187 250 OFFCURVE",
"209 258 CURVE",
"205 235 OFFCURVE",
"203 209 OFFCURVE",
"203 180 CURVE SMOOTH",
"203 67 OFFCURVE",
"272 0 OFFCURVE",
"414 0 CURVE SMOOTH"
);
}
);
width = 793;
}
);
unicode = 1ED0F;
},
{
glyphname = u1ED10;
layers = (
{
layerId = master01;
paths = (
{
closed = 1;
nodes = (
"457 0 OFFCURVE",
"554 32 OFFCURVE",
"701 203 CURVE",
"723 194 OFFCURVE",
"747 189 OFFCURVE",
"773 189 CURVE SMOOTH",
"846 189 OFFCURVE",
"904 215 OFFCURVE",
"937 233 CURVE",
"941 194 OFFCURVE",
"947 95 OFFCURVE",
"951 0 CURVE",
"997 8 LINE",
"1002 127 OFFCURVE",
"1004 203 OFFCURVE",
"1003 237 CURVE SMOOTH",
"999 357 OFFCURVE",
"998 451 OFFCURVE",
"995 523 CURVE",
"958 511 OFFCURVE",
"927 493 OFFCURVE",
"927 447 CURVE SMOOTH",
"927 435 OFFCURVE",
"927 392 OFFCURVE",
"930 309 CURVE",
"882 276 OFFCURVE",
"829 261 OFFCURVE",
"783 261 CURVE SMOOTH",
"772 261 OFFCURVE",
"762 261 OFFCURVE",
"751 262 CURVE",
"785 304 OFFCURVE",
"820 356 OFFCURVE",
"820 407 CURVE SMOOTH",
"820 431 OFFCURVE",
"815 450 OFFCURVE",
"802 468 CURVE SMOOTH",
"777 505 OFFCURVE",
"729 522 OFFCURVE",
"672 522 CURVE SMOOTH",
"643 522 OFFCURVE",
"615 518 OFFCURVE",
"587 509 CURVE SMOOTH",
"532 492 OFFCURVE",
"476 462 OFFCURVE",
"476 415 CURVE SMOOTH",
"476 398 OFFCURVE",
"482 384 OFFCURVE",
"494 371 CURVE",
"510 381 LINE",
"520 374 OFFCURVE",
"532 363 OFFCURVE",
"545 348 CURVE SMOOTH",
"554 337 OFFCURVE",
"582 303 OFFCURVE",
"625 255 CURVE SMOOTH",
"634 245 OFFCURVE",
"644 236 OFFCURVE",
"655 228 CURVE",
"572 140 OFFCURVE",
"477 80 OFFCURVE",
"389 80 CURVE SMOOTH",
"322 80 OFFCURVE",
"272 131 OFFCURVE",
"272 218 CURVE SMOOTH",
"272 254 OFFCURVE",
"278 291 OFFCURVE",
"292 329 CURVE",
"261 349 LINE",
"188 329 OFFCURVE",
"90 314 OFFCURVE",
"20 308 CURVE",
"20 280 OFFCURVE",
"33 242 OFFCURVE",
"118 242 CURVE SMOOTH",
"162 242 OFFCURVE",
"207 250 OFFCURVE",
"229 258 CURVE",
"225 235 OFFCURVE",
"223 209 OFFCURVE",
"223 180 CURVE SMOOTH",
"223 67 OFFCURVE",
"281 0 OFFCURVE",
"388 0 CURVE SMOOTH"
);
},
{
closed = 1;
nodes = (
"684 288 OFFCURVE",
"676 296 OFFCURVE",
"666 307 CURVE SMOOTH",
"623 355 OFFCURVE",
"594 391 OFFCURVE",
"570 410 CURVE",
"608 430 OFFCURVE",
"647 440 OFFCURVE",
"688 440 CURVE SMOOTH",
"732 440 OFFCURVE",
"763 417 OFFCURVE",
"763 383 CURVE SMOOTH",
"763 358 OFFCURVE",
"726 310 OFFCURVE",
"697 280 CURVE"
);
}
);
width = 1077;
}
);
unicode = 1ED10;
},
{
glyphname = u1ED11;
layers = (
{
layerId = master01;
paths = (
{
closed = 1;
nodes = (
"472 0 OFFCURVE",
"526 18 OFFCURVE",
"587 55 CURVE",
"610 97 OFFCURVE",
"623 137 OFFCURVE",
"623 157 CURVE SMOOTH",
"623 181 OFFCURVE",
"618 215 OFFCURVE",
"608 259 CURVE SMOOTH",
"596 317 OFFCURVE",
"588 355 OFFCURVE",
"585 374 CURVE",
"545 352 OFFCURVE",
"520 319 OFFCURVE",
"520 290 CURVE SMOOTH",
"520 279 OFFCURVE",
"526 257 OFFCURVE",
"538 223 CURVE SMOOTH",
"554 180 OFFCURVE",
"566 144 OFFCURVE",
"575 113 CURVE",
"527 91 OFFCURVE",
"468 76 OFFCURVE",
"404 76 CURVE SMOOTH",
"307 76 OFFCURVE",
"252 126 OFFCURVE",
"252 218 CURVE SMOOTH",
"252 254 OFFCURVE",
"258 291 OFFCURVE",
"272 329 CURVE",
"241 349 LINE",
"168 329 OFFCURVE",
"70 314 OFFCURVE",
"0 308 CURVE",
"0 280 OFFCURVE",
"13 242 OFFCURVE",
"98 242 CURVE SMOOTH",
"142 242 OFFCURVE",
"187 250 OFFCURVE",
"209 258 CURVE",
"205 235 OFFCURVE",
"203 209 OFFCURVE",
"203 180 CURVE SMOOTH",
"203 67 OFFCURVE",
"272 0 OFFCURVE",
"400 0 CURVE SMOOTH"
);
}
);
width = 673;
}
);
unicode = 1ED11;
},
{
glyphname = u1ED12;
layers = (
{
layerId = master01;
paths = (
{
closed = 1;
nodes = (
"922 171 OFFCURVE",
"1013 189 OFFCURVE",
"1074 226 CURVE",
"1097 268 OFFCURVE",
"1110 308 OFFCURVE",
"1110 328 CURVE SMOOTH",
"1110 352 OFFCURVE",
"1105 386 OFFCURVE",
"1095 430 CURVE SMOOTH",
"1083 488 OFFCURVE",
"1075 526 OFFCURVE",
"1072 545 CURVE",
"1032 523 OFFCURVE",
"1007 490 OFFCURVE",
"1007 461 CURVE SMOOTH",
"1007 450 OFFCURVE",
"1013 428 OFFCURVE",
"1025 394 CURVE SMOOTH",
"1041 351 OFFCURVE",
"1053 315 OFFCURVE",
"1062 284 CURVE",
"1014 262 OFFCURVE",
"926 247 OFFCURVE",
"854 247 CURVE SMOOTH",
"807 247 OFFCURVE",
"766 250 OFFCURVE",
"744 258 CURVE",
"786 305 OFFCURVE",
"821 357 OFFCURVE",
"821 408 CURVE SMOOTH",
"821 432 OFFCURVE",
"816 451 OFFCURVE",
"803 469 CURVE SMOOTH",
"778 506 OFFCURVE",
"730 523 OFFCURVE",
"673 523 CURVE SMOOTH",
"644 523 OFFCURVE",
"616 519 OFFCURVE",
"588 510 CURVE SMOOTH",
"533 493 OFFCURVE",
"477 463 OFFCURVE",
"477 416 CURVE SMOOTH",
"477 399 OFFCURVE",
"483 385 OFFCURVE",
"495 372 CURVE",
"511 382 LINE",
"521 375 OFFCURVE",
"533 364 OFFCURVE",
"546 349 CURVE SMOOTH",
"555 338 OFFCURVE",
"583 304 OFFCURVE",
"626 256 CURVE SMOOTH",
"635 246 OFFCURVE",
"645 236 OFFCURVE",
"655 228 CURVE",
"572 139 OFFCURVE",
"477 80 OFFCURVE",
"390 80 CURVE SMOOTH",
"323 80 OFFCURVE",
"273 131 OFFCURVE",
"273 218 CURVE SMOOTH",
"273 254 OFFCURVE",
"279 291 OFFCURVE",
"293 329 CURVE",
"262 349 LINE",
"189 329 OFFCURVE",
"91 314 OFFCURVE",
"21 308 CURVE",
"21 280 OFFCURVE",
"34 242 OFFCURVE",
"119 242 CURVE SMOOTH",
"163 242 OFFCURVE",
"208 250 OFFCURVE",
"230 258 CURVE",
"226 235 OFFCURVE",
"224 209 OFFCURVE",
"224 180 CURVE SMOOTH",
"224 67 OFFCURVE",
"282 0 OFFCURVE",
"390 0 CURVE SMOOTH",
"457 0 OFFCURVE",
"554 31 OFFCURVE",
"699 199 CURVE",
"737 179 OFFCURVE",
"784 171 OFFCURVE",
"844 171 CURVE SMOOTH"
);
},
{
closed = 1;
nodes = (
"685 289 OFFCURVE",
"677 297 OFFCURVE",
"667 308 CURVE SMOOTH",
"624 356 OFFCURVE",
"595 392 OFFCURVE",
"571 411 CURVE",
"609 431 OFFCURVE",
"648 441 OFFCURVE",
"689 441 CURVE SMOOTH",
"733 441 OFFCURVE",
"764 418 OFFCURVE",
"764 384 CURVE SMOOTH",
"764 359 OFFCURVE",
"727 311 OFFCURVE",
"698 281 CURVE"
);
}
);
width = 1160;
}
);
unicode = 1ED12;
},
{
glyphname = u1ED13;
layers = (
{
layerId = master01;
paths = (
{
closed = 1;
nodes = (
"353 0 OFFCURVE",
"388 17 OFFCURVE",
"419 60 CURVE",
"480 24 OFFCURVE",
"580 0 OFFCURVE",
"660 0 CURVE",
"698 31 OFFCURVE",
"711 63 OFFCURVE",
"711 104 CURVE SMOOTH",
"711 139 OFFCURVE",
"705 175 OFFCURVE",
"693 212 CURVE SMOOTH",
"669 287 OFFCURVE",
"627 340 OFFCURVE",
"588 340 CURVE SMOOTH",
"549 340 OFFCURVE",
"515 322 OFFCURVE",
"482 278 CURVE SMOOTH",
"454 241 OFFCURVE",
"447 215 OFFCURVE",
"411 150 CURVE SMOOTH",
"385 101 OFFCURVE",
"353 76 OFFCURVE",
"302 76 CURVE SMOOTH",
"264 76 OFFCURVE",
"189 85 OFFCURVE",
"158 102 CURVE",
"156 169 LINE SMOOTH",
"150 375 OFFCURVE",
"150 515 OFFCURVE",
"144 671 CURVE",
"117 653 OFFCURVE",
"95 634 OFFCURVE",
"76 615 CURVE",
"98 312 OFFCURVE",
"109 182 OFFCURVE",
"120 87 CURVE SMOOTH",
"126 33 OFFCURVE",
"223 0 OFFCURVE",
"302 0 CURVE SMOOTH"
);
},
{
closed = 1;
nodes = (
"565 84 OFFCURVE",
"505 101 OFFCURVE",
"458 126 CURVE",
"477 164 OFFCURVE",
"492 190 OFFCURVE",
"503 206 CURVE SMOOTH",
"525 237 OFFCURVE",
"547 251 OFFCURVE",
"572 251 CURVE SMOOTH",
"579 251 OFFCURVE",
"588 245 OFFCURVE",
"595 234 CURVE SMOOTH",
"616 203 OFFCURVE",
"636 137 OFFCURVE",
"638 76 CURVE"
);
}
);
width = 758;
}
);
unicode = 1ED13;
},
{
glyphname = u1ED14;
layers = (
{
layerId = master01;
paths = (
{
closed = 1;
nodes = (
"199 0 CURVE SMOOTH",
"229 0 OFFCURVE",
"330 5 OFFCURVE",
"347 35 CURVE SMOOTH",
"367 70 OFFCURVE",
"382 112 OFFCURVE",
"382 135 CURVE SMOOTH",
"381 202 OFFCURVE",
"375 312 OFFCURVE",
"361 553 CURVE",
"398 589 OFFCURVE",
"429 603 OFFCURVE",
"467 603 CURVE SMOOTH",
"477 603 OFFCURVE",
"485 603 OFFCURVE",
"493 602 CURVE",
"506 423 LINE SMOOTH",
"516 281 OFFCURVE",
"525 170 OFFCURVE",
"535 87 CURVE SMOOTH",
"541 33 OFFCURVE",
"638 0 OFFCURVE",
"717 0 CURVE SMOOTH",
"768 0 OFFCURVE",
"803 17 OFFCURVE",
"834 60 CURVE",
"895 24 OFFCURVE",
"995 0 OFFCURVE",
"1075 0 CURVE",
"1113 31 OFFCURVE",
"1126 63 OFFCURVE",
"1126 104 CURVE SMOOTH",
"1126 139 OFFCURVE",
"1120 175 OFFCURVE",
"1108 212 CURVE SMOOTH",
"1084 287 OFFCURVE",
"1042 340 OFFCURVE",
"1003 340 CURVE SMOOTH",
"964 340 OFFCURVE",
"930 322 OFFCURVE",
"897 278 CURVE SMOOTH",
"869 241 OFFCURVE",
"862 215 OFFCURVE",
"826 150 CURVE SMOOTH",
"800 101 OFFCURVE",
"768 76 OFFCURVE",
"717 76 CURVE SMOOTH",
"679 76 OFFCURVE",
"604 85 OFFCURVE",
"573 102 CURVE",
"571 169 LINE SMOOTH",
"565 375 OFFCURVE",
"559 550 OFFCURVE",
"554 657 CURVE",
"538 669 OFFCURVE",
"506 679 OFFCURVE",
"467 679 CURVE SMOOTH",
"401 679 OFFCURVE",
"349 645 OFFCURVE",
"334 617 CURVE SMOOTH",
"316 584 OFFCURVE",
"302 538 OFFCURVE",
"304 517 CURVE SMOOTH",
"307 475 OFFCURVE",
"317 376 OFFCURVE",
"327 251 CURVE SMOOTH",
"331 203 OFFCURVE",
"334 153 OFFCURVE",
"338 103 CURVE",
"304 85 OFFCURVE",
"268 76 OFFCURVE",
"198 76 CURVE SMOOTH",
"183 76 OFFCURVE",
"113 77 OFFCURVE",
"50 84 CURVE",
"45 78 OFFCURVE",
"42 67 OFFCURVE",
"42 58 CURVE SMOOTH",
"42 38 OFFCURVE",
"59 21 OFFCURVE",
"101 11 CURVE SMOOTH",
"131 4 OFFCURVE",
"168 0 OFFCURVE"
);
},
{
closed = 1;
nodes = (
"980 84 OFFCURVE",
"920 101 OFFCURVE",
"873 126 CURVE",
"892 164 OFFCURVE",
"907 190 OFFCURVE",
"918 206 CURVE SMOOTH",
"940 237 OFFCURVE",
"962 251 OFFCURVE",
"987 251 CURVE SMOOTH",
"994 251 OFFCURVE",
"1003 245 OFFCURVE",
"1010 234 CURVE SMOOTH",
"1031 203 OFFCURVE",
"1051 137 OFFCURVE",
"1053 76 CURVE"
);
}
);
width = 1173;
}
);
unicode = 1ED14;
},
{
glyphname = u1ED15;
layers = (
{
layerId = master01;
paths = (
{
closed = 1;
nodes = (
"404 0 OFFCURVE",
"468 7 OFFCURVE",
"523 16 CURVE SMOOTH",
"529 17 OFFCURVE",
"531 19 OFFCURVE",
"531 24 CURVE SMOOTH",
"531 84 LINE SMOOTH",
"531 89 OFFCURVE",
"528 92 OFFCURVE",
"523 92 CURVE SMOOTH",
"482 92 OFFCURVE",
"429 102 OFFCURVE",
"399 116 CURVE",
"397 133 OFFCURVE",
"397 150 OFFCURVE",
"397 165 CURVE SMOOTH",
"397 186 OFFCURVE",
"398 208 OFFCURVE",
"400 238 CURVE",
"430 222 OFFCURVE",
"473 212 OFFCURVE",
"515 212 CURVE SMOOTH",
"517 212 LINE SMOOTH",
"573 216 OFFCURVE",
"609 227 OFFCURVE",
"620 247 CURVE SMOOTH",
"639 282 OFFCURVE",
"655 324 OFFCURVE",
"654 347 CURVE SMOOTH",
"651 421 OFFCURVE",
"648 487 OFFCURVE",
"643 559 CURVE",
"618 542 OFFCURVE",
"604 531 OFFCURVE",
"586 513 CURVE",
"596 438 OFFCURVE",
"601 400 OFFCURVE",
"610 315 CURVE",
"593 302 OFFCURVE",
"552 288 OFFCURVE",
"515 288 CURVE SMOOTH",
"472 288 OFFCURVE",
"432 296 OFFCURVE",
"403 307 CURVE",
"407 392 OFFCURVE",
"415 467 OFFCURVE",
"418 495 CURVE SMOOTH",
"420 517 OFFCURVE",
"422 530 OFFCURVE",
"425 549 CURVE",
"406 549 OFFCURVE",
"355 513 OFFCURVE",
"353 503 CURVE SMOOTH",
"351 492 OFFCURVE",
"348 473 OFFCURVE",
"348 421 CURVE SMOOTH",
"348 311 LINE SMOOTH",
"348 268 OFFCURVE",
"353 173 OFFCURVE",
"360 125 CURVE SMOOTH",
"362 109 OFFCURVE",
"371 92 OFFCURVE",
"385 77 CURVE",
"367 76 OFFCURVE",
"352 76 OFFCURVE",
"332 76 CURVE SMOOTH",
"264 76 OFFCURVE",
"189 85 OFFCURVE",
"158 102 CURVE",
"156 169 LINE SMOOTH",
"150 375 OFFCURVE",
"150 515 OFFCURVE",
"144 671 CURVE",
"117 653 OFFCURVE",
"95 634 OFFCURVE",
"76 615 CURVE",
"98 312 OFFCURVE",
"109 182 OFFCURVE",
"120 87 CURVE SMOOTH",
"126 33 OFFCURVE",
"223 0 OFFCURVE",
"332 0 CURVE SMOOTH"
);
}
);
width = 730;
}
);
unicode = 1ED15;
},
{
glyphname = u1ED16;
layers = (
{
layerId = master01;
paths = (
{
closed = 1;
nodes = (
"758 -215 OFFCURVE",
"811 -199 OFFCURVE",
"868 -158 CURVE SMOOTH",
"938 -108 OFFCURVE",
"1010 -1 OFFCURVE",
"1010 69 CURVE SMOOTH",
"1010 91 OFFCURVE",
"998 102 OFFCURVE",
"972 102 CURVE SMOOTH",
"961 102 OFFCURVE",
"900 96 OFFCURVE",
"815 89 CURVE SMOOTH",
"724 81 OFFCURVE",
"605 76 OFFCURVE",
"492 76 CURVE SMOOTH",
"485 76 LINE",
"489 152 OFFCURVE",
"519 220 OFFCURVE",
"547 268 CURVE",
"573 252 OFFCURVE",
"630 237 OFFCURVE",
"669 237 CURVE SMOOTH",
"714 237 OFFCURVE",
"769 244 OFFCURVE",
"781 264 CURVE SMOOTH",
"784 269 OFFCURVE",
"787 275 OFFCURVE",
"789 280 CURVE",
"861 247 OFFCURVE",
"915 237 OFFCURVE",
"1001 237 CURVE",
"1020 273 OFFCURVE",
"1040 337 OFFCURVE",
"1040 360 CURVE SMOOTH",
"1040 417 OFFCURVE",
"1027 530 OFFCURVE",
"1019 587 CURVE",
"978 563 OFFCURVE",
"953 532 OFFCURVE",
"953 503 CURVE SMOOTH",
"953 482 OFFCURVE",
"985 366 OFFCURVE",
"993 316 CURVE",
"925 316 OFFCURVE",
"886 325 OFFCURVE",
"816 355 CURVE",
"836 418 OFFCURVE",
"850 461 OFFCURVE",
"860 482 CURVE",
"853 487 OFFCURVE",
"845 489 OFFCURVE",
"836 489 CURVE SMOOTH",
"815 489 OFFCURVE",
"808 483 OFFCURVE",
"796 457 CURVE SMOOTH",
"782 428 OFFCURVE",
"761 343 OFFCURVE",
"748 323 CURVE",
"727 317 OFFCURVE",
"706 313 OFFCURVE",
"680 313 CURVE SMOOTH",
"637 313 OFFCURVE",
"601 321 OFFCURVE",
"591 326 CURVE",
"598 336 OFFCURVE",
"612 366 OFFCURVE",
"632 417 CURVE",
"625 422 OFFCURVE",
"617 424 OFFCURVE",
"608 424 CURVE SMOOTH",
"593 424 OFFCURVE",
"583 419 OFFCURVE",
"577 408 CURVE SMOOTH",
"565 388 OFFCURVE",
"542 349 OFFCURVE",
"517 304 CURVE SMOOTH",
"478 235 OFFCURVE",
"446 163 OFFCURVE",
"438 77 CURVE",
"181 81 OFFCURVE",
"99 123 OFFCURVE",
"99 185 CURVE SMOOTH",
"99 217 OFFCURVE",
"126 258 OFFCURVE",
"188 278 CURVE SMOOTH",
"236 293 OFFCURVE",
"278 299 OFFCURVE",
"317 302 CURVE SMOOTH",
"342 304 OFFCURVE",
"366 308 OFFCURVE",
"390 312 CURVE",
"395 312 OFFCURVE",
"398 315 OFFCURVE",
"398 320 CURVE SMOOTH",
"398 380 LINE SMOOTH",
"398 385 OFFCURVE",
"395 388 OFFCURVE",
"390 388 CURVE SMOOTH",
"352 388 OFFCURVE",
"277 397 OFFCURVE",
"246 414 CURVE",
"244 503 LINE SMOOTH",
"239 709 OFFCURVE",
"238 827 OFFCURVE",
"232 983 CURVE",
"205 965 OFFCURVE",
"183 946 OFFCURVE",
"164 927 CURVE",
"186 624 OFFCURVE",
"197 494 OFFCURVE",
"208 399 CURVE SMOOTH",
"210 382 OFFCURVE",
"220 368 OFFCURVE",
"236 355 CURVE",
"224 353 OFFCURVE",
"211 349 OFFCURVE",
"195 344 CURVE SMOOTH",
"101 314 OFFCURVE",
"61 229 OFFCURVE",
"61 160 CURVE SMOOTH",
"61 63 OFFCURVE",
"152 5 OFFCURVE",
"438 0 CURVE",
"452 -119 OFFCURVE",
"540 -215 OFFCURVE",
"682 -215 CURVE SMOOTH"
);
},
{
closed = 1;
nodes = (
"613 0 OFFCURVE",
"793 0 OFFCURVE",
"926 13 CURVE SMOOTH",
"948 15 OFFCURVE",
"954 15 OFFCURVE",
"954 9 CURVE SMOOTH",
"954 5 OFFCURVE",
"952 0 OFFCURVE",
"946 -10 CURVE SMOOTH",
"882 -115 OFFCURVE",
"799 -136 OFFCURVE",
"694 -136 CURVE SMOOTH",
"579 -136 OFFCURVE",
"513 -81 OFFCURVE",
"492 0 CURVE"
);
}
);
width = 1091;
}
);
unicode = 1ED16;
},
{
glyphname = u1ED17;
layers = (
{
layerId = master01;
paths = (
{
closed = 1;
nodes = (
"610 0 OFFCURVE",
"683 22 OFFCURVE",
"765 64 CURVE SMOOTH",
"854 110 OFFCURVE",
"883 119 OFFCURVE",
"929 119 CURVE SMOOTH",
"960 119 OFFCURVE",
"987 116 OFFCURVE",
"1019 114 CURVE",
"1058 187 LINE",
"1010 187 OFFCURVE",
"963 190 OFFCURVE",
"938 196 CURVE SMOOTH",
"888 207 OFFCURVE",
"845 230 OFFCURVE",
"775 281 CURVE SMOOTH",
"718 323 OFFCURVE",
"678 340 OFFCURVE",
"635 340 CURVE SMOOTH",
"557 340 OFFCURVE",
"494 251 OFFCURVE",
"500 77 CURVE",
"482 76 OFFCURVE",
"462 76 OFFCURVE",
"441 76 CURVE SMOOTH",
"192 76 OFFCURVE",
"99 119 OFFCURVE",
"99 185 CURVE SMOOTH",
"99 217 OFFCURVE",
"126 258 OFFCURVE",
"188 278 CURVE SMOOTH",
"236 293 OFFCURVE",
"278 299 OFFCURVE",
"317 302 CURVE SMOOTH",
"342 304 OFFCURVE",
"366 308 OFFCURVE",
"390 312 CURVE",
"395 312 OFFCURVE",
"398 315 OFFCURVE",
"398 320 CURVE SMOOTH",
"398 380 LINE SMOOTH",
"398 385 OFFCURVE",
"395 388 OFFCURVE",
"390 388 CURVE SMOOTH",
"352 388 OFFCURVE",
"277 397 OFFCURVE",
"246 414 CURVE",
"244 503 LINE SMOOTH",
"239 709 OFFCURVE",
"238 827 OFFCURVE",
"232 983 CURVE",
"205 965 OFFCURVE",
"183 946 OFFCURVE",
"164 927 CURVE",
"186 624 OFFCURVE",
"197 494 OFFCURVE",
"208 399 CURVE SMOOTH",
"210 382 OFFCURVE",
"220 368 OFFCURVE",
"236 355 CURVE",
"224 353 OFFCURVE",
"211 349 OFFCURVE",
"195 344 CURVE SMOOTH",
"101 314 OFFCURVE",
"61 229 OFFCURVE",
"61 160 CURVE SMOOTH",
"61 59 OFFCURVE",
"161 0 OFFCURVE",
"456 0 CURVE SMOOTH"
);
},
{
closed = 1;
nodes = (
"545 220 OFFCURVE",
"586 256 OFFCURVE",
"639 256 CURVE SMOOTH",
"674 256 OFFCURVE",
"702 242 OFFCURVE",
"756 200 CURVE SMOOTH",
"781 180 OFFCURVE",
"807 163 OFFCURVE",
"833 150 CURVE",
"801 144 OFFCURVE",
"766 133 OFFCURVE",
"677 103 CURVE SMOOTH",
"646 93 OFFCURVE",
"609 83 OFFCURVE",
"535 78 CURVE"
);
}
);
width = 1091;
}
);
unicode = 1ED17;
},
{
glyphname = u1ED18;
layers = (
{
layerId = master01;
paths = (
{
closed = 1;
nodes = (
"404 0 OFFCURVE",
"468 7 OFFCURVE",
"523 16 CURVE SMOOTH",
"529 17 OFFCURVE",
"531 19 OFFCURVE",
"531 24 CURVE SMOOTH",
"531 84 LINE SMOOTH",
"531 89 OFFCURVE",
"528 92 OFFCURVE",
"523 92 CURVE SMOOTH",
"482 92 OFFCURVE",
"429 102 OFFCURVE",
"399 116 CURVE",
"397 133 OFFCURVE",
"397 150 OFFCURVE",
"397 165 CURVE SMOOTH",
"397 238 LINE SMOOTH",
"397 257 OFFCURVE",
"398 277 OFFCURVE",
"401 300 CURVE",
"429 273 OFFCURVE",
"475 258 OFFCURVE",
"536 258 CURVE SMOOTH",
"560 258 OFFCURVE",
"593 261 OFFCURVE",
"630 270 CURVE SMOOTH",
"687 284 OFFCURVE",
"744 309 OFFCURVE",
"778 343 CURVE SMOOTH",
"793 358 OFFCURVE",
"807 379 OFFCURVE",
"820 406 CURVE",
"794 427 LINE",
"778 407 OFFCURVE",
"755 390 OFFCURVE",
"720 374 CURVE SMOOTH",
"656 345 OFFCURVE",
"590 334 OFFCURVE",
"536 334 CURVE SMOOTH",
"462 334 OFFCURVE",
"421 364 OFFCURVE",
"421 395 CURVE SMOOTH",
"421 402 OFFCURVE",
"422 427 OFFCURVE",
"425 441 CURVE",
"412 439 OFFCURVE",
"371 424 OFFCURVE",
"353 412 CURVE",
"350 385 OFFCURVE",
"348 360 OFFCURVE",
"348 332 CURVE SMOOTH",
"348 281 LINE SMOOTH",
"348 238 OFFCURVE",
"353 173 OFFCURVE",
"360 125 CURVE SMOOTH",
"362 109 OFFCURVE",
"371 92 OFFCURVE",
"385 77 CURVE",
"367 76 OFFCURVE",
"352 76 OFFCURVE",
"332 76 CURVE SMOOTH",
"264 76 OFFCURVE",
"189 85 OFFCURVE",
"158 102 CURVE",
"156 169 LINE SMOOTH",
"150 375 OFFCURVE",
"150 515 OFFCURVE",
"144 671 CURVE",
"117 653 OFFCURVE",
"95 634 OFFCURVE",
"76 615 CURVE",
"98 312 OFFCURVE",
"109 182 OFFCURVE",
"120 87 CURVE SMOOTH",
"126 33 OFFCURVE",
"223 0 OFFCURVE",
"332 0 CURVE SMOOTH"
);
}
);
width = 920;
}
);
unicode = 1ED18;
},
{
glyphname = u1ED19;
layers = (
{
layerId = master01;
paths = (
{
closed = 1;
nodes = (
"666 -215 OFFCURVE",
"703 -194 OFFCURVE",
"744 -157 CURVE SMOOTH",
"806 -102 OFFCURVE",
"853 10 OFFCURVE",
"853 64 CURVE SMOOTH",
"853 86 OFFCURVE",
"848 96 OFFCURVE",
"822 96 CURVE SMOOTH",
"811 96 OFFCURVE",
"784 94 OFFCURVE",
"715 87 CURVE SMOOTH",
"660 81 OFFCURVE",
"585 76 OFFCURVE",
"492 76 CURVE SMOOTH",
"484 76 LINE",
"490 137 OFFCURVE",
"513 205 OFFCURVE",
"547 271 CURVE",
"582 246 OFFCURVE",
"653 229 OFFCURVE",
"713 229 CURVE SMOOTH",
"805 229 OFFCURVE",
"875 251 OFFCURVE",
"901 270 CURVE",
"907 146 OFFCURVE",
"921 -36 OFFCURVE",
"945 -170 CURVE",
"985 -167 LINE",
"976 -4 OFFCURVE",
"972 83 OFFCURVE",
"971 117 CURVE SMOOTH",
"967 217 OFFCURVE",
"965 314 OFFCURVE",
"963 362 CURVE SMOOTH",
"962 376 OFFCURVE",
"958 382 OFFCURVE",
"948 382 CURVE SMOOTH",
"944 382 OFFCURVE",
"937 381 OFFCURVE",
"934 380 CURVE",
"920 359 OFFCURVE",
"904 342 OFFCURVE",
"881 331 CURVE SMOOTH",
"859 321 OFFCURVE",
"806 305 OFFCURVE",
"713 305 CURVE SMOOTH",
"660 305 OFFCURVE",
"611 314 OFFCURVE",
"587 332 CURVE",
"590 341 OFFCURVE",
"606 377 OFFCURVE",
"624 410 CURVE",
"617 415 OFFCURVE",
"606 417 OFFCURVE",
"597 417 CURVE SMOOTH",
"582 417 OFFCURVE",
"572 412 OFFCURVE",
"566 401 CURVE SMOOTH",
"554 381 OFFCURVE",
"533 342 OFFCURVE",
"513 297 CURVE SMOOTH",
"482 227 OFFCURVE",
"450 146 OFFCURVE",
"439 76 CURVE",
"181 81 OFFCURVE",
"99 123 OFFCURVE",
"99 185 CURVE SMOOTH",
"99 217 OFFCURVE",
"126 258 OFFCURVE",
"188 278 CURVE SMOOTH",
"236 293 OFFCURVE",
"278 299 OFFCURVE",
"317 302 CURVE SMOOTH",
"342 304 OFFCURVE",
"366 308 OFFCURVE",
"390 312 CURVE",
"395 312 OFFCURVE",
"398 315 OFFCURVE",
"398 320 CURVE SMOOTH",
"398 380 LINE SMOOTH",
"398 385 OFFCURVE",
"395 388 OFFCURVE",
"390 388 CURVE SMOOTH",
"352 388 OFFCURVE",
"277 397 OFFCURVE",
"246 414 CURVE",
"244 503 LINE SMOOTH",
"239 709 OFFCURVE",
"238 827 OFFCURVE",
"232 983 CURVE",
"205 965 OFFCURVE",
"183 946 OFFCURVE",
"164 927 CURVE",
"186 624 OFFCURVE",
"197 494 OFFCURVE",
"208 399 CURVE SMOOTH",
"210 382 OFFCURVE",
"220 368 OFFCURVE",
"236 355 CURVE",
"224 353 OFFCURVE",
"211 349 OFFCURVE",
"195 344 CURVE SMOOTH",
"101 314 OFFCURVE",
"61 229 OFFCURVE",
"61 160 CURVE SMOOTH",
"61 64 OFFCURVE",
"152 5 OFFCURVE",
"437 0 CURVE",
"444 -119 OFFCURVE",
"487 -215 OFFCURVE",
"596 -215 CURVE SMOOTH"
);
},
{
closed = 1;
nodes = (
"583 0 OFFCURVE",
"680 4 OFFCURVE",
"778 13 CURVE SMOOTH",
"796 15 OFFCURVE",
"802 15 OFFCURVE",
"802 9 CURVE SMOOTH",
"802 5 OFFCURVE",
"800 -2 OFFCURVE",
"796 -12 CURVE SMOOTH",
"764 -98 OFFCURVE",
"702 -136 OFFCURVE",
"617 -136 CURVE SMOOTH",
"518 -136 OFFCURVE",
"490 -74 OFFCURVE",
"484 0 CURVE"
);
}
);
width = 1045;
}
);
unicode = 1ED19;
},
{
glyphname = u1ED1A;
layers = (
{
layerId = master01;
paths = (
{
closed = 1;
nodes = (
"547 0 OFFCURVE",
"620 18 OFFCURVE",
"681 55 CURVE",
"704 97 OFFCURVE",
"717 137 OFFCURVE",
"717 157 CURVE SMOOTH",
"717 181 OFFCURVE",
"712 215 OFFCURVE",
"702 259 CURVE SMOOTH",
"690 317 OFFCURVE",
"682 355 OFFCURVE",
"679 374 CURVE",
"639 352 OFFCURVE",
"614 319 OFFCURVE",
"614 290 CURVE SMOOTH",
"614 279 OFFCURVE",
"620 257 OFFCURVE",
"632 223 CURVE SMOOTH",
"648 180 OFFCURVE",
"660 144 OFFCURVE",
"669 113 CURVE",
"621 91 OFFCURVE",
"543 76 OFFCURVE",
"434 76 CURVE SMOOTH",
"302 76 OFFCURVE",
"99 92 OFFCURVE",
"99 185 CURVE SMOOTH",
"99 217 OFFCURVE",
"126 258 OFFCURVE",
"188 278 CURVE SMOOTH",
"236 293 OFFCURVE",
"278 299 OFFCURVE",
"317 302 CURVE SMOOTH",
"342 304 OFFCURVE",
"366 308 OFFCURVE",
"390 312 CURVE",
"395 312 OFFCURVE",
"398 315 OFFCURVE",
"398 320 CURVE SMOOTH",
"398 380 LINE SMOOTH",
"398 385 OFFCURVE",
"395 388 OFFCURVE",
"390 388 CURVE SMOOTH",
"352 388 OFFCURVE",
"277 397 OFFCURVE",
"246 414 CURVE",
"244 503 LINE SMOOTH",
"239 709 OFFCURVE",
"238 827 OFFCURVE",
"232 983 CURVE",
"205 965 OFFCURVE",
"183 946 OFFCURVE",
"164 927 CURVE",
"186 624 OFFCURVE",
"197 494 OFFCURVE",
"208 399 CURVE SMOOTH",
"210 382 OFFCURVE",
"220 368 OFFCURVE",
"236 355 CURVE",
"224 353 OFFCURVE",
"211 349 OFFCURVE",
"195 344 CURVE SMOOTH",
"101 314 OFFCURVE",
"61 229 OFFCURVE",
"61 160 CURVE SMOOTH",
"61 35 OFFCURVE",
"263 0 OFFCURVE",
"434 0 CURVE SMOOTH"
);
}
);
width = 767;
}
);
unicode = 1ED1A;
},
{
glyphname = u1ED1B;
layers = (
{
layerId = master01;
paths = (
{
closed = 1;
nodes = (
"716 -215 OFFCURVE",
"766 -193 OFFCURVE",
"808 -157 CURVE SMOOTH",
"872 -102 OFFCURVE",
"919 10 OFFCURVE",
"919 64 CURVE SMOOTH",
"919 86 OFFCURVE",
"914 96 OFFCURVE",
"888 96 CURVE SMOOTH",
"877 96 OFFCURVE",
"851 93 OFFCURVE",
"781 87 CURVE SMOOTH",
"720 82 OFFCURVE",
"585 76 OFFCURVE",
"492 76 CURVE SMOOTH",
"484 76 LINE",
"490 137 OFFCURVE",
"511 205 OFFCURVE",
"545 271 CURVE",
"580 246 OFFCURVE",
"655 229 OFFCURVE",
"712 229 CURVE SMOOTH",
"800 229 OFFCURVE",
"843 252 OFFCURVE",
"887 284 CURVE",
"910 326 OFFCURVE",
"923 366 OFFCURVE",
"923 386 CURVE SMOOTH",
"923 410 OFFCURVE",
"918 444 OFFCURVE",
"908 488 CURVE SMOOTH",
"896 546 OFFCURVE",
"888 584 OFFCURVE",
"885 603 CURVE",
"845 581 OFFCURVE",
"820 548 OFFCURVE",
"820 519 CURVE SMOOTH",
"820 508 OFFCURVE",
"826 486 OFFCURVE",
"838 452 CURVE SMOOTH",
"854 409 OFFCURVE",
"866 373 OFFCURVE",
"875 342 CURVE",
"844 324 OFFCURVE",
"796 305 OFFCURVE",
"712 305 CURVE SMOOTH",
"662 305 OFFCURVE",
"609 314 OFFCURVE",
"585 332 CURVE",
"588 341 OFFCURVE",
"604 377 OFFCURVE",
"619 410 CURVE",
"612 415 OFFCURVE",
"604 417 OFFCURVE",
"595 417 CURVE SMOOTH",
"580 417 OFFCURVE",
"570 412 OFFCURVE",
"564 401 CURVE SMOOTH",
"552 381 OFFCURVE",
"531 342 OFFCURVE",
"511 297 CURVE SMOOTH",
"480 227 OFFCURVE",
"449 146 OFFCURVE",
"439 76 CURVE",
"181 81 OFFCURVE",
"99 123 OFFCURVE",
"99 185 CURVE SMOOTH",
"99 217 OFFCURVE",
"126 258 OFFCURVE",
"188 278 CURVE SMOOTH",
"236 293 OFFCURVE",
"278 299 OFFCURVE",
"317 302 CURVE SMOOTH",
"342 304 OFFCURVE",
"366 308 OFFCURVE",
"390 312 CURVE",
"395 312 OFFCURVE",
"398 315 OFFCURVE",
"398 320 CURVE SMOOTH",
"398 380 LINE SMOOTH",
"398 385 OFFCURVE",
"395 388 OFFCURVE",
"390 388 CURVE SMOOTH",
"352 388 OFFCURVE",
"277 397 OFFCURVE",
"246 414 CURVE",
"244 503 LINE SMOOTH",
"239 709 OFFCURVE",
"238 827 OFFCURVE",
"232 983 CURVE",
"205 965 OFFCURVE",
"183 946 OFFCURVE",
"164 927 CURVE",
"186 624 OFFCURVE",
"197 494 OFFCURVE",
"208 399 CURVE SMOOTH",
"210 382 OFFCURVE",
"220 368 OFFCURVE",
"236 355 CURVE",
"224 353 OFFCURVE",
"211 349 OFFCURVE",
"195 344 CURVE SMOOTH",
"101 314 OFFCURVE",
"61 229 OFFCURVE",
"61 160 CURVE SMOOTH",
"61 64 OFFCURVE",
"152 5 OFFCURVE",
"437 0 CURVE",
"444 -119 OFFCURVE",
"491 -215 OFFCURVE",
"641 -215 CURVE SMOOTH"
);
},
{
closed = 1;
nodes = (
"585 0 OFFCURVE",
"740 4 OFFCURVE",
"844 13 CURVE SMOOTH",
"862 15 OFFCURVE",
"868 15 OFFCURVE",
"868 9 CURVE SMOOTH",
"868 5 OFFCURVE",
"866 -2 OFFCURVE",
"862 -12 CURVE SMOOTH",
"830 -98 OFFCURVE",
"763 -136 OFFCURVE",
"654 -136 CURVE SMOOTH",
"526 -136 OFFCURVE",
"492 -74 OFFCURVE",
"484 0 CURVE"
);
}
);
width = 974;
}
);
unicode = 1ED1B;
},
{
glyphname = u1ED1C;
layers = (
{
layerId = master01;
paths = (
{
closed = 1;
nodes = (
"489 0 OFFCURVE",
"547 9 OFFCURVE",
"593 32 CURVE",
"649 10 OFFCURVE",
"715 0 OFFCURVE",
"798 0 CURVE SMOOTH",
"865 0 OFFCURVE",
"905 12 OFFCURVE",
"917 35 CURVE SMOOTH",
"937 70 OFFCURVE",
"952 112 OFFCURVE",
"952 135 CURVE SMOOTH",
"951 206 OFFCURVE",
"948 291 OFFCURVE",
"942 388 CURVE SMOOTH",
"934 505 OFFCURVE",
"929 599 OFFCURVE",
"925 671 CURVE",
"900 653 OFFCURVE",
"878 635 OFFCURVE",
"859 615 CURVE",
"873 497 OFFCURVE",
"885 376 OFFCURVE",
"897 251 CURVE SMOOTH",
"909 103 LINE",
"875 85 OFFCURVE",
"838 76 OFFCURVE",
"798 76 CURVE SMOOTH",
"748 76 OFFCURVE",
"712 78 OFFCURVE",
"691 81 CURVE",
"719 114 OFFCURVE",
"734 152 OFFCURVE",
"734 195 CURVE SMOOTH",
"734 223 OFFCURVE",
"729 252 OFFCURVE",
"718 281 CURVE SMOOTH",
"698 338 OFFCURVE",
"664 374 OFFCURVE",
"629 374 CURVE SMOOTH",
"565 374 OFFCURVE",
"505 333 OFFCURVE",
"471 270 CURVE SMOOTH",
"463 256 OFFCURVE",
"453 200 OFFCURVE",
"453 166 CURVE SMOOTH",
"453 137 OFFCURVE",
"465 108 OFFCURVE",
"490 80 CURVE",
"469 77 OFFCURVE",
"441 76 OFFCURVE",
"404 76 CURVE SMOOTH",
"307 76 OFFCURVE",
"252 126 OFFCURVE",
"252 218 CURVE SMOOTH",
"252 254 OFFCURVE",
"258 291 OFFCURVE",
"272 329 CURVE",
"241 349 LINE",
"168 329 OFFCURVE",
"70 314 OFFCURVE",
"0 308 CURVE",
"0 280 OFFCURVE",
"13 242 OFFCURVE",
"98 242 CURVE SMOOTH",
"142 242 OFFCURVE",
"187 250 OFFCURVE",
"209 258 CURVE",
"205 235 OFFCURVE",
"203 209 OFFCURVE",
"203 180 CURVE SMOOTH",
"203 67 OFFCURVE",
"274 0 OFFCURVE",
"404 0 CURVE SMOOTH"
);
},
{
closed = 1;
nodes = (
"552 119 OFFCURVE",
"518 143 OFFCURVE",
"490 175 CURVE",
"522 237 OFFCURVE",
"582 289 OFFCURVE",
"620 289 CURVE SMOOTH",
"627 289 OFFCURVE",
"636 282 OFFCURVE",
"648 269 CURVE SMOOTH",
"670 242 OFFCURVE",
"691 197 OFFCURVE",
"695 164 CURVE",
"664 137 OFFCURVE",
"630 117 OFFCURVE",
"593 103 CURVE"
);
},
{
closed = 1;
nodes = (
"1151 8 LINE",
"1160 230 OFFCURVE",
"1160 380 OFFCURVE",
"1152 529 CURVE",
"1179 552 LINE",
"1163 599 OFFCURVE",
"1149 645 OFFCURVE",
"1144 671 CURVE",
"1092 661 OFFCURVE",
"1073 636 OFFCURVE",
"1078 582 CURVE SMOOTH",
"1093 428 OFFCURVE",
"1101 234 OFFCURVE",
"1105 0 CURVE"
);
}
);
width = 1238;
}
);
unicode = 1ED1C;
},
{
glyphname = u1ED1D;
layers = (
{
layerId = master01;
paths = (
{
closed = 1;
nodes = (
"622 0 OFFCURVE",
"776 4 OFFCURVE",
"811 11 CURVE SMOOTH",
"864 22 OFFCURVE",
"889 41 OFFCURVE",
"889 77 CURVE SMOOTH",
"889 84 OFFCURVE",
"887 94 OFFCURVE",
"883 101 CURVE",
"804 84 OFFCURVE",
"649 76 OFFCURVE",
"492 76 CURVE SMOOTH",
"192 76 OFFCURVE",
"99 119 OFFCURVE",
"99 185 CURVE SMOOTH",
"99 217 OFFCURVE",
"128 261 OFFCURVE",
"180 279 CURVE SMOOTH",
"203 287 OFFCURVE",
"237 296 OFFCURVE",
"268 303 CURVE SMOOTH",
"311 313 OFFCURVE",
"322 324 OFFCURVE",
"328 335 CURVE SMOOTH",
"347 370 OFFCURVE",
"362 412 OFFCURVE",
"362 435 CURVE SMOOTH",
"361 506 OFFCURVE",
"358 591 OFFCURVE",
"352 688 CURVE SMOOTH",
"344 805 OFFCURVE",
"339 899 OFFCURVE",
"335 971 CURVE",
"310 953 OFFCURVE",
"288 935 OFFCURVE",
"269 915 CURVE",
"283 797 OFFCURVE",
"295 676 OFFCURVE",
"307 551 CURVE SMOOTH",
"319 403 LINE",
"285 385 OFFCURVE",
"240 381 OFFCURVE",
"137 381 CURVE SMOOTH",
"135 381 OFFCURVE",
"136 350 OFFCURVE",
"146 321 CURVE",
"87 282 OFFCURVE",
"61 216 OFFCURVE",
"61 160 CURVE SMOOTH",
"61 59 OFFCURVE",
"161 0 OFFCURVE",
"479 0 CURVE SMOOTH"
);
},
{
closed = 1;
nodes = (
"1040 8 LINE",
"1049 230 OFFCURVE",
"1049 380 OFFCURVE",
"1041 529 CURVE",
"1068 552 LINE",
"1052 599 OFFCURVE",
"1038 645 OFFCURVE",
"1033 671 CURVE",
"981 661 OFFCURVE",
"962 636 OFFCURVE",
"967 582 CURVE SMOOTH",
"982 428 OFFCURVE",
"990 234 OFFCURVE",
"994 0 CURVE"
);
}
);
width = 1128;
}
);
unicode = 1ED1D;
},
{
glyphname = u1ED1E;
layers = (
{
layerId = master01;
paths = (
{
closed = 1;
nodes = (
"1342 0 OFFCURVE",
"1400 20 OFFCURVE",
"1413 37 CURVE SMOOTH",
"1419 44 OFFCURVE",
"1425 51 OFFCURVE",
"1430 59 CURVE",
"1473 20 OFFCURVE",
"1526 0 OFFCURVE",
"1588 0 CURVE SMOOTH",
"1653 0 OFFCURVE",
"1716 18 OFFCURVE",
"1777 55 CURVE",
"1800 97 OFFCURVE",
"1813 137 OFFCURVE",
"1813 157 CURVE SMOOTH",
"1813 181 OFFCURVE",
"1808 215 OFFCURVE",
"1798 259 CURVE SMOOTH",
"1786 317 OFFCURVE",
"1778 355 OFFCURVE",
"1775 374 CURVE",
"1735 352 OFFCURVE",
"1710 319 OFFCURVE",
"1710 290 CURVE SMOOTH",
"1710 279 OFFCURVE",
"1716 257 OFFCURVE",
"1729 223 CURVE SMOOTH",
"1744 180 OFFCURVE",
"1756 144 OFFCURVE",
"1765 113 CURVE",
"1717 91 OFFCURVE",
"1649 76 OFFCURVE",
"1588 76 CURVE SMOOTH",
"1542 76 OFFCURVE",
"1509 86 OFFCURVE",
"1462 114 CURVE",
"1480 149 OFFCURVE",
"1496 185 OFFCURVE",
"1511 220 CURVE",
"1503 225 OFFCURVE",
"1495 228 OFFCURVE",
"1486 228 CURVE SMOOTH",
"1472 228 OFFCURVE",
"1461 222 OFFCURVE",
"1455 211 CURVE SMOOTH",
"1419 143 OFFCURVE",
"1403 115 OFFCURVE",
"1391 104 CURVE SMOOTH",
"1371 86 OFFCURVE",
"1336 76 OFFCURVE",
"1287 76 CURVE SMOOTH",
"1249 76 OFFCURVE",
"1174 85 OFFCURVE",
"1143 102 CURVE",
"1141 169 LINE SMOOTH",
"1135 375 OFFCURVE",
"1129 550 OFFCURVE",
"1124 657 CURVE",
"1108 669 OFFCURVE",
"1076 679 OFFCURVE",
"1037 679 CURVE SMOOTH",
"971 679 OFFCURVE",
"919 645 OFFCURVE",
"904 617 CURVE SMOOTH",
"886 584 OFFCURVE",
"872 538 OFFCURVE",
"874 517 CURVE SMOOTH",
"877 475 OFFCURVE",
"887 376 OFFCURVE",
"897 251 CURVE SMOOTH",
"901 203 OFFCURVE",
"904 153 OFFCURVE",
"908 103 CURVE",
"874 85 OFFCURVE",
"838 76 OFFCURVE",
"798 76 CURVE SMOOTH",
"748 76 OFFCURVE",
"712 78 OFFCURVE",
"691 81 CURVE",
"719 114 OFFCURVE",
"734 152 OFFCURVE",
"734 195 CURVE SMOOTH",
"734 223 OFFCURVE",
"729 252 OFFCURVE",
"718 281 CURVE SMOOTH",
"698 338 OFFCURVE",
"664 374 OFFCURVE",
"629 374 CURVE SMOOTH",
"565 374 OFFCURVE",
"505 333 OFFCURVE",
"471 270 CURVE SMOOTH",
"463 256 OFFCURVE",
"453 200 OFFCURVE",
"453 166 CURVE SMOOTH",
"453 137 OFFCURVE",
"465 108 OFFCURVE",
"490 80 CURVE",
"469 77 OFFCURVE",
"441 76 OFFCURVE",
"404 76 CURVE SMOOTH",
"307 76 OFFCURVE",
"252 126 OFFCURVE",
"252 218 CURVE SMOOTH",
"252 254 OFFCURVE",
"258 291 OFFCURVE",
"272 329 CURVE",
"241 349 LINE",
"168 329 OFFCURVE",
"70 314 OFFCURVE",
"0 308 CURVE",
"0 280 OFFCURVE",
"13 242 OFFCURVE",
"98 242 CURVE SMOOTH",
"142 242 OFFCURVE",
"187 250 OFFCURVE",
"209 258 CURVE",
"205 235 OFFCURVE",
"203 209 OFFCURVE",
"203 180 CURVE SMOOTH",
"203 67 OFFCURVE",
"274 0 OFFCURVE",
"404 0 CURVE SMOOTH",
"489 0 OFFCURVE",
"547 9 OFFCURVE",
"593 32 CURVE",
"649 10 OFFCURVE",
"715 0 OFFCURVE",
"798 0 CURVE SMOOTH",
"865 0 OFFCURVE",
"905 12 OFFCURVE",
"917 35 CURVE SMOOTH",
"937 70 OFFCURVE",
"952 112 OFFCURVE",
"952 135 CURVE SMOOTH",
"951 202 OFFCURVE",
"945 312 OFFCURVE",
"931 553 CURVE",
"968 589 OFFCURVE",
"999 603 OFFCURVE",
"1037 603 CURVE SMOOTH",
"1047 603 OFFCURVE",
"1055 603 OFFCURVE",
"1063 602 CURVE",
"1076 423 LINE SMOOTH",
"1086 281 OFFCURVE",
"1095 170 OFFCURVE",
"1105 87 CURVE SMOOTH",
"1111 33 OFFCURVE",
"1208 0 OFFCURVE",
"1287 0 CURVE SMOOTH"
);
},
{
closed = 1;
nodes = (
"552 119 OFFCURVE",
"518 143 OFFCURVE",
"490 175 CURVE",
"522 237 OFFCURVE",
"582 289 OFFCURVE",
"620 289 CURVE SMOOTH",
"627 289 OFFCURVE",
"636 282 OFFCURVE",
"648 269 CURVE SMOOTH",
"670 242 OFFCURVE",
"691 197 OFFCURVE",
"695 164 CURVE",
"664 137 OFFCURVE",
"630 117 OFFCURVE",
"593 103 CURVE"
);
}
);
width = 1863;
}
);
unicode = 1ED1E;
},
{
glyphname = u1ED1F;
layers = (
{
layerId = master01;
paths = (
{
closed = 1;
nodes = (
"2013 -247 OFFCURVE",
"2048 -237 OFFCURVE",
"2056 -225 CURVE SMOOTH",
"2077 -191 OFFCURVE",
"2093 -148 OFFCURVE",
"2093 -125 CURVE SMOOTH",
"2093 -36 OFFCURVE",
"2088 184 OFFCURVE",
"2085 268 CURVE",
"2058 256 OFFCURVE",
"2033 239 OFFCURVE",
"2018 222 CURVE",
"2025 146 OFFCURVE",
"2038 -20 OFFCURVE",
"2049 -163 CURVE",
"2030 -175 OFFCURVE",
"1990 -184 OFFCURVE",
"1958 -184 CURVE SMOOTH",
"1927 -184 OFFCURVE",
"1875 -177 OFFCURVE",
"1866 -171 CURVE",
"1868 -62 LINE SMOOTH",
"1871 101 OFFCURVE",
"1873 196 OFFCURVE",
"1873 268 CURVE",
"1846 256 OFFCURVE",
"1820 239 OFFCURVE",
"1805 222 CURVE",
"1805 180 OFFCURVE",
"1805 155 OFFCURVE",
"1808 95 CURVE",
"1789 85 OFFCURVE",
"1740 76 OFFCURVE",
"1707 76 CURVE SMOOTH",
"1645 76 OFFCURVE",
"1600 82 OFFCURVE",
"1572 94 CURVE",
"1625 137 OFFCURVE",
"1661 186 OFFCURVE",
"1661 249 CURVE SMOOTH",
"1661 273 OFFCURVE",
"1654 295 OFFCURVE",
"1641 313 CURVE SMOOTH",
"1616 350 OFFCURVE",
"1569 374 OFFCURVE",
"1512 374 CURVE SMOOTH",
"1483 374 OFFCURVE",
"1455 370 OFFCURVE",
"1427 361 CURVE SMOOTH",
"1372 344 OFFCURVE",
"1316 314 OFFCURVE",
"1316 267 CURVE SMOOTH",
"1316 250 OFFCURVE",
"1322 236 OFFCURVE",
"1334 223 CURVE",
"1350 233 LINE",
"1360 226 OFFCURVE",
"1371 215 OFFCURVE",
"1383 200 CURVE SMOOTH",
"1395 187 OFFCURVE",
"1414 161 OFFCURVE",
"1440 123 CURVE SMOOTH",
"1458 100 LINE",
"1413 84 OFFCURVE",
"1356 76 OFFCURVE",
"1287 76 CURVE SMOOTH",
"1249 76 OFFCURVE",
"1174 85 OFFCURVE",
"1143 102 CURVE",
"1141 169 LINE SMOOTH",
"1135 375 OFFCURVE",
"1129 550 OFFCURVE",
"1124 657 CURVE",
"1108 669 OFFCURVE",
"1076 679 OFFCURVE",
"1037 679 CURVE SMOOTH",
"971 679 OFFCURVE",
"919 645 OFFCURVE",
"904 617 CURVE SMOOTH",
"886 584 OFFCURVE",
"872 538 OFFCURVE",
"874 517 CURVE SMOOTH",
"877 475 OFFCURVE",
"887 376 OFFCURVE",
"897 251 CURVE SMOOTH",
"901 203 OFFCURVE",
"904 153 OFFCURVE",
"908 103 CURVE",
"874 85 OFFCURVE",
"838 76 OFFCURVE",
"798 76 CURVE SMOOTH",
"748 76 OFFCURVE",
"712 78 OFFCURVE",
"691 81 CURVE",
"719 114 OFFCURVE",
"734 152 OFFCURVE",
"734 195 CURVE SMOOTH",
"734 223 OFFCURVE",
"729 252 OFFCURVE",
"718 281 CURVE SMOOTH",
"698 338 OFFCURVE",
"664 374 OFFCURVE",
"629 374 CURVE SMOOTH",
"565 374 OFFCURVE",
"505 333 OFFCURVE",
"471 270 CURVE SMOOTH",
"463 256 OFFCURVE",
"453 200 OFFCURVE",
"453 166 CURVE SMOOTH",
"453 137 OFFCURVE",
"465 108 OFFCURVE",
"490 80 CURVE",
"469 77 OFFCURVE",
"441 76 OFFCURVE",
"404 76 CURVE SMOOTH",
"307 76 OFFCURVE",
"252 126 OFFCURVE",
"252 218 CURVE SMOOTH",
"252 254 OFFCURVE",
"258 291 OFFCURVE",
"272 329 CURVE",
"241 349 LINE",
"168 329 OFFCURVE",
"70 314 OFFCURVE",
"0 308 CURVE",
"0 280 OFFCURVE",
"13 242 OFFCURVE",
"98 242 CURVE SMOOTH",
"142 242 OFFCURVE",
"187 250 OFFCURVE",
"209 258 CURVE",
"205 235 OFFCURVE",
"203 209 OFFCURVE",
"203 180 CURVE SMOOTH",
"203 67 OFFCURVE",
"274 0 OFFCURVE",
"404 0 CURVE SMOOTH",
"489 0 OFFCURVE",
"547 9 OFFCURVE",
"593 32 CURVE",
"649 10 OFFCURVE",
"715 0 OFFCURVE",
"798 0 CURVE SMOOTH",
"865 0 OFFCURVE",
"905 12 OFFCURVE",
"917 35 CURVE SMOOTH",
"937 70 OFFCURVE",
"952 112 OFFCURVE",
"952 135 CURVE SMOOTH",
"951 202 OFFCURVE",
"945 312 OFFCURVE",
"931 553 CURVE",
"968 589 OFFCURVE",
"999 603 OFFCURVE",
"1037 603 CURVE SMOOTH",
"1047 603 OFFCURVE",
"1055 603 OFFCURVE",
"1063 602 CURVE",
"1076 423 LINE SMOOTH",
"1086 281 OFFCURVE",
"1095 170 OFFCURVE",
"1105 87 CURVE SMOOTH",
"1111 33 OFFCURVE",
"1208 0 OFFCURVE",
"1287 0 CURVE SMOOTH",
"1368 0 OFFCURVE",
"1432 17 OFFCURVE",
"1505 54 CURVE",
"1557 17 OFFCURVE",
"1616 0 OFFCURVE",
"1707 0 CURVE SMOOTH",
"1737 0 OFFCURVE",
"1784 7 OFFCURVE",
"1814 17 CURVE",
"1818 -74 OFFCURVE",
"1825 -152 OFFCURVE",
"1828 -181 CURVE SMOOTH",
"1833 -223 OFFCURVE",
"1907 -247 OFFCURVE",
"1974 -247 CURVE SMOOTH"
);
},
{
closed = 1;
nodes = (
"552 119 OFFCURVE",
"518 143 OFFCURVE",
"490 175 CURVE",
"522 237 OFFCURVE",
"582 289 OFFCURVE",
"620 289 CURVE SMOOTH",
"627 289 OFFCURVE",
"636 282 OFFCURVE",
"648 269 CURVE SMOOTH",
"670 242 OFFCURVE",
"691 197 OFFCURVE",
"695 164 CURVE",
"664 137 OFFCURVE",
"630 117 OFFCURVE",
"593 103 CURVE"
);
},
{
closed = 1;
nodes = (
"1508 141 OFFCURVE",
"1500 150 OFFCURVE",
"1493 159 CURVE SMOOTH",
"1453 209 OFFCURVE",
"1421 243 OFFCURVE",
"1397 262 CURVE",
"1435 282 OFFCURVE",
"1474 292 OFFCURVE",
"1515 292 CURVE SMOOTH",
"1559 292 OFFCURVE",
"1590 265 OFFCURVE",
"1590 228 CURVE SMOOTH",
"1590 197 OFFCURVE",
"1562 162 OFFCURVE",
"1517 132 CURVE"
);
}
);
width = 2153;
}
);
unicode = 1ED1F;
},
{
glyphname = u1ED20;
layers = (
{
layerId = master01;
paths = (
{
closed = 1;
nodes = (
"1401 0 OFFCURVE",
"1469 21 OFFCURVE",
"1553 64 CURVE SMOOTH",
"1642 110 OFFCURVE",
"1671 119 OFFCURVE",
"1717 119 CURVE SMOOTH",
"1748 119 OFFCURVE",
"1775 116 OFFCURVE",
"1797 114 CURVE",
"1836 187 LINE",
"1788 187 OFFCURVE",
"1751 190 OFFCURVE",
"1726 196 CURVE SMOOTH",
"1676 207 OFFCURVE",
"1633 230 OFFCURVE",
"1563 281 CURVE SMOOTH",
"1506 323 OFFCURVE",
"1466 340 OFFCURVE",
"1423 340 CURVE SMOOTH",
"1345 340 OFFCURVE",
"1282 251 OFFCURVE",
"1288 76 CURVE",
"1287 76 LINE SMOOTH",
"1249 76 OFFCURVE",
"1174 85 OFFCURVE",
"1143 102 CURVE",
"1141 169 LINE SMOOTH",
"1135 375 OFFCURVE",
"1129 550 OFFCURVE",
"1124 657 CURVE",
"1108 669 OFFCURVE",
"1076 679 OFFCURVE",
"1037 679 CURVE SMOOTH",
"971 679 OFFCURVE",
"919 645 OFFCURVE",
"904 617 CURVE SMOOTH",
"886 584 OFFCURVE",
"872 538 OFFCURVE",
"874 517 CURVE SMOOTH",
"877 475 OFFCURVE",
"887 376 OFFCURVE",
"897 251 CURVE SMOOTH",
"901 203 OFFCURVE",
"904 153 OFFCURVE",
"908 103 CURVE",
"874 85 OFFCURVE",
"838 76 OFFCURVE",
"798 76 CURVE SMOOTH",
"748 76 OFFCURVE",
"712 78 OFFCURVE",
"691 81 CURVE",
"719 114 OFFCURVE",
"734 152 OFFCURVE",
"734 195 CURVE SMOOTH",
"734 223 OFFCURVE",
"729 252 OFFCURVE",
"718 281 CURVE SMOOTH",
"698 338 OFFCURVE",
"664 374 OFFCURVE",
"629 374 CURVE SMOOTH",
"565 374 OFFCURVE",
"505 333 OFFCURVE",
"471 270 CURVE SMOOTH",
"463 256 OFFCURVE",
"453 200 OFFCURVE",
"453 166 CURVE SMOOTH",
"453 137 OFFCURVE",
"465 108 OFFCURVE",
"490 80 CURVE",
"469 77 OFFCURVE",
"441 76 OFFCURVE",
"404 76 CURVE SMOOTH",
"307 76 OFFCURVE",
"252 126 OFFCURVE",
"252 218 CURVE SMOOTH",
"252 254 OFFCURVE",
"258 291 OFFCURVE",
"272 329 CURVE",
"241 349 LINE",
"168 329 OFFCURVE",
"70 314 OFFCURVE",
"0 308 CURVE",
"0 280 OFFCURVE",
"13 242 OFFCURVE",
"98 242 CURVE SMOOTH",
"142 242 OFFCURVE",
"187 250 OFFCURVE",
"209 258 CURVE",
"205 235 OFFCURVE",
"203 209 OFFCURVE",
"203 180 CURVE SMOOTH",
"203 67 OFFCURVE",
"274 0 OFFCURVE",
"404 0 CURVE SMOOTH",
"489 0 OFFCURVE",
"547 9 OFFCURVE",
"593 32 CURVE",
"649 10 OFFCURVE",
"715 0 OFFCURVE",
"798 0 CURVE SMOOTH",
"865 0 OFFCURVE",
"905 12 OFFCURVE",
"917 35 CURVE SMOOTH",
"937 70 OFFCURVE",
"952 112 OFFCURVE",
"952 135 CURVE SMOOTH",
"951 202 OFFCURVE",
"945 312 OFFCURVE",
"931 553 CURVE",
"964 589 OFFCURVE",
"999 603 OFFCURVE",
"1037 603 CURVE SMOOTH",
"1047 603 OFFCURVE",
"1055 603 OFFCURVE",
"1063 602 CURVE",
"1076 423 LINE SMOOTH",
"1086 281 OFFCURVE",
"1095 170 OFFCURVE",
"1105 87 CURVE SMOOTH",
"1111 33 OFFCURVE",
"1208 0 OFFCURVE",
"1287 0 CURVE SMOOTH"
);
},
{
closed = 1;
nodes = (
"552 119 OFFCURVE",
"518 143 OFFCURVE",
"490 175 CURVE",
"522 237 OFFCURVE",
"582 289 OFFCURVE",
"620 289 CURVE SMOOTH",
"627 289 OFFCURVE",
"636 282 OFFCURVE",
"648 269 CURVE SMOOTH",
"670 242 OFFCURVE",
"691 197 OFFCURVE",
"695 164 CURVE",
"664 137 OFFCURVE",
"630 117 OFFCURVE",
"593 103 CURVE"
);
},
{
closed = 1;
nodes = (
"1333 220 OFFCURVE",
"1374 256 OFFCURVE",
"1427 256 CURVE SMOOTH",
"1462 256 OFFCURVE",
"1490 242 OFFCURVE",
"1544 200 CURVE SMOOTH",
"1569 180 OFFCURVE",
"1595 163 OFFCURVE",
"1621 150 CURVE",
"1589 144 OFFCURVE",
"1554 133 OFFCURVE",
"1465 103 CURVE SMOOTH",
"1431 92 OFFCURVE",
"1376 81 OFFCURVE",
"1323 77 CURVE"
);
}
);
width = 1869;
}
);
unicode = 1ED20;
},
{
glyphname = u1ED21;
layers = (
{
layerId = master01;
paths = (
{
closed = 1;
nodes = (
"1350 0 OFFCURVE",
"1389 4 OFFCURVE",
"1432 16 CURVE SMOOTH",
"1501 35 OFFCURVE",
"1549 69 OFFCURVE",
"1583 103 CURVE SMOOTH",
"1598 118 OFFCURVE",
"1612 140 OFFCURVE",
"1625 167 CURVE",
"1599 188 LINE",
"1583 168 OFFCURVE",
"1557 148 OFFCURVE",
"1525 132 CURVE SMOOTH",
"1441 90 OFFCURVE",
"1377 76 OFFCURVE",
"1287 76 CURVE SMOOTH",
"1249 76 OFFCURVE",
"1174 85 OFFCURVE",
"1143 102 CURVE",
"1141 169 LINE SMOOTH",
"1135 375 OFFCURVE",
"1129 550 OFFCURVE",
"1124 657 CURVE",
"1108 669 OFFCURVE",
"1076 679 OFFCURVE",
"1037 679 CURVE SMOOTH",
"971 679 OFFCURVE",
"919 645 OFFCURVE",
"904 617 CURVE SMOOTH",
"886 584 OFFCURVE",
"872 538 OFFCURVE",
"874 517 CURVE SMOOTH",
"877 475 OFFCURVE",
"887 376 OFFCURVE",
"897 251 CURVE SMOOTH",
"901 203 OFFCURVE",
"904 153 OFFCURVE",
"908 103 CURVE",
"874 85 OFFCURVE",
"838 76 OFFCURVE",
"798 76 CURVE SMOOTH",
"748 76 OFFCURVE",
"712 78 OFFCURVE",
"691 81 CURVE",
"719 114 OFFCURVE",
"734 152 OFFCURVE",
"734 195 CURVE SMOOTH",
"734 223 OFFCURVE",
"729 252 OFFCURVE",
"718 281 CURVE SMOOTH",
"698 338 OFFCURVE",
"664 374 OFFCURVE",
"629 374 CURVE SMOOTH",
"565 374 OFFCURVE",
"505 333 OFFCURVE",
"471 270 CURVE SMOOTH",
"463 256 OFFCURVE",
"453 200 OFFCURVE",
"453 166 CURVE SMOOTH",
"453 137 OFFCURVE",
"465 108 OFFCURVE",
"490 80 CURVE",
"469 77 OFFCURVE",
"441 76 OFFCURVE",
"404 76 CURVE SMOOTH",
"307 76 OFFCURVE",
"252 126 OFFCURVE",
"252 218 CURVE SMOOTH",
"252 254 OFFCURVE",
"258 291 OFFCURVE",
"272 329 CURVE",
"241 349 LINE",
"168 329 OFFCURVE",
"70 314 OFFCURVE",
"0 308 CURVE",
"0 280 OFFCURVE",
"13 242 OFFCURVE",
"98 242 CURVE SMOOTH",
"142 242 OFFCURVE",
"187 250 OFFCURVE",
"209 258 CURVE",
"205 235 OFFCURVE",
"203 209 OFFCURVE",
"203 180 CURVE SMOOTH",
"203 67 OFFCURVE",
"274 0 OFFCURVE",
"404 0 CURVE SMOOTH",
"489 0 OFFCURVE",
"547 9 OFFCURVE",
"593 32 CURVE",
"649 10 OFFCURVE",
"715 0 OFFCURVE",
"798 0 CURVE SMOOTH",
"865 0 OFFCURVE",
"905 12 OFFCURVE",
"917 35 CURVE SMOOTH",
"937 70 OFFCURVE",
"952 112 OFFCURVE",
"952 135 CURVE SMOOTH",
"951 202 OFFCURVE",
"945 312 OFFCURVE",
"931 553 CURVE",
"968 589 OFFCURVE",
"999 603 OFFCURVE",
"1037 603 CURVE SMOOTH",
"1047 603 OFFCURVE",
"1055 603 OFFCURVE",
"1063 602 CURVE",
"1076 423 LINE SMOOTH",
"1086 281 OFFCURVE",
"1095 170 OFFCURVE",
"1105 87 CURVE SMOOTH",
"1111 33 OFFCURVE",
"1208 0 OFFCURVE",
"1287 0 CURVE SMOOTH"
);
},
{
closed = 1;
nodes = (
"552 119 OFFCURVE",
"518 143 OFFCURVE",
"490 175 CURVE",
"522 237 OFFCURVE",
"582 289 OFFCURVE",
"620 289 CURVE SMOOTH",
"627 289 OFFCURVE",
"636 282 OFFCURVE",
"648 269 CURVE SMOOTH",
"670 242 OFFCURVE",
"691 197 OFFCURVE",
"695 164 CURVE",
"664 137 OFFCURVE",
"630 117 OFFCURVE",
"593 103 CURVE"
);
}
);
width = 1674;
}
);
unicode = 1ED21;
},
{
glyphname = u1ED22;
layers = (
{
layerId = master01;
paths = (
{
closed = 1;
nodes = (
"885 0 OFFCURVE",
"925 12 OFFCURVE",
"937 35 CURVE SMOOTH",
"957 70 OFFCURVE",
"972 112 OFFCURVE",
"972 135 CURVE SMOOTH",
"971 202 OFFCURVE",
"965 312 OFFCURVE",
"951 553 CURVE",
"988 589 OFFCURVE",
"1019 603 OFFCURVE",
"1057 603 CURVE SMOOTH",
"1067 603 OFFCURVE",
"1075 603 OFFCURVE",
"1083 602 CURVE",
"1096 423 LINE SMOOTH",
"1106 281 OFFCURVE",
"1115 170 OFFCURVE",
"1125 87 CURVE SMOOTH",
"1131 33 OFFCURVE",
"1215 0 OFFCURVE",
"1274 0 CURVE SMOOTH",
"1351 0 OFFCURVE",
"1439 30 OFFCURVE",
"1583 203 CURVE",
"1605 194 OFFCURVE",
"1629 189 OFFCURVE",
"1655 189 CURVE SMOOTH",
"1728 189 OFFCURVE",
"1786 215 OFFCURVE",
"1819 233 CURVE",
"1823 194 OFFCURVE",
"1829 95 OFFCURVE",
"1833 0 CURVE",
"1879 8 LINE",
"1884 127 OFFCURVE",
"1886 203 OFFCURVE",
"1885 237 CURVE SMOOTH",
"1881 357 OFFCURVE",
"1880 451 OFFCURVE",
"1877 523 CURVE",
"1840 511 OFFCURVE",
"1809 493 OFFCURVE",
"1809 447 CURVE SMOOTH",
"1809 435 OFFCURVE",
"1809 392 OFFCURVE",
"1812 309 CURVE",
"1764 276 OFFCURVE",
"1711 261 OFFCURVE",
"1665 261 CURVE SMOOTH",
"1654 261 OFFCURVE",
"1644 261 OFFCURVE",
"1633 262 CURVE",
"1667 304 OFFCURVE",
"1702 356 OFFCURVE",
"1702 407 CURVE SMOOTH",
"1702 431 OFFCURVE",
"1697 450 OFFCURVE",
"1684 468 CURVE SMOOTH",
"1659 505 OFFCURVE",
"1611 522 OFFCURVE",
"1554 522 CURVE SMOOTH",
"1525 522 OFFCURVE",
"1497 518 OFFCURVE",
"1469 509 CURVE SMOOTH",
"1414 492 OFFCURVE",
"1358 462 OFFCURVE",
"1358 415 CURVE SMOOTH",
"1358 398 OFFCURVE",
"1364 384 OFFCURVE",
"1376 371 CURVE",
"1392 381 LINE",
"1402 374 OFFCURVE",
"1414 363 OFFCURVE",
"1427 348 CURVE SMOOTH",
"1436 337 OFFCURVE",
"1464 303 OFFCURVE",
"1507 255 CURVE SMOOTH",
"1516 245 OFFCURVE",
"1526 236 OFFCURVE",
"1537 228 CURVE",
"1458 139 OFFCURVE",
"1372 76 OFFCURVE",
"1274 76 CURVE SMOOTH",
"1250 76 OFFCURVE",
"1194 85 OFFCURVE",
"1163 102 CURVE",
"1161 169 LINE SMOOTH",
"1155 375 OFFCURVE",
"1149 550 OFFCURVE",
"1144 657 CURVE",
"1128 669 OFFCURVE",
"1096 679 OFFCURVE",
"1057 679 CURVE SMOOTH",
"991 679 OFFCURVE",
"939 645 OFFCURVE",
"924 617 CURVE SMOOTH",
"906 584 OFFCURVE",
"892 538 OFFCURVE",
"894 517 CURVE SMOOTH",
"897 475 OFFCURVE",
"907 376 OFFCURVE",
"917 251 CURVE SMOOTH",
"921 203 OFFCURVE",
"924 153 OFFCURVE",
"928 103 CURVE",
"894 85 OFFCURVE",
"858 76 OFFCURVE",
"818 76 CURVE SMOOTH",
"768 76 OFFCURVE",
"732 78 OFFCURVE",
"711 81 CURVE",
"739 114 OFFCURVE",
"754 152 OFFCURVE",
"754 195 CURVE SMOOTH",
"754 223 OFFCURVE",
"749 252 OFFCURVE",
"738 281 CURVE SMOOTH",
"718 338 OFFCURVE",
"684 374 OFFCURVE",
"649 374 CURVE SMOOTH",
"585 374 OFFCURVE",
"525 333 OFFCURVE",
"491 270 CURVE SMOOTH",
"483 256 OFFCURVE",
"473 200 OFFCURVE",
"473 166 CURVE SMOOTH",
"473 137 OFFCURVE",
"485 108 OFFCURVE",
"510 80 CURVE",
"489 77 OFFCURVE",
"461 76 OFFCURVE",
"424 76 CURVE SMOOTH",
"327 76 OFFCURVE",
"272 126 OFFCURVE",
"272 218 CURVE SMOOTH",
"272 254 OFFCURVE",
"278 291 OFFCURVE",
"292 329 CURVE",
"261 349 LINE",
"188 329 OFFCURVE",
"90 314 OFFCURVE",
"20 308 CURVE",
"20 280 OFFCURVE",
"33 242 OFFCURVE",
"118 242 CURVE SMOOTH",
"162 242 OFFCURVE",
"207 250 OFFCURVE",
"229 258 CURVE",
"225 235 OFFCURVE",
"223 209 OFFCURVE",
"223 180 CURVE SMOOTH",
"223 67 OFFCURVE",
"294 0 OFFCURVE",
"424 0 CURVE SMOOTH",
"509 0 OFFCURVE",
"567 9 OFFCURVE",
"613 32 CURVE",
"669 10 OFFCURVE",
"735 0 OFFCURVE",
"818 0 CURVE SMOOTH"
);
},
{
closed = 1;
nodes = (
"572 119 OFFCURVE",
"538 143 OFFCURVE",
"510 175 CURVE",
"542 237 OFFCURVE",
"602 289 OFFCURVE",
"640 289 CURVE SMOOTH",
"647 289 OFFCURVE",
"656 282 OFFCURVE",
"668 269 CURVE SMOOTH",
"690 242 OFFCURVE",
"711 197 OFFCURVE",
"715 164 CURVE",
"684 137 OFFCURVE",
"650 117 OFFCURVE",
"613 103 CURVE"
);
},
{
closed = 1;
nodes = (
"1566 288 OFFCURVE",
"1558 296 OFFCURVE",
"1548 307 CURVE SMOOTH",
"1505 355 OFFCURVE",
"1476 391 OFFCURVE",
"1452 410 CURVE",
"1490 430 OFFCURVE",
"1529 440 OFFCURVE",
"1570 440 CURVE SMOOTH",
"1614 440 OFFCURVE",
"1645 417 OFFCURVE",
"1645 383 CURVE SMOOTH",
"1645 358 OFFCURVE",
"1608 310 OFFCURVE",
"1579 280 CURVE"
);
}
);
width = 1948;
}
);
unicode = 1ED22;
},
{
glyphname = u1ED23;
layers = (
{
layerId = master01;
paths = (
{
closed = 1;
nodes = (
"1588 -173 LINE",
"1588 -112 OFFCURVE",
"1600 -42 OFFCURVE",
"1621 10 CURVE",
"1642 22 OFFCURVE",
"1682 34 OFFCURVE",
"1728 40 CURVE SMOOTH",
"1753 43 OFFCURVE",
"1770 61 OFFCURVE",
"1770 90 CURVE SMOOTH",
"1770 102 OFFCURVE",
"1766 115 OFFCURVE",
"1757 126 CURVE",
"1745 127 OFFCURVE",
"1733 126 OFFCURVE",
"1717 123 CURVE SMOOTH",
"1697 119 OFFCURVE",
"1675 112 OFFCURVE",
"1652 98 CURVE SMOOTH",
"1599 65 OFFCURVE",
"1552 -15 OFFCURVE",
"1538 -98 CURVE SMOOTH",
"1535 -117 LINE",
"1494 -85 OFFCURVE",
"1452 -21 OFFCURVE",
"1452 55 CURVE SMOOTH",
"1452 78 OFFCURVE",
"1454 91 OFFCURVE",
"1461 117 CURVE",
"1451 125 OFFCURVE",
"1441 128 OFFCURVE",
"1429 128 CURVE SMOOTH",
"1415 128 OFFCURVE",
"1408 121 OFFCURVE",
"1392 103 CURVE SMOOTH",
"1374 82 OFFCURVE",
"1352 76 OFFCURVE",
"1309 76 CURVE SMOOTH",
"1249 76 OFFCURVE",
"1174 85 OFFCURVE",
"1143 102 CURVE",
"1141 169 LINE SMOOTH",
"1135 375 OFFCURVE",
"1129 550 OFFCURVE",
"1124 657 CURVE",
"1108 669 OFFCURVE",
"1076 679 OFFCURVE",
"1037 679 CURVE SMOOTH",
"971 679 OFFCURVE",
"919 645 OFFCURVE",
"904 617 CURVE SMOOTH",
"886 584 OFFCURVE",
"872 538 OFFCURVE",
"874 517 CURVE SMOOTH",
"877 475 OFFCURVE",
"887 376 OFFCURVE",
"897 251 CURVE SMOOTH",
"901 203 OFFCURVE",
"904 153 OFFCURVE",
"908 103 CURVE",
"874 85 OFFCURVE",
"838 76 OFFCURVE",
"798 76 CURVE SMOOTH",
"748 76 OFFCURVE",
"712 78 OFFCURVE",
"691 81 CURVE",
"719 114 OFFCURVE",
"734 152 OFFCURVE",
"734 195 CURVE SMOOTH",
"734 223 OFFCURVE",
"729 252 OFFCURVE",
"718 281 CURVE SMOOTH",
"698 338 OFFCURVE",
"664 374 OFFCURVE",
"629 374 CURVE SMOOTH",
"565 374 OFFCURVE",
"505 333 OFFCURVE",
"471 270 CURVE SMOOTH",
"463 256 OFFCURVE",
"453 200 OFFCURVE",
"453 166 CURVE SMOOTH",
"453 137 OFFCURVE",
"465 108 OFFCURVE",
"490 80 CURVE",
"469 77 OFFCURVE",
"441 76 OFFCURVE",
"404 76 CURVE SMOOTH",
"307 76 OFFCURVE",
"252 126 OFFCURVE",
"252 218 CURVE SMOOTH",
"252 254 OFFCURVE",
"258 291 OFFCURVE",
"272 329 CURVE",
"241 349 LINE",
"168 329 OFFCURVE",
"70 314 OFFCURVE",
"0 308 CURVE",
"0 280 OFFCURVE",
"13 242 OFFCURVE",
"98 242 CURVE SMOOTH",
"142 242 OFFCURVE",
"187 250 OFFCURVE",
"209 258 CURVE",
"205 235 OFFCURVE",
"203 209 OFFCURVE",
"203 180 CURVE SMOOTH",
"203 67 OFFCURVE",
"274 0 OFFCURVE",
"404 0 CURVE SMOOTH",
"489 0 OFFCURVE",
"547 9 OFFCURVE",
"593 32 CURVE",
"649 10 OFFCURVE",
"715 0 OFFCURVE",
"798 0 CURVE SMOOTH",
"865 0 OFFCURVE",
"905 12 OFFCURVE",
"917 35 CURVE SMOOTH",
"937 70 OFFCURVE",
"952 112 OFFCURVE",
"952 135 CURVE SMOOTH",
"951 202 OFFCURVE",
"945 312 OFFCURVE",
"931 553 CURVE",
"968 589 OFFCURVE",
"999 603 OFFCURVE",
"1037 603 CURVE SMOOTH",
"1047 603 OFFCURVE",
"1055 603 OFFCURVE",
"1063 602 CURVE",
"1076 423 LINE SMOOTH",
"1086 281 OFFCURVE",
"1095 170 OFFCURVE",
"1105 87 CURVE SMOOTH",
"1111 33 OFFCURVE",
"1208 0 OFFCURVE",
"1298 0 CURVE SMOOTH",
"1336 0 OFFCURVE",
"1361 6 OFFCURVE",
"1392 21 CURVE",
"1392 -83 OFFCURVE",
"1473 -190 OFFCURVE",
"1537 -219 CURVE"
);
},
{
closed = 1;
nodes = (
"552 119 OFFCURVE",
"518 143 OFFCURVE",
"490 175 CURVE",
"522 237 OFFCURVE",
"582 289 OFFCURVE",
"620 289 CURVE SMOOTH",
"627 289 OFFCURVE",
"636 282 OFFCURVE",
"648 269 CURVE SMOOTH",
"670 242 OFFCURVE",
"691 197 OFFCURVE",
"695 164 CURVE",
"664 137 OFFCURVE",
"630 117 OFFCURVE",
"593 103 CURVE"
);
}
);
width = 1780;
}
);
unicode = 1ED23;
},
{
glyphname = u1ED24;
layers = (
{
layerId = master01;
paths = (
{
closed = 1;
nodes = (
"1368 0 OFFCURVE",
"1432 17 OFFCURVE",
"1505 54 CURVE",
"1557 17 OFFCURVE",
"1616 0 OFFCURVE",
"1707 0 CURVE SMOOTH",
"1774 0 OFFCURVE",
"1814 12 OFFCURVE",
"1826 35 CURVE SMOOTH",
"1846 70 OFFCURVE",
"1861 112 OFFCURVE",
"1861 135 CURVE SMOOTH",
"1860 206 OFFCURVE",
"1857 291 OFFCURVE",
"1851 388 CURVE SMOOTH",
"1843 505 OFFCURVE",
"1838 599 OFFCURVE",
"1834 671 CURVE",
"1809 653 OFFCURVE",
"1787 635 OFFCURVE",
"1768 615 CURVE",
"1782 497 OFFCURVE",
"1794 376 OFFCURVE",
"1806 251 CURVE SMOOTH",
"1818 103 LINE",
"1784 85 OFFCURVE",
"1747 76 OFFCURVE",
"1707 76 CURVE SMOOTH",
"1645 76 OFFCURVE",
"1600 82 OFFCURVE",
"1572 94 CURVE",
"1625 137 OFFCURVE",
"1661 186 OFFCURVE",
"1661 249 CURVE SMOOTH",
"1661 273 OFFCURVE",
"1654 295 OFFCURVE",
"1641 313 CURVE SMOOTH",
"1616 350 OFFCURVE",
"1569 374 OFFCURVE",
"1512 374 CURVE SMOOTH",
"1483 374 OFFCURVE",
"1455 370 OFFCURVE",
"1427 361 CURVE SMOOTH",
"1372 344 OFFCURVE",
"1316 314 OFFCURVE",
"1316 267 CURVE SMOOTH",
"1316 250 OFFCURVE",
"1322 236 OFFCURVE",
"1334 223 CURVE",
"1350 233 LINE",
"1360 226 OFFCURVE",
"1371 215 OFFCURVE",
"1383 200 CURVE SMOOTH",
"1395 187 OFFCURVE",
"1414 161 OFFCURVE",
"1440 123 CURVE SMOOTH",
"1458 100 LINE",
"1413 84 OFFCURVE",
"1356 76 OFFCURVE",
"1287 76 CURVE SMOOTH",
"1249 76 OFFCURVE",
"1174 85 OFFCURVE",
"1143 102 CURVE",
"1141 169 LINE SMOOTH",
"1135 375 OFFCURVE",
"1129 550 OFFCURVE",
"1124 657 CURVE",
"1108 669 OFFCURVE",
"1076 679 OFFCURVE",
"1037 679 CURVE SMOOTH",
"971 679 OFFCURVE",
"919 645 OFFCURVE",
"904 617 CURVE SMOOTH",
"886 584 OFFCURVE",
"872 538 OFFCURVE",
"874 517 CURVE SMOOTH",
"877 475 OFFCURVE",
"887 376 OFFCURVE",
"897 251 CURVE SMOOTH",
"901 203 OFFCURVE",
"904 153 OFFCURVE",
"908 103 CURVE",
"874 85 OFFCURVE",
"838 76 OFFCURVE",
"798 76 CURVE SMOOTH",
"748 76 OFFCURVE",
"712 78 OFFCURVE",
"691 81 CURVE",
"719 114 OFFCURVE",
"734 152 OFFCURVE",
"734 195 CURVE SMOOTH",
"734 223 OFFCURVE",
"729 252 OFFCURVE",
"718 281 CURVE SMOOTH",
"698 338 OFFCURVE",
"664 374 OFFCURVE",
"629 374 CURVE SMOOTH",
"565 374 OFFCURVE",
"505 333 OFFCURVE",
"471 270 CURVE SMOOTH",
"463 256 OFFCURVE",
"453 200 OFFCURVE",
"453 166 CURVE SMOOTH",
"453 137 OFFCURVE",
"465 108 OFFCURVE",
"490 80 CURVE",
"469 77 OFFCURVE",
"441 76 OFFCURVE",
"404 76 CURVE SMOOTH",
"307 76 OFFCURVE",
"252 126 OFFCURVE",
"252 218 CURVE SMOOTH",
"252 254 OFFCURVE",
"258 291 OFFCURVE",
"272 329 CURVE",
"241 349 LINE",
"168 329 OFFCURVE",
"70 314 OFFCURVE",
"0 308 CURVE",
"0 280 OFFCURVE",
"13 242 OFFCURVE",
"98 242 CURVE SMOOTH",
"142 242 OFFCURVE",
"187 250 OFFCURVE",
"209 258 CURVE",
"205 235 OFFCURVE",
"203 209 OFFCURVE",
"203 180 CURVE SMOOTH",
"203 67 OFFCURVE",
"274 0 OFFCURVE",
"404 0 CURVE SMOOTH",
"489 0 OFFCURVE",
"547 9 OFFCURVE",
"593 32 CURVE",
"649 10 OFFCURVE",
"715 0 OFFCURVE",
"798 0 CURVE SMOOTH",
"865 0 OFFCURVE",
"905 12 OFFCURVE",
"917 35 CURVE SMOOTH",
"937 70 OFFCURVE",
"952 112 OFFCURVE",
"952 135 CURVE SMOOTH",
"951 202 OFFCURVE",
"945 312 OFFCURVE",
"931 553 CURVE",
"968 589 OFFCURVE",
"999 603 OFFCURVE",
"1037 603 CURVE SMOOTH",
"1047 603 OFFCURVE",
"1055 603 OFFCURVE",
"1063 602 CURVE",
"1076 423 LINE SMOOTH",
"1086 281 OFFCURVE",
"1095 170 OFFCURVE",
"1105 87 CURVE SMOOTH",
"1111 33 OFFCURVE",
"1208 0 OFFCURVE",
"1287 0 CURVE SMOOTH"
);
},
{
closed = 1;
nodes = (
"552 119 OFFCURVE",
"518 143 OFFCURVE",
"490 175 CURVE",
"522 237 OFFCURVE",
"582 289 OFFCURVE",
"620 289 CURVE SMOOTH",
"627 289 OFFCURVE",
"636 282 OFFCURVE",
"648 269 CURVE SMOOTH",
"670 242 OFFCURVE",
"691 197 OFFCURVE",
"695 164 CURVE",
"664 137 OFFCURVE",
"630 117 OFFCURVE",
"593 103 CURVE"
);
},
{
closed = 1;
nodes = (
"1508 141 OFFCURVE",
"1500 150 OFFCURVE",
"1493 159 CURVE SMOOTH",
"1453 209 OFFCURVE",
"1421 243 OFFCURVE",
"1397 262 CURVE",
"1435 282 OFFCURVE",
"1474 292 OFFCURVE",
"1515 292 CURVE SMOOTH",
"1559 292 OFFCURVE",
"1590 265 OFFCURVE",
"1590 228 CURVE SMOOTH",
"1590 197 OFFCURVE",
"1562 162 OFFCURVE",
"1517 132 CURVE"
);
}
);
width = 1920;
}
);
unicode = 1ED24;
},
{
glyphname = u1ED25;
layers = (
{
layerId = master01;
paths = (
{
closed = 1;
nodes = (
"722 0 OFFCURVE",
"863 16 OFFCURVE",
"1001 51 CURVE SMOOTH",
"1034 59 OFFCURVE",
"1066 67 OFFCURVE",
"1072 70 CURVE SMOOTH",
"1087 79 OFFCURVE",
"1094 92 OFFCURVE",
"1094 116 CURVE SMOOTH",
"1094 131 OFFCURVE",
"1090 144 OFFCURVE",
"1081 152 CURVE",
"997 119 OFFCURVE",
"962 108 OFFCURVE",
"911 98 CURVE",
"875 100 OFFCURVE",
"844 108 OFFCURVE",
"818 122 CURVE SMOOTH",
"765 151 OFFCURVE",
"737 200 OFFCURVE",
"737 257 CURVE",
"781 282 OFFCURVE",
"824 294 OFFCURVE",
"865 294 CURVE SMOOTH",
"894 294 OFFCURVE",
"909 291 OFFCURVE",
"962 271 CURVE",
"980 303 LINE",
"924 352 OFFCURVE",
"886 374 OFFCURVE",
"840 374 CURVE SMOOTH",
"813 374 OFFCURVE",
"787 364 OFFCURVE",
"763 345 CURVE SMOOTH",
"714 307 OFFCURVE",
"680 237 OFFCURVE",
"680 180 CURVE SMOOTH",
"680 139 OFFCURVE",
"708 100 OFFCURVE",
"740 79 CURVE",
"699 77 OFFCURVE",
"658 76 OFFCURVE",
"605 76 CURVE SMOOTH",
"561 76 OFFCURVE",
"435 77 OFFCURVE",
"367 81 CURVE SMOOTH",
"155 95 OFFCURVE",
"99 134 OFFCURVE",
"99 185 CURVE SMOOTH",
"99 217 OFFCURVE",
"126 258 OFFCURVE",
"188 278 CURVE SMOOTH",
"223 289 OFFCURVE",
"255 294 OFFCURVE",
"289 297 CURVE SMOOTH",
"319 300 OFFCURVE",
"341 301 OFFCURVE",
"370 302 CURVE SMOOTH",
"435 302 OFFCURVE",
"479 317 OFFCURVE",
"490 337 CURVE SMOOTH",
"509 372 OFFCURVE",
"525 414 OFFCURVE",
"524 437 CURVE SMOOTH",
"521 511 OFFCURVE",
"517 589 OFFCURVE",
"512 667 CURVE",
"487 649 OFFCURVE",
"468 634 OFFCURVE",
"451 615 CURVE",
"460 547 OFFCURVE",
"468 486 OFFCURVE",
"477 400 CURVE",
"455 388 OFFCURVE",
"415 378 OFFCURVE",
"370 378 CURVE SMOOTH",
"332 378 OFFCURVE",
"291 386 OFFCURVE",
"260 399 CURVE",
"259 458 LINE SMOOTH",
"258 524 OFFCURVE",
"258 592 OFFCURVE",
"258 668 CURVE",
"232 652 OFFCURVE",
"212 639 OFFCURVE",
"193 621 CURVE",
"202 532 OFFCURVE",
"207 484 OFFCURVE",
"218 389 CURVE SMOOTH",
"219 376 OFFCURVE",
"225 365 OFFCURVE",
"234 354 CURVE",
"223 352 OFFCURVE",
"211 349 OFFCURVE",
"195 344 CURVE SMOOTH",
"101 314 OFFCURVE",
"61 229 OFFCURVE",
"61 160 CURVE SMOOTH",
"61 80 OFFCURVE",
"123 28 OFFCURVE",
"343 9 CURVE SMOOTH",
"407 3 OFFCURVE",
"532 0 OFFCURVE",
"605 0 CURVE SMOOTH"
);
}
);
width = 1120;
}
);
unicode = 1ED25;
},
{
glyphname = u1ED26;
layers = (
{
layerId = master01;
paths = (
{
closed = 1;
nodes = (
"526 0 OFFCURVE",
"736 18 OFFCURVE",
"790 45 CURVE SMOOTH",
"814 57 OFFCURVE",
"825 71 OFFCURVE",
"825 89 CURVE SMOOTH",
"825 100 OFFCURVE",
"821 111 OFFCURVE",
"811 122 CURVE",
"717 94 OFFCURVE",
"531 76 OFFCURVE",
"409 76 CURVE SMOOTH",
"192 76 OFFCURVE",
"99 119 OFFCURVE",
"99 185 CURVE SMOOTH",
"99 217 OFFCURVE",
"126 258 OFFCURVE",
"188 278 CURVE SMOOTH",
"223 289 OFFCURVE",
"255 294 OFFCURVE",
"289 297 CURVE SMOOTH",
"319 300 OFFCURVE",
"341 301 OFFCURVE",
"370 302 CURVE SMOOTH",
"435 302 OFFCURVE",
"479 317 OFFCURVE",
"490 337 CURVE SMOOTH",
"509 372 OFFCURVE",
"525 414 OFFCURVE",
"524 437 CURVE SMOOTH",
"521 511 OFFCURVE",
"517 589 OFFCURVE",
"512 667 CURVE",
"487 649 OFFCURVE",
"468 634 OFFCURVE",
"451 615 CURVE",
"460 547 OFFCURVE",
"468 486 OFFCURVE",
"477 400 CURVE",
"455 388 OFFCURVE",
"415 378 OFFCURVE",
"370 378 CURVE SMOOTH",
"332 378 OFFCURVE",
"291 386 OFFCURVE",
"260 399 CURVE",
"259 458 LINE SMOOTH",
"258 524 OFFCURVE",
"258 592 OFFCURVE",
"258 668 CURVE",
"232 652 OFFCURVE",
"212 639 OFFCURVE",
"193 621 CURVE",
"202 532 OFFCURVE",
"207 484 OFFCURVE",
"218 389 CURVE SMOOTH",
"219 376 OFFCURVE",
"225 365 OFFCURVE",
"234 354 CURVE",
"223 352 OFFCURVE",
"211 349 OFFCURVE",
"195 344 CURVE SMOOTH",
"101 314 OFFCURVE",
"61 229 OFFCURVE",
"61 160 CURVE SMOOTH",
"61 59 OFFCURVE",
"161 0 OFFCURVE",
"416 0 CURVE SMOOTH"
);
},
{
closed = 1;
nodes = (
"886 -37 OFFCURVE",
"955 -20 OFFCURVE",
"1008 -10 CURVE SMOOTH",
"1069 2 OFFCURVE",
"1160 21 OFFCURVE",
"1243 41 CURVE SMOOTH",
"1276 49 OFFCURVE",
"1308 57 OFFCURVE",
"1314 60 CURVE SMOOTH",
"1329 69 OFFCURVE",
"1336 82 OFFCURVE",
"1336 106 CURVE SMOOTH",
"1336 121 OFFCURVE",
"1332 134 OFFCURVE",
"1323 142 CURVE",
"1248 113 OFFCURVE",
"1204 99 OFFCURVE",
"1150 88 CURVE",
"1117 90 OFFCURVE",
"1086 98 OFFCURVE",
"1060 112 CURVE SMOOTH",
"1007 141 OFFCURVE",
"979 190 OFFCURVE",
"979 247 CURVE",
"1023 272 OFFCURVE",
"1066 284 OFFCURVE",
"1107 284 CURVE SMOOTH",
"1136 284 OFFCURVE",
"1151 281 OFFCURVE",
"1204 261 CURVE",
"1222 293 LINE",
"1166 342 OFFCURVE",
"1128 364 OFFCURVE",
"1082 364 CURVE SMOOTH",
"1055 364 OFFCURVE",
"1029 354 OFFCURVE",
"1005 335 CURVE SMOOTH",
"956 297 OFFCURVE",
"922 227 OFFCURVE",
"922 170 CURVE SMOOTH",
"922 131 OFFCURVE",
"950 87 OFFCURVE",
"999 56 CURVE",
"928 33 OFFCURVE",
"846 4 OFFCURVE",
"790 -19 CURVE",
"798 -60 LINE"
);
}
);
width = 1362;
}
);
unicode = 1ED26;
},
{
glyphname = u1ED27;
layers = (
{
layerId = master01;
paths = (
{
closed = 1;
nodes = (
"560 0 OFFCURVE",
"600 12 OFFCURVE",
"619 31 CURVE",
"645 15 OFFCURVE",
"702 0 OFFCURVE",
"741 0 CURVE SMOOTH",
"786 1 OFFCURVE",
"851 7 OFFCURVE",
"863 27 CURVE SMOOTH",
"866 32 OFFCURVE",
"869 38 OFFCURVE",
"871 43 CURVE",
"943 10 OFFCURVE",
"997 0 OFFCURVE",
"1083 0 CURVE",
"1102 36 OFFCURVE",
"1122 100 OFFCURVE",
"1122 123 CURVE SMOOTH",
"1122 180 OFFCURVE",
"1091 283 OFFCURVE",
"1083 340 CURVE",
"1042 316 OFFCURVE",
"1017 285 OFFCURVE",
"1017 256 CURVE SMOOTH",
"1017 235 OFFCURVE",
"1064 119 OFFCURVE",
"1075 79 CURVE",
"1007 79 OFFCURVE",
"968 88 OFFCURVE",
"898 118 CURVE",
"918 181 OFFCURVE",
"932 224 OFFCURVE",
"942 245 CURVE",
"935 250 OFFCURVE",
"927 252 OFFCURVE",
"918 252 CURVE SMOOTH",
"897 252 OFFCURVE",
"890 246 OFFCURVE",
"878 220 CURVE SMOOTH",
"864 191 OFFCURVE",
"843 106 OFFCURVE",
"830 86 CURVE",
"809 80 OFFCURVE",
"783 76 OFFCURVE",
"752 76 CURVE SMOOTH",
"709 76 OFFCURVE",
"673 84 OFFCURVE",
"663 89 CURVE",
"670 99 OFFCURVE",
"684 129 OFFCURVE",
"704 180 CURVE",
"697 185 OFFCURVE",
"689 187 OFFCURVE",
"680 187 CURVE SMOOTH",
"665 187 OFFCURVE",
"655 182 OFFCURVE",
"649 171 CURVE SMOOTH",
"623 129 OFFCURVE",
"619 117 OFFCURVE",
"596 99 CURVE SMOOTH",
"574 82 OFFCURVE",
"552 76 OFFCURVE",
"475 76 CURVE SMOOTH",
"344 76 OFFCURVE",
"99 88 OFFCURVE",
"99 185 CURVE SMOOTH",
"99 217 OFFCURVE",
"126 258 OFFCURVE",
"188 278 CURVE SMOOTH",
"223 289 OFFCURVE",
"255 294 OFFCURVE",
"289 297 CURVE SMOOTH",
"319 300 OFFCURVE",
"341 301 OFFCURVE",
"370 302 CURVE SMOOTH",
"435 302 OFFCURVE",
"479 317 OFFCURVE",
"490 337 CURVE SMOOTH",
"509 372 OFFCURVE",
"525 414 OFFCURVE",
"524 437 CURVE SMOOTH",
"521 511 OFFCURVE",
"517 589 OFFCURVE",
"512 667 CURVE",
"487 649 OFFCURVE",
"468 634 OFFCURVE",
"451 615 CURVE",
"460 547 OFFCURVE",
"468 486 OFFCURVE",
"477 400 CURVE",
"455 388 OFFCURVE",
"415 378 OFFCURVE",
"370 378 CURVE SMOOTH",
"332 378 OFFCURVE",
"291 386 OFFCURVE",
"260 399 CURVE",
"259 458 LINE SMOOTH",
"258 524 OFFCURVE",
"258 592 OFFCURVE",
"258 668 CURVE",
"232 652 OFFCURVE",
"212 639 OFFCURVE",
"193 621 CURVE",
"202 532 OFFCURVE",
"207 484 OFFCURVE",
"218 389 CURVE SMOOTH",
"219 376 OFFCURVE",
"225 365 OFFCURVE",
"234 354 CURVE",
"223 352 OFFCURVE",
"211 349 OFFCURVE",
"195 344 CURVE SMOOTH",
"101 314 OFFCURVE",
"61 229 OFFCURVE",
"61 160 CURVE SMOOTH",
"61 15 OFFCURVE",
"337 0 OFFCURVE",
"475 0 CURVE SMOOTH"
);
}
);
width = 1173;
}
);
unicode = 1ED27;
},
{
glyphname = u1ED28;
layers = (
{
layerId = master01;
paths = (
{
closed = 1;
nodes = (
"1307 0 OFFCURVE",
"1342 10 OFFCURVE",
"1350 22 CURVE SMOOTH",
"1371 56 OFFCURVE",
"1387 99 OFFCURVE",
"1387 122 CURVE SMOOTH",
"1387 211 OFFCURVE",
"1382 438 OFFCURVE",
"1379 522 CURVE",
"1355 509 OFFCURVE",
"1330 488 OFFCURVE",
"1312 472 CURVE",
"1318 398 OFFCURVE",
"1332 227 OFFCURVE",
"1343 84 CURVE",
"1324 72 OFFCURVE",
"1284 63 OFFCURVE",
"1252 63 CURVE SMOOTH",
"1221 63 OFFCURVE",
"1169 70 OFFCURVE",
"1160 76 CURVE",
"1162 192 LINE SMOOTH",
"1165 355 OFFCURVE",
"1167 450 OFFCURVE",
"1167 522 CURVE",
"1141 508 OFFCURVE",
"1115 487 OFFCURVE",
"1099 472 CURVE",
"1099 430 OFFCURVE",
"1100 403 OFFCURVE",
"1103 310 CURVE",
"1055 277 OFFCURVE",
"1001 261 OFFCURVE",
"955 261 CURVE SMOOTH",
"944 261 OFFCURVE",
"934 261 OFFCURVE",
"923 262 CURVE",
"957 304 OFFCURVE",
"992 356 OFFCURVE",
"992 407 CURVE SMOOTH",
"992 431 OFFCURVE",
"987 450 OFFCURVE",
"974 468 CURVE SMOOTH",
"949 505 OFFCURVE",
"901 522 OFFCURVE",
"844 522 CURVE SMOOTH",
"815 522 OFFCURVE",
"787 518 OFFCURVE",
"759 509 CURVE SMOOTH",
"704 492 OFFCURVE",
"648 462 OFFCURVE",
"648 415 CURVE SMOOTH",
"648 398 OFFCURVE",
"654 384 OFFCURVE",
"666 371 CURVE",
"682 381 LINE",
"692 374 OFFCURVE",
"704 363 OFFCURVE",
"717 348 CURVE SMOOTH",
"726 337 OFFCURVE",
"754 303 OFFCURVE",
"797 255 CURVE SMOOTH",
"805 246 OFFCURVE",
"815 237 OFFCURVE",
"825 229 CURVE",
"716 131 OFFCURVE",
"600 76 OFFCURVE",
"434 76 CURVE SMOOTH",
"314 76 OFFCURVE",
"99 88 OFFCURVE",
"99 185 CURVE SMOOTH",
"99 217 OFFCURVE",
"126 258 OFFCURVE",
"188 278 CURVE SMOOTH",
"223 289 OFFCURVE",
"255 294 OFFCURVE",
"289 297 CURVE SMOOTH",
"319 300 OFFCURVE",
"341 301 OFFCURVE",
"370 302 CURVE SMOOTH",
"435 302 OFFCURVE",
"479 317 OFFCURVE",
"490 337 CURVE SMOOTH",
"509 372 OFFCURVE",
"525 414 OFFCURVE",
"524 437 CURVE SMOOTH",
"521 511 OFFCURVE",
"517 589 OFFCURVE",
"512 667 CURVE",
"487 649 OFFCURVE",
"468 634 OFFCURVE",
"451 615 CURVE",
"460 547 OFFCURVE",
"468 486 OFFCURVE",
"477 400 CURVE",
"455 388 OFFCURVE",
"415 378 OFFCURVE",
"370 378 CURVE SMOOTH",
"332 378 OFFCURVE",
"291 386 OFFCURVE",
"260 399 CURVE",
"259 458 LINE SMOOTH",
"258 524 OFFCURVE",
"258 592 OFFCURVE",
"258 668 CURVE",
"232 652 OFFCURVE",
"212 639 OFFCURVE",
"193 621 CURVE",
"202 532 OFFCURVE",
"207 484 OFFCURVE",
"218 389 CURVE SMOOTH",
"219 376 OFFCURVE",
"225 365 OFFCURVE",
"234 354 CURVE",
"223 352 OFFCURVE",
"211 349 OFFCURVE",
"195 344 CURVE SMOOTH",
"101 314 OFFCURVE",
"61 229 OFFCURVE",
"61 160 CURVE SMOOTH",
"61 15 OFFCURVE",
"307 0 OFFCURVE",
"424 0 CURVE SMOOTH",
"607 0 OFFCURVE",
"730 56 OFFCURVE",
"872 203 CURVE",
"894 194 OFFCURVE",
"919 189 OFFCURVE",
"945 189 CURVE SMOOTH",
"1018 189 OFFCURVE",
"1076 215 OFFCURVE",
"1109 233 CURVE",
"1112 181 OFFCURVE",
"1119 100 OFFCURVE",
"1122 66 CURVE SMOOTH",
"1126 24 OFFCURVE",
"1201 0 OFFCURVE",
"1268 0 CURVE SMOOTH"
);
},
{
closed = 1;
nodes = (
"856 288 OFFCURVE",
"848 296 OFFCURVE",
"838 307 CURVE SMOOTH",
"795 355 OFFCURVE",
"766 391 OFFCURVE",
"742 410 CURVE",
"780 430 OFFCURVE",
"819 440 OFFCURVE",
"860 440 CURVE SMOOTH",
"904 440 OFFCURVE",
"935 417 OFFCURVE",
"935 383 CURVE SMOOTH",
"935 358 OFFCURVE",
"898 310 OFFCURVE",
"869 280 CURVE"
);
}
);
width = 1450;
}
);
unicode = 1ED28;
},
{
glyphname = u1ED29;
layers = (
{
layerId = master01;
paths = (
{
closed = 1;
nodes = (
"678 0 OFFCURVE",
"761 22 OFFCURVE",
"843 64 CURVE SMOOTH",
"932 110 OFFCURVE",
"961 119 OFFCURVE",
"1007 119 CURVE SMOOTH",
"1038 119 OFFCURVE",
"1065 116 OFFCURVE",
"1097 114 CURVE",
"1136 187 LINE",
"1088 187 OFFCURVE",
"1041 190 OFFCURVE",
"1016 196 CURVE SMOOTH",
"966 207 OFFCURVE",
"923 230 OFFCURVE",
"853 281 CURVE SMOOTH",
"796 323 OFFCURVE",
"756 340 OFFCURVE",
"713 340 CURVE SMOOTH",
"635 340 OFFCURVE",
"572 251 OFFCURVE",
"578 77 CURVE",
"557 76 OFFCURVE",
"534 76 OFFCURVE",
"509 76 CURVE SMOOTH",
"192 76 OFFCURVE",
"99 119 OFFCURVE",
"99 185 CURVE SMOOTH",
"99 217 OFFCURVE",
"126 258 OFFCURVE",
"188 278 CURVE SMOOTH",
"223 289 OFFCURVE",
"255 294 OFFCURVE",
"289 297 CURVE SMOOTH",
"319 300 OFFCURVE",
"341 301 OFFCURVE",
"370 302 CURVE SMOOTH",
"435 302 OFFCURVE",
"479 317 OFFCURVE",
"490 337 CURVE SMOOTH",
"509 372 OFFCURVE",
"525 414 OFFCURVE",
"524 437 CURVE SMOOTH",
"521 511 OFFCURVE",
"517 589 OFFCURVE",
"512 667 CURVE",
"487 649 OFFCURVE",
"468 634 OFFCURVE",
"451 615 CURVE",
"460 547 OFFCURVE",
"468 486 OFFCURVE",
"477 400 CURVE",
"455 388 OFFCURVE",
"415 378 OFFCURVE",
"370 378 CURVE SMOOTH",
"332 378 OFFCURVE",
"291 386 OFFCURVE",
"260 399 CURVE",
"259 458 LINE SMOOTH",
"258 524 OFFCURVE",
"258 592 OFFCURVE",
"258 668 CURVE",
"232 652 OFFCURVE",
"212 639 OFFCURVE",
"193 621 CURVE",
"202 532 OFFCURVE",
"207 484 OFFCURVE",
"218 389 CURVE SMOOTH",
"219 376 OFFCURVE",
"225 365 OFFCURVE",
"234 354 CURVE",
"223 352 OFFCURVE",
"211 349 OFFCURVE",
"195 344 CURVE SMOOTH",
"101 314 OFFCURVE",
"61 229 OFFCURVE",
"61 160 CURVE SMOOTH",
"61 59 OFFCURVE",
"161 0 OFFCURVE",
"524 0 CURVE SMOOTH"
);
},
{
closed = 1;
nodes = (
"624 220 OFFCURVE",
"664 256 OFFCURVE",
"717 256 CURVE SMOOTH",
"752 256 OFFCURVE",
"780 242 OFFCURVE",
"834 200 CURVE SMOOTH",
"859 180 OFFCURVE",
"885 163 OFFCURVE",
"911 150 CURVE",
"879 144 OFFCURVE",
"844 133 OFFCURVE",
"755 103 CURVE SMOOTH",
"725 93 OFFCURVE",
"685 84 OFFCURVE",
"613 79 CURVE"
);
}
);
width = 1169;
}
);
unicode = 1ED29;
},
{
glyphname = u1ED2A;
layers = (
{
layerId = master01;
paths = (
{
closed = 1;
nodes = (
"526 0 OFFCURVE",
"736 18 OFFCURVE",
"790 45 CURVE SMOOTH",
"814 57 OFFCURVE",
"825 71 OFFCURVE",
"825 89 CURVE SMOOTH",
"825 100 OFFCURVE",
"821 111 OFFCURVE",
"811 122 CURVE",
"717 94 OFFCURVE",
"531 76 OFFCURVE",
"409 76 CURVE SMOOTH",
"192 76 OFFCURVE",
"99 119 OFFCURVE",
"99 185 CURVE SMOOTH",
"99 217 OFFCURVE",
"126 258 OFFCURVE",
"188 278 CURVE SMOOTH",
"223 289 OFFCURVE",
"255 294 OFFCURVE",
"289 297 CURVE SMOOTH",
"319 300 OFFCURVE",
"341 301 OFFCURVE",
"370 302 CURVE SMOOTH",
"435 302 OFFCURVE",
"479 317 OFFCURVE",
"490 337 CURVE SMOOTH",
"509 372 OFFCURVE",
"525 414 OFFCURVE",
"524 437 CURVE SMOOTH",
"521 511 OFFCURVE",
"517 589 OFFCURVE",
"512 667 CURVE",
"487 649 OFFCURVE",
"468 634 OFFCURVE",
"451 615 CURVE",
"460 547 OFFCURVE",
"468 486 OFFCURVE",
"477 400 CURVE",
"455 388 OFFCURVE",
"415 378 OFFCURVE",
"370 378 CURVE SMOOTH",
"332 378 OFFCURVE",
"291 386 OFFCURVE",
"260 399 CURVE",
"259 458 LINE SMOOTH",
"258 524 OFFCURVE",
"258 592 OFFCURVE",
"258 668 CURVE",
"232 652 OFFCURVE",
"212 639 OFFCURVE",
"193 621 CURVE",
"202 532 OFFCURVE",
"207 484 OFFCURVE",
"218 389 CURVE SMOOTH",
"219 376 OFFCURVE",
"225 365 OFFCURVE",
"234 354 CURVE",
"223 352 OFFCURVE",
"211 349 OFFCURVE",
"195 344 CURVE SMOOTH",
"101 314 OFFCURVE",
"61 229 OFFCURVE",
"61 160 CURVE SMOOTH",
"61 59 OFFCURVE",
"161 0 OFFCURVE",
"416 0 CURVE SMOOTH"
);
}
);
width = 843;
}
);
unicode = 1ED2A;
},
{
glyphname = u1ED2B;
layers = (
{
layerId = master01;
paths = (
{
closed = 1;
nodes = (
"432 0 CURVE SMOOTH",
"608 0 OFFCURVE",
"733 59 OFFCURVE",
"872 203 CURVE",
"894 194 OFFCURVE",
"919 189 OFFCURVE",
"945 189 CURVE SMOOTH",
"1018 189 OFFCURVE",
"1076 215 OFFCURVE",
"1109 233 CURVE",
"1113 194 OFFCURVE",
"1119 95 OFFCURVE",
"1123 0 CURVE",
"1169 8 LINE",
"1174 127 OFFCURVE",
"1176 203 OFFCURVE",
"1175 237 CURVE SMOOTH",
"1171 357 OFFCURVE",
"1170 451 OFFCURVE",
"1167 523 CURVE",
"1130 511 OFFCURVE",
"1099 493 OFFCURVE",
"1099 447 CURVE SMOOTH",
"1099 435 OFFCURVE",
"1099 392 OFFCURVE",
"1102 309 CURVE",
"1054 276 OFFCURVE",
"1001 261 OFFCURVE",
"955 261 CURVE SMOOTH",
"944 261 OFFCURVE",
"934 261 OFFCURVE",
"923 262 CURVE",
"957 304 OFFCURVE",
"992 356 OFFCURVE",
"992 407 CURVE SMOOTH",
"992 431 OFFCURVE",
"987 450 OFFCURVE",
"974 468 CURVE SMOOTH",
"949 505 OFFCURVE",
"901 522 OFFCURVE",
"844 522 CURVE SMOOTH",
"815 522 OFFCURVE",
"787 518 OFFCURVE",
"759 509 CURVE SMOOTH",
"704 492 OFFCURVE",
"648 462 OFFCURVE",
"648 415 CURVE SMOOTH",
"648 398 OFFCURVE",
"654 384 OFFCURVE",
"666 371 CURVE",
"682 381 LINE",
"692 374 OFFCURVE",
"704 363 OFFCURVE",
"717 348 CURVE SMOOTH",
"726 337 OFFCURVE",
"754 303 OFFCURVE",
"797 255 CURVE SMOOTH",
"805 246 OFFCURVE",
"815 237 OFFCURVE",
"825 229 CURVE",
"715 131 OFFCURVE",
"596 76 OFFCURVE",
"430 76 CURVE SMOOTH",
"324 76 OFFCURVE",
"99 88 OFFCURVE",
"99 185 CURVE SMOOTH",
"99 217 OFFCURVE",
"126 258 OFFCURVE",
"188 278 CURVE SMOOTH",
"223 289 OFFCURVE",
"255 294 OFFCURVE",
"289 297 CURVE SMOOTH",
"319 300 OFFCURVE",
"341 301 OFFCURVE",
"370 302 CURVE SMOOTH",
"435 302 OFFCURVE",
"479 317 OFFCURVE",
"490 337 CURVE SMOOTH",
"509 372 OFFCURVE",
"525 414 OFFCURVE",
"524 437 CURVE SMOOTH",
"521 511 OFFCURVE",
"517 589 OFFCURVE",
"512 667 CURVE",
"487 649 OFFCURVE",
"468 634 OFFCURVE",
"451 615 CURVE",
"460 547 OFFCURVE",
"468 486 OFFCURVE",
"477 400 CURVE",
"455 388 OFFCURVE",
"415 378 OFFCURVE",
"370 378 CURVE SMOOTH",
"332 378 OFFCURVE",
"291 386 OFFCURVE",
"260 399 CURVE",
"259 458 LINE SMOOTH",
"258 524 OFFCURVE",
"258 592 OFFCURVE",
"258 668 CURVE",
"232 652 OFFCURVE",
"212 639 OFFCURVE",
"193 621 CURVE",
"202 532 OFFCURVE",
"207 484 OFFCURVE",
"218 389 CURVE SMOOTH",
"219 376 OFFCURVE",
"225 365 OFFCURVE",
"234 354 CURVE",
"223 352 OFFCURVE",
"211 349 OFFCURVE",
"195 344 CURVE SMOOTH",
"101 314 OFFCURVE",
"61 229 OFFCURVE",
"61 160 CURVE SMOOTH",
"61 31 OFFCURVE",
"263 0 OFFCURVE"
);
},
{
closed = 1;
nodes = (
"856 288 OFFCURVE",
"848 296 OFFCURVE",
"838 307 CURVE SMOOTH",
"795 355 OFFCURVE",
"766 391 OFFCURVE",
"742 410 CURVE",
"780 430 OFFCURVE",
"819 440 OFFCURVE",
"860 440 CURVE SMOOTH",
"904 440 OFFCURVE",
"935 417 OFFCURVE",
"935 383 CURVE SMOOTH",
"935 358 OFFCURVE",
"898 310 OFFCURVE",
"869 280 CURVE"
);
}
);
width = 1235;
}
);
unicode = 1ED2B;
},
{
glyphname = u1ED2C;
layers = (
{
layerId = master01;
paths = (
{
closed = 1;
nodes = (
"658 0 OFFCURVE",
"741 18 OFFCURVE",
"802 55 CURVE",
"825 97 OFFCURVE",
"838 137 OFFCURVE",
"838 157 CURVE SMOOTH",
"838 181 OFFCURVE",
"833 215 OFFCURVE",
"823 259 CURVE SMOOTH",
"811 317 OFFCURVE",
"803 355 OFFCURVE",
"800 374 CURVE",
"760 352 OFFCURVE",
"735 319 OFFCURVE",
"735 290 CURVE SMOOTH",
"735 279 OFFCURVE",
"741 257 OFFCURVE",
"753 223 CURVE SMOOTH",
"769 180 OFFCURVE",
"781 144 OFFCURVE",
"790 113 CURVE",
"742 91 OFFCURVE",
"654 76 OFFCURVE",
"485 76 CURVE SMOOTH",
"334 76 OFFCURVE",
"99 88 OFFCURVE",
"99 185 CURVE SMOOTH",
"99 217 OFFCURVE",
"126 258 OFFCURVE",
"188 278 CURVE SMOOTH",
"223 289 OFFCURVE",
"255 294 OFFCURVE",
"289 297 CURVE SMOOTH",
"319 300 OFFCURVE",
"341 301 OFFCURVE",
"370 302 CURVE SMOOTH",
"435 302 OFFCURVE",
"479 317 OFFCURVE",
"490 337 CURVE SMOOTH",
"509 372 OFFCURVE",
"525 414 OFFCURVE",
"524 437 CURVE SMOOTH",
"521 511 OFFCURVE",
"517 589 OFFCURVE",
"512 667 CURVE",
"487 649 OFFCURVE",
"468 634 OFFCURVE",
"451 615 CURVE",
"460 547 OFFCURVE",
"468 486 OFFCURVE",
"477 400 CURVE",
"455 388 OFFCURVE",
"415 378 OFFCURVE",
"370 378 CURVE SMOOTH",
"332 378 OFFCURVE",
"291 386 OFFCURVE",
"260 399 CURVE",
"259 458 LINE SMOOTH",
"258 524 OFFCURVE",
"258 592 OFFCURVE",
"258 668 CURVE",
"232 652 OFFCURVE",
"212 639 OFFCURVE",
"193 621 CURVE",
"202 532 OFFCURVE",
"207 484 OFFCURVE",
"218 389 CURVE SMOOTH",
"219 376 OFFCURVE",
"225 365 OFFCURVE",
"234 354 CURVE",
"223 352 OFFCURVE",
"211 349 OFFCURVE",
"195 344 CURVE SMOOTH",
"101 314 OFFCURVE",
"61 229 OFFCURVE",
"61 160 CURVE SMOOTH",
"61 15 OFFCURVE",
"327 0 OFFCURVE",
"485 0 CURVE SMOOTH"
);
}
);
width = 889;
}
);
unicode = 1ED2C;
},
{
glyphname = u1ED2D;
layers = (
{
layerId = master01;
paths = (
{
closed = 1;
nodes = (
"584 0 OFFCURVE",
"730 58 OFFCURVE",
"874 198 CURVE",
"911 179 OFFCURVE",
"954 171 OFFCURVE",
"1008 171 CURVE SMOOTH",
"1086 171 OFFCURVE",
"1167 189 OFFCURVE",
"1228 226 CURVE",
"1251 268 OFFCURVE",
"1264 308 OFFCURVE",
"1264 328 CURVE SMOOTH",
"1264 352 OFFCURVE",
"1259 386 OFFCURVE",
"1249 430 CURVE SMOOTH",
"1237 488 OFFCURVE",
"1229 526 OFFCURVE",
"1226 545 CURVE",
"1186 523 OFFCURVE",
"1161 490 OFFCURVE",
"1161 461 CURVE SMOOTH",
"1161 450 OFFCURVE",
"1167 428 OFFCURVE",
"1179 394 CURVE SMOOTH",
"1195 351 OFFCURVE",
"1207 315 OFFCURVE",
"1216 284 CURVE",
"1168 262 OFFCURVE",
"1090 247 OFFCURVE",
"1018 247 CURVE SMOOTH",
"981 247 OFFCURVE",
"940 250 OFFCURVE",
"918 258 CURVE",
"960 305 OFFCURVE",
"995 357 OFFCURVE",
"995 408 CURVE SMOOTH",
"995 432 OFFCURVE",
"990 451 OFFCURVE",
"977 469 CURVE SMOOTH",
"952 506 OFFCURVE",
"904 523 OFFCURVE",
"847 523 CURVE SMOOTH",
"818 523 OFFCURVE",
"790 519 OFFCURVE",
"762 510 CURVE SMOOTH",
"707 493 OFFCURVE",
"651 463 OFFCURVE",
"651 416 CURVE SMOOTH",
"651 399 OFFCURVE",
"657 385 OFFCURVE",
"669 372 CURVE",
"685 382 LINE",
"695 375 OFFCURVE",
"707 364 OFFCURVE",
"720 349 CURVE SMOOTH",
"729 338 OFFCURVE",
"757 304 OFFCURVE",
"800 256 CURVE SMOOTH",
"810 245 OFFCURVE",
"820 235 OFFCURVE",
"830 227 CURVE",
"719 135 OFFCURVE",
"579 76 OFFCURVE",
"430 76 CURVE SMOOTH",
"324 76 OFFCURVE",
"99 88 OFFCURVE",
"99 185 CURVE SMOOTH",
"99 217 OFFCURVE",
"126 258 OFFCURVE",
"188 278 CURVE SMOOTH",
"223 289 OFFCURVE",
"255 294 OFFCURVE",
"289 297 CURVE SMOOTH",
"319 300 OFFCURVE",
"341 301 OFFCURVE",
"370 302 CURVE SMOOTH",
"435 302 OFFCURVE",
"479 317 OFFCURVE",
"490 337 CURVE SMOOTH",
"509 372 OFFCURVE",
"525 414 OFFCURVE",
"524 437 CURVE SMOOTH",
"521 511 OFFCURVE",
"517 589 OFFCURVE",
"512 667 CURVE",
"487 649 OFFCURVE",
"468 634 OFFCURVE",
"451 615 CURVE",
"460 547 OFFCURVE",
"468 486 OFFCURVE",
"477 400 CURVE",
"455 388 OFFCURVE",
"415 378 OFFCURVE",
"370 378 CURVE SMOOTH",
"332 378 OFFCURVE",
"291 386 OFFCURVE",
"260 399 CURVE",
"259 458 LINE SMOOTH",
"258 524 OFFCURVE",
"258 592 OFFCURVE",
"258 668 CURVE",
"232 652 OFFCURVE",
"212 639 OFFCURVE",
"193 621 CURVE",
"202 532 OFFCURVE",
"207 484 OFFCURVE",
"218 389 CURVE SMOOTH",
"219 376 OFFCURVE",
"225 365 OFFCURVE",
"234 354 CURVE",
"223 352 OFFCURVE",
"211 349 OFFCURVE",
"195 344 CURVE SMOOTH",
"101 314 OFFCURVE",
"61 229 OFFCURVE",
"61 160 CURVE SMOOTH",
"61 15 OFFCURVE",
"307 0 OFFCURVE",
"420 0 CURVE SMOOTH"
);
},
{
closed = 1;
nodes = (
"859 289 OFFCURVE",
"851 297 OFFCURVE",
"841 308 CURVE SMOOTH",
"798 356 OFFCURVE",
"769 392 OFFCURVE",
"745 411 CURVE",
"783 431 OFFCURVE",
"822 441 OFFCURVE",
"863 441 CURVE SMOOTH",
"907 441 OFFCURVE",
"938 418 OFFCURVE",
"938 384 CURVE SMOOTH",
"938 359 OFFCURVE",
"901 311 OFFCURVE",
"872 281 CURVE"
);
}
);
width = 1324;
}
);
unicode = 1ED2D;
},
{
glyphname = u1ED2E;
layers = (
{
layerId = master01;
paths = (
{
closed = 1;
nodes = (
"221 -204 OFFCURVE",
"309 -115 OFFCURVE",
"331 24 CURVE",
"354 8 OFFCURVE",
"382 0 OFFCURVE",
"413 0 CURVE SMOOTH",
"464 0 OFFCURVE",
"499 17 OFFCURVE",
"530 60 CURVE",
"591 24 OFFCURVE",
"691 0 OFFCURVE",
"771 0 CURVE",
"809 31 OFFCURVE",
"822 63 OFFCURVE",
"822 104 CURVE SMOOTH",
"822 139 OFFCURVE",
"816 175 OFFCURVE",
"804 212 CURVE SMOOTH",
"780 287 OFFCURVE",
"738 340 OFFCURVE",
"699 340 CURVE SMOOTH",
"660 340 OFFCURVE",
"626 322 OFFCURVE",
"593 278 CURVE SMOOTH",
"565 241 OFFCURVE",
"558 215 OFFCURVE",
"522 150 CURVE SMOOTH",
"496 101 OFFCURVE",
"464 76 OFFCURVE",
"413 76 CURVE SMOOTH",
"383 76 OFFCURVE",
"357 83 OFFCURVE",
"335 96 CURVE",
"333 113 OFFCURVE",
"329 134 OFFCURVE",
"321 159 CURVE SMOOTH",
"314 184 OFFCURVE",
"300 225 OFFCURVE",
"279 280 CURVE SMOOTH",
"270 302 OFFCURVE",
"264 323 OFFCURVE",
"259 341 CURVE",
"222 323 OFFCURVE",
"201 305 OFFCURVE",
"201 271 CURVE SMOOTH",
"201 238 OFFCURVE",
"221 193 OFFCURVE",
"267 112 CURVE SMOOTH",
"279 91 OFFCURVE",
"289 70 OFFCURVE",
"298 49 CURVE",
"260 -65 OFFCURVE",
"188 -126 OFFCURVE",
"88 -126 CURVE SMOOTH",
"61 -126 OFFCURVE",
"30 -122 OFFCURVE",
"-7 -115 CURVE",
"-20 -148 LINE",
"12 -173 OFFCURVE",
"79 -204 OFFCURVE",
"111 -204 CURVE SMOOTH"
);
},
{
closed = 1;
nodes = (
"676 84 OFFCURVE",
"616 101 OFFCURVE",
"569 126 CURVE",
"588 164 OFFCURVE",
"603 190 OFFCURVE",
"614 206 CURVE SMOOTH",
"636 237 OFFCURVE",
"658 251 OFFCURVE",
"683 251 CURVE SMOOTH",
"690 251 OFFCURVE",
"699 245 OFFCURVE",
"706 234 CURVE SMOOTH",
"727 203 OFFCURVE",
"747 137 OFFCURVE",
"749 76 CURVE"
);
}
);
width = 869;
}
);
unicode = 1ED2E;
},
{
glyphname = u1ED2F;
layers = (
{
layerId = master01;
paths = (
{
closed = 1;
nodes = (
"238 0 OFFCURVE",
"347 19 OFFCURVE",
"473 51 CURVE SMOOTH",
"506 59 OFFCURVE",
"538 67 OFFCURVE",
"544 70 CURVE SMOOTH",
"559 79 OFFCURVE",
"566 92 OFFCURVE",
"566 116 CURVE SMOOTH",
"566 131 OFFCURVE",
"562 144 OFFCURVE",
"553 152 CURVE",
"469 119 OFFCURVE",
"434 108 OFFCURVE",
"383 98 CURVE",
"347 100 OFFCURVE",
"316 108 OFFCURVE",
"290 122 CURVE SMOOTH",
"237 151 OFFCURVE",
"209 200 OFFCURVE",
"209 257 CURVE",
"253 282 OFFCURVE",
"296 294 OFFCURVE",
"337 294 CURVE SMOOTH",
"366 294 OFFCURVE",
"381 291 OFFCURVE",
"434 271 CURVE",
"452 303 LINE",
"396 352 OFFCURVE",
"358 374 OFFCURVE",
"312 374 CURVE SMOOTH",
"285 374 OFFCURVE",
"259 364 OFFCURVE",
"235 345 CURVE SMOOTH",
"186 307 OFFCURVE",
"152 237 OFFCURVE",
"152 180 CURVE SMOOTH",
"152 139 OFFCURVE",
"180 100 OFFCURVE",
"212 79 CURVE",
"185 77 OFFCURVE",
"159 76 OFFCURVE",
"120 76 CURVE SMOOTH",
"74 76 OFFCURVE",
"37 79 OFFCURVE",
"9 84 CURVE",
"0 50 LINE",
"60 17 OFFCURVE",
"105 0 OFFCURVE",
"141 0 CURVE SMOOTH"
);
}
);
width = 592;
}
);
unicode = 1ED2F;
},
{
glyphname = u1ED30;
layers = (
{
layerId = master01;
paths = (
{
closed = 1;
nodes = (
"622 0 OFFCURVE",
"662 12 OFFCURVE",
"674 35 CURVE SMOOTH",
"694 70 OFFCURVE",
"709 112 OFFCURVE",
"709 135 CURVE SMOOTH",
"708 206 OFFCURVE",
"705 291 OFFCURVE",
"699 388 CURVE SMOOTH",
"691 505 OFFCURVE",
"686 599 OFFCURVE",
"682 671 CURVE",
"657 653 OFFCURVE",
"635 635 OFFCURVE",
"616 615 CURVE",
"630 497 OFFCURVE",
"642 376 OFFCURVE",
"654 251 CURVE SMOOTH",
"666 103 LINE",
"632 85 OFFCURVE",
"595 76 OFFCURVE",
"555 76 CURVE SMOOTH",
"516 76 OFFCURVE",
"481 85 OFFCURVE",
"451 103 CURVE",
"450 148 OFFCURVE",
"448 194 OFFCURVE",
"448 240 CURVE SMOOTH",
"445 436 OFFCURVE",
"441 579 OFFCURVE",
"437 671 CURVE",
"412 654 OFFCURVE",
"390 636 OFFCURVE",
"370 615 CURVE",
"373 571 OFFCURVE",
"376 526 OFFCURVE",
"380 482 CURVE SMOOTH",
"392 299 OFFCURVE",
"403 172 OFFCURVE",
"411 102 CURVE",
"376 85 OFFCURVE",
"340 76 OFFCURVE",
"302 76 CURVE SMOOTH",
"264 76 OFFCURVE",
"189 85 OFFCURVE",
"158 102 CURVE",
"156 169 LINE SMOOTH",
"150 375 OFFCURVE",
"150 515 OFFCURVE",
"144 671 CURVE",
"117 653 OFFCURVE",
"95 634 OFFCURVE",
"76 615 CURVE",
"98 312 OFFCURVE",
"109 182 OFFCURVE",
"120 87 CURVE SMOOTH",
"126 33 OFFCURVE",
"223 0 OFFCURVE",
"302 0 CURVE SMOOTH",
"359 0 OFFCURVE",
"391 8 OFFCURVE",
"440 36 CURVE",
"468 12 OFFCURVE",
"506 0 OFFCURVE",
"555 0 CURVE SMOOTH"
);
}
);
width = 768;
}
);
unicode = 1ED30;
},
{
glyphname = u1ED31;
layers = (
{
layerId = master01;
paths = (
{
closed = 1;
nodes = (
"1091 0 OFFCURVE",
"1131 12 OFFCURVE",
"1143 35 CURVE SMOOTH",
"1163 70 OFFCURVE",
"1178 112 OFFCURVE",
"1178 135 CURVE SMOOTH",
"1177 206 OFFCURVE",
"1174 291 OFFCURVE",
"1168 388 CURVE SMOOTH",
"1160 505 OFFCURVE",
"1155 599 OFFCURVE",
"1151 671 CURVE",
"1126 653 OFFCURVE",
"1104 635 OFFCURVE",
"1085 615 CURVE",
"1099 497 OFFCURVE",
"1111 376 OFFCURVE",
"1123 251 CURVE SMOOTH",
"1135 103 LINE",
"1101 85 OFFCURVE",
"1064 76 OFFCURVE",
"1024 76 CURVE",
"977 76 OFFCURVE",
"944 86 OFFCURVE",
"897 114 CURVE",
"915 149 OFFCURVE",
"931 185 OFFCURVE",
"946 220 CURVE",
"938 225 OFFCURVE",
"930 228 OFFCURVE",
"921 228 CURVE SMOOTH",
"907 228 OFFCURVE",
"896 222 OFFCURVE",
"890 211 CURVE SMOOTH",
"854 143 OFFCURVE",
"838 115 OFFCURVE",
"826 104 CURVE SMOOTH",
"806 86 OFFCURVE",
"771 76 OFFCURVE",
"722 76 CURVE SMOOTH",
"660 76 OFFCURVE",
"615 82 OFFCURVE",
"587 94 CURVE",
"640 137 OFFCURVE",
"676 186 OFFCURVE",
"676 249 CURVE SMOOTH",
"676 273 OFFCURVE",
"669 295 OFFCURVE",
"656 313 CURVE SMOOTH",
"631 350 OFFCURVE",
"584 374 OFFCURVE",
"527 374 CURVE SMOOTH",
"498 374 OFFCURVE",
"470 370 OFFCURVE",
"442 361 CURVE SMOOTH",
"387 344 OFFCURVE",
"331 314 OFFCURVE",
"331 267 CURVE SMOOTH",
"331 250 OFFCURVE",
"337 236 OFFCURVE",
"349 223 CURVE",
"365 233 LINE",
"375 226 OFFCURVE",
"386 215 OFFCURVE",
"398 200 CURVE SMOOTH",
"410 187 OFFCURVE",
"429 161 OFFCURVE",
"455 123 CURVE SMOOTH",
"473 100 LINE",
"428 84 OFFCURVE",
"371 76 OFFCURVE",
"302 76 CURVE SMOOTH",
"264 76 OFFCURVE",
"189 85 OFFCURVE",
"158 102 CURVE",
"156 169 LINE SMOOTH",
"150 375 OFFCURVE",
"150 515 OFFCURVE",
"144 671 CURVE",
"117 653 OFFCURVE",
"95 634 OFFCURVE",
"76 615 CURVE",
"98 312 OFFCURVE",
"109 182 OFFCURVE",
"120 87 CURVE SMOOTH",
"126 33 OFFCURVE",
"223 0 OFFCURVE",
"302 0 CURVE SMOOTH",
"383 0 OFFCURVE",
"447 17 OFFCURVE",
"520 54 CURVE",
"572 17 OFFCURVE",
"631 0 OFFCURVE",
"722 0 CURVE SMOOTH",
"777 0 OFFCURVE",
"835 20 OFFCURVE",
"848 37 CURVE SMOOTH",
"854 44 OFFCURVE",
"860 51 OFFCURVE",
"865 59 CURVE",
"908 20 OFFCURVE",
"961 0 OFFCURVE",
"1024 0 CURVE SMOOTH"
);
},
{
closed = 1;
nodes = (
"523 141 OFFCURVE",
"515 150 OFFCURVE",
"508 159 CURVE SMOOTH",
"468 209 OFFCURVE",
"436 243 OFFCURVE",
"412 262 CURVE",
"450 282 OFFCURVE",
"489 292 OFFCURVE",
"530 292 CURVE SMOOTH",
"574 292 OFFCURVE",
"605 265 OFFCURVE",
"605 228 CURVE SMOOTH",
"605 197 OFFCURVE",
"577 162 OFFCURVE",
"532 132 CURVE"
);
}
);
width = 1237;
}
);
unicode = 1ED31;
},
{
glyphname = u1ED32;
layers = (
{
layerId = master01;
paths = (
{
closed = 1;
nodes = (
"439 0 OFFCURVE",
"507 21 OFFCURVE",
"591 64 CURVE SMOOTH",
"680 110 OFFCURVE",
"709 119 OFFCURVE",
"755 119 CURVE SMOOTH",
"786 119 OFFCURVE",
"813 116 OFFCURVE",
"835 114 CURVE",
"874 187 LINE",
"826 187 OFFCURVE",
"789 190 OFFCURVE",
"764 196 CURVE SMOOTH",
"714 207 OFFCURVE",
"671 230 OFFCURVE",
"601 281 CURVE SMOOTH",
"544 323 OFFCURVE",
"504 340 OFFCURVE",
"461 340 CURVE SMOOTH",
"383 340 OFFCURVE",
"320 251 OFFCURVE",
"326 76 CURVE",
"325 76 LINE SMOOTH",
"254 76 OFFCURVE",
"189 85 OFFCURVE",
"158 102 CURVE",
"156 169 LINE SMOOTH",
"150 375 OFFCURVE",
"150 515 OFFCURVE",
"144 671 CURVE",
"117 653 OFFCURVE",
"95 634 OFFCURVE",
"76 615 CURVE",
"98 312 OFFCURVE",
"109 182 OFFCURVE",
"120 87 CURVE SMOOTH",
"126 33 OFFCURVE",
"213 0 OFFCURVE",
"325 0 CURVE SMOOTH"
);
},
{
closed = 1;
nodes = (
"371 220 OFFCURVE",
"412 256 OFFCURVE",
"465 256 CURVE SMOOTH",
"500 256 OFFCURVE",
"528 242 OFFCURVE",
"582 200 CURVE SMOOTH",
"607 180 OFFCURVE",
"633 163 OFFCURVE",
"659 150 CURVE",
"627 144 OFFCURVE",
"592 133 OFFCURVE",
"503 103 CURVE SMOOTH",
"469 92 OFFCURVE",
"414 81 OFFCURVE",
"361 77 CURVE"
);
}
);
width = 907;
}
);
unicode = 1ED32;
},
{
glyphname = u1ED33;
layers = (
{
layerId = master01;
paths = (
{
closed = 1;
nodes = (
"365 0 OFFCURVE",
"404 4 OFFCURVE",
"447 16 CURVE SMOOTH",
"516 35 OFFCURVE",
"564 69 OFFCURVE",
"598 103 CURVE SMOOTH",
"613 118 OFFCURVE",
"627 140 OFFCURVE",
"640 167 CURVE",
"614 188 LINE",
"598 168 OFFCURVE",
"572 148 OFFCURVE",
"540 132 CURVE SMOOTH",
"456 90 OFFCURVE",
"392 76 OFFCURVE",
"302 76 CURVE SMOOTH",
"264 76 OFFCURVE",
"189 85 OFFCURVE",
"158 102 CURVE",
"156 169 LINE SMOOTH",
"150 375 OFFCURVE",
"150 515 OFFCURVE",
"144 671 CURVE",
"117 653 OFFCURVE",
"95 634 OFFCURVE",
"76 615 CURVE",
"98 312 OFFCURVE",
"109 182 OFFCURVE",
"120 87 CURVE SMOOTH",
"126 33 OFFCURVE",
"223 0 OFFCURVE",
"302 0 CURVE SMOOTH"
);
}
);
width = 679;
}
);
unicode = 1ED33;
},
{
glyphname = u1ED34;
layers = (
{
layerId = master01;
paths = (
{
closed = 1;
nodes = (
"383 0 OFFCURVE",
"447 17 OFFCURVE",
"520 54 CURVE",
"572 17 OFFCURVE",
"631 0 OFFCURVE",
"712 0 CURVE SMOOTH",
"744 0 OFFCURVE",
"797 8 OFFCURVE",
"810 18 CURVE",
"814 -34 OFFCURVE",
"820 -150 OFFCURVE",
"824 -245 CURVE",
"870 -237 LINE",
"875 -118 OFFCURVE",
"877 -42 OFFCURVE",
"876 -8 CURVE SMOOTH",
"872 112 OFFCURVE",
"871 206 OFFCURVE",
"868 278 CURVE",
"831 266 OFFCURVE",
"800 248 OFFCURVE",
"800 202 CURVE SMOOTH",
"800 190 OFFCURVE",
"800 165 OFFCURVE",
"803 95 CURVE",
"792 84 OFFCURVE",
"745 76 OFFCURVE",
"712 76 CURVE SMOOTH",
"660 76 OFFCURVE",
"615 82 OFFCURVE",
"587 94 CURVE",
"640 137 OFFCURVE",
"676 186 OFFCURVE",
"676 249 CURVE SMOOTH",
"676 273 OFFCURVE",
"669 295 OFFCURVE",
"656 313 CURVE SMOOTH",
"631 350 OFFCURVE",
"584 374 OFFCURVE",
"527 374 CURVE SMOOTH",
"498 374 OFFCURVE",
"470 370 OFFCURVE",
"442 361 CURVE SMOOTH",
"387 344 OFFCURVE",
"331 314 OFFCURVE",
"331 267 CURVE SMOOTH",
"331 250 OFFCURVE",
"337 236 OFFCURVE",
"349 223 CURVE",
"365 233 LINE",
"375 226 OFFCURVE",
"386 215 OFFCURVE",
"398 200 CURVE SMOOTH",
"410 187 OFFCURVE",
"429 161 OFFCURVE",
"455 123 CURVE SMOOTH",
"473 100 LINE",
"428 84 OFFCURVE",
"371 76 OFFCURVE",
"302 76 CURVE SMOOTH",
"264 76 OFFCURVE",
"189 85 OFFCURVE",
"158 102 CURVE",
"156 169 LINE SMOOTH",
"150 375 OFFCURVE",
"150 515 OFFCURVE",
"144 671 CURVE",
"117 653 OFFCURVE",
"95 634 OFFCURVE",
"76 615 CURVE",
"98 312 OFFCURVE",
"109 182 OFFCURVE",
"120 87 CURVE SMOOTH",
"126 33 OFFCURVE",
"223 0 OFFCURVE",
"302 0 CURVE SMOOTH"
);
},
{
closed = 1;
nodes = (
"523 141 OFFCURVE",
"515 150 OFFCURVE",
"508 159 CURVE SMOOTH",
"468 209 OFFCURVE",
"436 243 OFFCURVE",
"412 262 CURVE",
"450 282 OFFCURVE",
"489 292 OFFCURVE",
"530 292 CURVE SMOOTH",
"574 292 OFFCURVE",
"605 265 OFFCURVE",
"605 228 CURVE SMOOTH",
"605 197 OFFCURVE",
"577 162 OFFCURVE",
"532 132 CURVE"
);
}
);
width = 906;
}
);
unicode = 1ED34;
},
{
glyphname = u1ED35;
layers = (
{
layerId = master01;
paths = (
{
closed = 1;
nodes = (
"603 -173 LINE",
"603 -112 OFFCURVE",
"615 -42 OFFCURVE",
"636 10 CURVE",
"657 22 OFFCURVE",
"697 34 OFFCURVE",
"743 40 CURVE SMOOTH",
"768 43 OFFCURVE",
"785 61 OFFCURVE",
"785 90 CURVE SMOOTH",
"785 102 OFFCURVE",
"781 115 OFFCURVE",
"772 126 CURVE",
"760 127 OFFCURVE",
"748 126 OFFCURVE",
"732 123 CURVE SMOOTH",
"712 119 OFFCURVE",
"690 112 OFFCURVE",
"667 98 CURVE SMOOTH",
"614 65 OFFCURVE",
"567 -15 OFFCURVE",
"553 -98 CURVE SMOOTH",
"550 -117 LINE",
"509 -85 OFFCURVE",
"467 -21 OFFCURVE",
"467 55 CURVE SMOOTH",
"467 78 OFFCURVE",
"469 91 OFFCURVE",
"476 117 CURVE",
"466 125 OFFCURVE",
"456 128 OFFCURVE",
"444 128 CURVE SMOOTH",
"430 128 OFFCURVE",
"423 121 OFFCURVE",
"407 103 CURVE SMOOTH",
"389 82 OFFCURVE",
"367 76 OFFCURVE",
"324 76 CURVE SMOOTH",
"264 76 OFFCURVE",
"189 85 OFFCURVE",
"158 102 CURVE",
"156 169 LINE SMOOTH",
"150 375 OFFCURVE",
"150 515 OFFCURVE",
"144 671 CURVE",
"117 653 OFFCURVE",
"95 634 OFFCURVE",
"76 615 CURVE",
"98 312 OFFCURVE",
"109 182 OFFCURVE",
"120 87 CURVE SMOOTH",
"126 33 OFFCURVE",
"223 0 OFFCURVE",
"313 0 CURVE SMOOTH",
"351 0 OFFCURVE",
"376 6 OFFCURVE",
"407 21 CURVE",
"407 -83 OFFCURVE",
"488 -190 OFFCURVE",
"552 -219 CURVE"
);
}
);
width = 795;
}
);
unicode = 1ED35;
},
{
glyphname = u1ED36;
layers = (
{
layerId = master01;
paths = (
{
closed = 1;
nodes = (
"787 0 OFFCURVE",
"850 18 OFFCURVE",
"911 55 CURVE",
"934 97 OFFCURVE",
"947 137 OFFCURVE",
"947 157 CURVE SMOOTH",
"947 181 OFFCURVE",
"942 215 OFFCURVE",
"932 259 CURVE SMOOTH",
"920 317 OFFCURVE",
"912 355 OFFCURVE",
"909 374 CURVE",
"869 352 OFFCURVE",
"844 319 OFFCURVE",
"844 290 CURVE SMOOTH",
"844 279 OFFCURVE",
"850 257 OFFCURVE",
"863 223 CURVE SMOOTH",
"878 180 OFFCURVE",
"890 144 OFFCURVE",
"899 113 CURVE",
"851 91 OFFCURVE",
"783 76 OFFCURVE",
"722 76 CURVE SMOOTH",
"660 76 OFFCURVE",
"615 82 OFFCURVE",
"587 94 CURVE",
"640 137 OFFCURVE",
"676 186 OFFCURVE",
"676 249 CURVE SMOOTH",
"676 273 OFFCURVE",
"669 295 OFFCURVE",
"656 313 CURVE SMOOTH",
"631 350 OFFCURVE",
"584 374 OFFCURVE",
"527 374 CURVE SMOOTH",
"498 374 OFFCURVE",
"470 370 OFFCURVE",
"442 361 CURVE SMOOTH",
"387 344 OFFCURVE",
"331 314 OFFCURVE",
"331 267 CURVE SMOOTH",
"331 250 OFFCURVE",
"337 236 OFFCURVE",
"349 223 CURVE",
"365 233 LINE",
"375 226 OFFCURVE",
"386 215 OFFCURVE",
"398 200 CURVE SMOOTH",
"410 187 OFFCURVE",
"429 161 OFFCURVE",
"455 123 CURVE SMOOTH",
"473 100 LINE",
"428 84 OFFCURVE",
"371 76 OFFCURVE",
"302 76 CURVE SMOOTH",
"264 76 OFFCURVE",
"189 85 OFFCURVE",
"158 102 CURVE",
"156 169 LINE SMOOTH",
"150 375 OFFCURVE",
"150 515 OFFCURVE",
"144 671 CURVE",
"117 653 OFFCURVE",
"95 634 OFFCURVE",
"76 615 CURVE",
"98 312 OFFCURVE",
"109 182 OFFCURVE",
"120 87 CURVE SMOOTH",
"126 33 OFFCURVE",
"223 0 OFFCURVE",
"302 0 CURVE SMOOTH",
"383 0 OFFCURVE",
"447 17 OFFCURVE",
"520 54 CURVE",
"572 17 OFFCURVE",
"631 0 OFFCURVE",
"722 0 CURVE SMOOTH"
);
},
{
closed = 1;
nodes = (
"523 141 OFFCURVE",
"515 150 OFFCURVE",
"508 159 CURVE SMOOTH",
"468 209 OFFCURVE",
"436 243 OFFCURVE",
"412 262 CURVE",
"450 282 OFFCURVE",
"489 292 OFFCURVE",
"530 292 CURVE SMOOTH",
"574 292 OFFCURVE",
"605 265 OFFCURVE",
"605 228 CURVE SMOOTH",
"605 197 OFFCURVE",
"577 162 OFFCURVE",
"532 132 CURVE"
);
}
);
width = 997;
}
);
unicode = 1ED36;
},
{
glyphname = u1ED37;
layers = (
{
layerId = master01;
paths = (
{
closed = 1;
nodes = (
"439 0 OFFCURVE",
"550 16 OFFCURVE",
"688 51 CURVE SMOOTH",
"721 59 OFFCURVE",
"753 67 OFFCURVE",
"759 70 CURVE SMOOTH",
"774 79 OFFCURVE",
"781 92 OFFCURVE",
"781 116 CURVE SMOOTH",
"781 131 OFFCURVE",
"777 144 OFFCURVE",
"768 152 CURVE",
"684 119 OFFCURVE",
"649 108 OFFCURVE",
"598 98 CURVE",
"562 100 OFFCURVE",
"531 108 OFFCURVE",
"505 122 CURVE SMOOTH",
"452 151 OFFCURVE",
"424 200 OFFCURVE",
"424 257 CURVE",
"468 282 OFFCURVE",
"511 294 OFFCURVE",
"552 294 CURVE SMOOTH",
"581 294 OFFCURVE",
"596 291 OFFCURVE",
"649 271 CURVE",
"667 303 LINE",
"611 352 OFFCURVE",
"573 374 OFFCURVE",
"527 374 CURVE SMOOTH",
"500 374 OFFCURVE",
"474 364 OFFCURVE",
"450 345 CURVE SMOOTH",
"401 307 OFFCURVE",
"367 237 OFFCURVE",
"367 180 CURVE SMOOTH",
"367 139 OFFCURVE",
"395 100 OFFCURVE",
"427 79 CURVE",
"386 77 OFFCURVE",
"345 76 OFFCURVE",
"302 76 CURVE SMOOTH",
"264 76 OFFCURVE",
"189 85 OFFCURVE",
"158 102 CURVE",
"156 169 LINE SMOOTH",
"150 375 OFFCURVE",
"150 515 OFFCURVE",
"144 671 CURVE",
"117 653 OFFCURVE",
"95 634 OFFCURVE",
"76 615 CURVE",
"98 312 OFFCURVE",
"109 182 OFFCURVE",
"120 87 CURVE SMOOTH",
"126 33 OFFCURVE",
"223 0 OFFCURVE",
"302 0 CURVE SMOOTH"
);
}
);
width = 807;
}
);
unicode = 1ED37;
},
{
glyphname = u1ED38;
layers = (
{
layerId = master01;
paths = (
{
closed = 1;
nodes = (
"666 -215 OFFCURVE",
"703 -194 OFFCURVE",
"744 -157 CURVE SMOOTH",
"806 -102 OFFCURVE",
"853 10 OFFCURVE",
"853 64 CURVE SMOOTH",
"853 86 OFFCURVE",
"848 96 OFFCURVE",
"822 96 CURVE SMOOTH",
"811 96 OFFCURVE",
"784 94 OFFCURVE",
"715 87 CURVE SMOOTH",
"660 81 OFFCURVE",
"585 76 OFFCURVE",
"492 76 CURVE SMOOTH",
"484 76 LINE",
"492 142 OFFCURVE",
"519 209 OFFCURVE",
"567 259 CURVE SMOOTH",
"631 325 OFFCURVE",
"718 363 OFFCURVE",
"831 384 CURVE",
"831 400 OFFCURVE",
"799 438 OFFCURVE",
"781 438 CURVE SMOOTH",
"773 438 OFFCURVE",
"766 437 OFFCURVE",
"755 435 CURVE SMOOTH",
"679 419 OFFCURVE",
"597 371 OFFCURVE",
"535 299 CURVE SMOOTH",
"482 238 OFFCURVE",
"447 159 OFFCURVE",
"438 76 CURVE",
"181 81 OFFCURVE",
"99 123 OFFCURVE",
"99 185 CURVE SMOOTH",
"99 217 OFFCURVE",
"126 258 OFFCURVE",
"188 278 CURVE SMOOTH",
"236 293 OFFCURVE",
"278 299 OFFCURVE",
"317 302 CURVE SMOOTH",
"342 304 OFFCURVE",
"366 308 OFFCURVE",
"390 312 CURVE",
"395 312 OFFCURVE",
"398 315 OFFCURVE",
"398 320 CURVE SMOOTH",
"398 380 LINE SMOOTH",
"398 385 OFFCURVE",
"395 388 OFFCURVE",
"390 388 CURVE SMOOTH",
"352 388 OFFCURVE",
"277 397 OFFCURVE",
"246 414 CURVE",
"244 503 LINE SMOOTH",
"239 709 OFFCURVE",
"238 827 OFFCURVE",
"232 983 CURVE",
"205 965 OFFCURVE",
"183 946 OFFCURVE",
"164 927 CURVE",
"186 624 OFFCURVE",
"197 494 OFFCURVE",
"208 399 CURVE SMOOTH",
"210 382 OFFCURVE",
"220 368 OFFCURVE",
"236 355 CURVE",
"224 353 OFFCURVE",
"211 349 OFFCURVE",
"195 344 CURVE SMOOTH",
"101 314 OFFCURVE",
"61 229 OFFCURVE",
"61 160 CURVE SMOOTH",
"61 64 OFFCURVE",
"152 5 OFFCURVE",
"437 0 CURVE",
"444 -119 OFFCURVE",
"487 -215 OFFCURVE",
"596 -215 CURVE SMOOTH"
);
},
{
closed = 1;
nodes = (
"1021 8 LINE",
"1030 230 OFFCURVE",
"1030 380 OFFCURVE",
"1022 529 CURVE",
"1049 552 LINE",
"1033 599 OFFCURVE",
"1019 645 OFFCURVE",
"1014 671 CURVE",
"962 661 OFFCURVE",
"943 636 OFFCURVE",
"948 582 CURVE SMOOTH",
"963 428 OFFCURVE",
"971 234 OFFCURVE",
"975 0 CURVE"
);
},
{
closed = 1;
nodes = (
"583 0 OFFCURVE",
"679 4 OFFCURVE",
"778 13 CURVE SMOOTH",
"796 15 OFFCURVE",
"802 15 OFFCURVE",
"802 9 CURVE SMOOTH",
"802 5 OFFCURVE",
"800 -2 OFFCURVE",
"796 -12 CURVE SMOOTH",
"764 -98 OFFCURVE",
"702 -136 OFFCURVE",
"617 -136 CURVE SMOOTH",
"517 -136 OFFCURVE",
"489 -72 OFFCURVE",
"483 0 CURVE"
);
}
);
width = 1109;
}
);
unicode = 1ED38;
},
{
glyphname = u1ED39;
layers = (
{
layerId = master01;
paths = (
{
closed = 1;
nodes = (
"622 0 OFFCURVE",
"776 4 OFFCURVE",
"811 11 CURVE SMOOTH",
"864 22 OFFCURVE",
"889 41 OFFCURVE",
"889 77 CURVE SMOOTH",
"889 84 OFFCURVE",
"887 94 OFFCURVE",
"883 101 CURVE",
"804 84 OFFCURVE",
"649 76 OFFCURVE",
"492 76 CURVE SMOOTH",
"192 76 OFFCURVE",
"99 119 OFFCURVE",
"99 185 CURVE SMOOTH",
"99 217 OFFCURVE",
"126 258 OFFCURVE",
"188 278 CURVE SMOOTH",
"236 293 OFFCURVE",
"278 299 OFFCURVE",
"317 302 CURVE SMOOTH",
"342 304 OFFCURVE",
"366 308 OFFCURVE",
"390 312 CURVE",
"395 312 OFFCURVE",
"398 315 OFFCURVE",
"398 320 CURVE SMOOTH",
"398 380 LINE SMOOTH",
"398 385 OFFCURVE",
"395 388 OFFCURVE",
"390 388 CURVE SMOOTH",
"352 388 OFFCURVE",
"277 397 OFFCURVE",
"246 414 CURVE",
"244 503 LINE SMOOTH",
"239 709 OFFCURVE",
"238 827 OFFCURVE",
"232 983 CURVE",
"205 965 OFFCURVE",
"183 946 OFFCURVE",
"164 927 CURVE",
"186 624 OFFCURVE",
"197 494 OFFCURVE",
"208 399 CURVE SMOOTH",
"210 382 OFFCURVE",
"220 368 OFFCURVE",
"236 355 CURVE",
"224 353 OFFCURVE",
"211 349 OFFCURVE",
"195 344 CURVE SMOOTH",
"101 314 OFFCURVE",
"61 229 OFFCURVE",
"61 160 CURVE SMOOTH",
"61 59 OFFCURVE",
"161 0 OFFCURVE",
"479 0 CURVE SMOOTH"
);
}
);
width = 948;
}
);
unicode = 1ED39;
},
{
glyphname = u1ED3A;
layers = (
{
layerId = master01;
paths = (
{
closed = 1;
nodes = (
"338 -261 OFFCURVE",
"395 -252 OFFCURVE",
"453 -235 CURVE SMOOTH",
"570 -200 OFFCURVE",
"651 -141 OFFCURVE",
"651 -90 CURVE SMOOTH",
"651 -64 OFFCURVE",
"648 -43 OFFCURVE",
"628 -31 CURVE SMOOTH",
"598 -15 OFFCURVE",
"568 1 OFFCURVE",
"539 18 CURVE",
"583 7 OFFCURVE",
"647 0 OFFCURVE",
"693 0 CURVE SMOOTH",
"778 0 OFFCURVE",
"836 9 OFFCURVE",
"882 32 CURVE",
"938 10 OFFCURVE",
"1004 0 OFFCURVE",
"1087 0 CURVE SMOOTH",
"1154 0 OFFCURVE",
"1194 12 OFFCURVE",
"1206 35 CURVE SMOOTH",
"1226 70 OFFCURVE",
"1241 112 OFFCURVE",
"1241 135 CURVE SMOOTH",
"1240 206 OFFCURVE",
"1237 291 OFFCURVE",
"1231 388 CURVE SMOOTH",
"1223 505 OFFCURVE",
"1218 599 OFFCURVE",
"1214 671 CURVE",
"1189 653 OFFCURVE",
"1167 635 OFFCURVE",
"1148 615 CURVE",
"1162 497 OFFCURVE",
"1174 376 OFFCURVE",
"1186 251 CURVE SMOOTH",
"1198 103 LINE",
"1164 85 OFFCURVE",
"1127 76 OFFCURVE",
"1087 76 CURVE SMOOTH",
"1037 76 OFFCURVE",
"1001 78 OFFCURVE",
"980 81 CURVE",
"1008 114 OFFCURVE",
"1023 152 OFFCURVE",
"1023 195 CURVE SMOOTH",
"1023 223 OFFCURVE",
"1018 252 OFFCURVE",
"1007 281 CURVE SMOOTH",
"987 338 OFFCURVE",
"953 374 OFFCURVE",
"918 374 CURVE SMOOTH",
"854 374 OFFCURVE",
"794 333 OFFCURVE",
"760 270 CURVE SMOOTH",
"752 256 OFFCURVE",
"742 200 OFFCURVE",
"742 166 CURVE SMOOTH",
"742 137 OFFCURVE",
"754 108 OFFCURVE",
"779 80 CURVE",
"758 77 OFFCURVE",
"730 76 OFFCURVE",
"693 76 CURVE SMOOTH",
"607 76 OFFCURVE",
"521 83 OFFCURVE",
"474 93 CURVE",
"461 93 OFFCURVE",
"438 43 OFFCURVE",
"438 25 CURVE SMOOTH",
"438 20 OFFCURVE",
"446 12 OFFCURVE",
"461 0 CURVE SMOOTH",
"487 -19 OFFCURVE",
"533 -46 OFFCURVE",
"616 -90 CURVE",
"592 -112 OFFCURVE",
"565 -127 OFFCURVE",
"536 -139 CURVE SMOOTH",
"476 -164 OFFCURVE",
"407 -178 OFFCURVE",
"286 -178 CURVE SMOOTH",
"179 -178 OFFCURVE",
"113 -121 OFFCURVE",
"113 -23 CURVE SMOOTH",
"113 -5 OFFCURVE",
"117 19 OFFCURVE",
"124 48 CURVE",
"87 57 LINE",
"71 -9 OFFCURVE",
"68 -34 OFFCURVE",
"68 -73 CURVE SMOOTH",
"68 -193 OFFCURVE",
"146 -261 OFFCURVE",
"283 -261 CURVE SMOOTH"
);
},
{
closed = 1;
nodes = (
"841 119 OFFCURVE",
"807 143 OFFCURVE",
"779 175 CURVE",
"811 237 OFFCURVE",
"871 289 OFFCURVE",
"909 289 CURVE SMOOTH",
"916 289 OFFCURVE",
"925 282 OFFCURVE",
"937 269 CURVE SMOOTH",
"959 242 OFFCURVE",
"980 197 OFFCURVE",
"984 164 CURVE",
"953 137 OFFCURVE",
"919 117 OFFCURVE",
"882 103 CURVE"
);
},
{
closed = 1;
nodes = (
"1440 8 LINE",
"1449 230 OFFCURVE",
"1449 380 OFFCURVE",
"1441 529 CURVE",
"1468 552 LINE",
"1452 599 OFFCURVE",
"1438 645 OFFCURVE",
"1433 671 CURVE",
"1381 661 OFFCURVE",
"1362 636 OFFCURVE",
"1367 582 CURVE SMOOTH",
"1382 428 OFFCURVE",
"1390 234 OFFCURVE",
"1394 0 CURVE"
);
}
);
width = 1528;
}
);
unicode = 1ED3A;
},
{
glyphname = u1ED3B;
layers = (
{
layerId = master01;
paths = (
{
closed = 1;
nodes = (
"1414 0 OFFCURVE",
"1545 16 OFFCURVE",
"1683 51 CURVE SMOOTH",
"1716 59 OFFCURVE",
"1748 67 OFFCURVE",
"1754 70 CURVE SMOOTH",
"1769 79 OFFCURVE",
"1776 92 OFFCURVE",
"1776 116 CURVE SMOOTH",
"1776 131 OFFCURVE",
"1772 144 OFFCURVE",
"1763 152 CURVE",
"1679 119 OFFCURVE",
"1644 108 OFFCURVE",
"1593 98 CURVE",
"1557 100 OFFCURVE",
"1526 108 OFFCURVE",
"1500 122 CURVE SMOOTH",
"1447 151 OFFCURVE",
"1419 200 OFFCURVE",
"1419 257 CURVE",
"1463 282 OFFCURVE",
"1506 294 OFFCURVE",
"1547 294 CURVE SMOOTH",
"1576 294 OFFCURVE",
"1591 291 OFFCURVE",
"1644 271 CURVE",
"1662 303 LINE",
"1606 352 OFFCURVE",
"1568 374 OFFCURVE",
"1522 374 CURVE SMOOTH",
"1495 374 OFFCURVE",
"1469 364 OFFCURVE",
"1445 345 CURVE SMOOTH",
"1396 307 OFFCURVE",
"1362 237 OFFCURVE",
"1362 180 CURVE SMOOTH",
"1362 139 OFFCURVE",
"1390 100 OFFCURVE",
"1422 79 CURVE",
"1381 77 OFFCURVE",
"1350 76 OFFCURVE",
"1327 76 CURVE SMOOTH",
"1259 76 OFFCURVE",
"1174 85 OFFCURVE",
"1143 102 CURVE",
"1141 169 LINE SMOOTH",
"1135 375 OFFCURVE",
"1129 550 OFFCURVE",
"1124 657 CURVE",
"1108 669 OFFCURVE",
"1076 679 OFFCURVE",
"1037 679 CURVE SMOOTH",
"971 679 OFFCURVE",
"919 645 OFFCURVE",
"904 617 CURVE SMOOTH",
"886 584 OFFCURVE",
"872 538 OFFCURVE",
"874 517 CURVE SMOOTH",
"877 475 OFFCURVE",
"887 376 OFFCURVE",
"897 251 CURVE SMOOTH",
"901 203 OFFCURVE",
"904 153 OFFCURVE",
"908 103 CURVE",
"874 85 OFFCURVE",
"838 76 OFFCURVE",
"798 76 CURVE SMOOTH",
"748 76 OFFCURVE",
"712 78 OFFCURVE",
"691 81 CURVE",
"719 114 OFFCURVE",
"734 152 OFFCURVE",
"734 195 CURVE SMOOTH",
"734 223 OFFCURVE",
"729 252 OFFCURVE",
"718 281 CURVE SMOOTH",
"698 338 OFFCURVE",
"664 374 OFFCURVE",
"629 374 CURVE SMOOTH",
"565 374 OFFCURVE",
"505 333 OFFCURVE",
"471 270 CURVE SMOOTH",
"463 256 OFFCURVE",
"453 200 OFFCURVE",
"453 166 CURVE SMOOTH",
"453 137 OFFCURVE",
"465 108 OFFCURVE",
"490 80 CURVE",
"469 77 OFFCURVE",
"441 76 OFFCURVE",
"404 76 CURVE SMOOTH",
"307 76 OFFCURVE",
"252 126 OFFCURVE",
"252 218 CURVE SMOOTH",
"252 254 OFFCURVE",
"258 291 OFFCURVE",
"272 329 CURVE",
"241 349 LINE",
"168 329 OFFCURVE",
"70 314 OFFCURVE",
"0 308 CURVE",
"0 280 OFFCURVE",
"13 242 OFFCURVE",
"98 242 CURVE SMOOTH",
"142 242 OFFCURVE",
"187 250 OFFCURVE",
"209 258 CURVE",
"205 235 OFFCURVE",
"203 209 OFFCURVE",
"203 180 CURVE SMOOTH",
"203 67 OFFCURVE",
"274 0 OFFCURVE",
"404 0 CURVE SMOOTH",
"489 0 OFFCURVE",
"547 9 OFFCURVE",
"593 32 CURVE",
"649 10 OFFCURVE",
"715 0 OFFCURVE",
"798 0 CURVE SMOOTH",
"865 0 OFFCURVE",
"905 12 OFFCURVE",
"917 35 CURVE SMOOTH",
"937 70 OFFCURVE",
"952 112 OFFCURVE",
"952 135 CURVE SMOOTH",
"951 202 OFFCURVE",
"945 312 OFFCURVE",
"931 553 CURVE",
"968 589 OFFCURVE",
"999 603 OFFCURVE",
"1037 603 CURVE SMOOTH",
"1047 603 OFFCURVE",
"1055 603 OFFCURVE",
"1063 602 CURVE",
"1076 423 LINE SMOOTH",
"1086 281 OFFCURVE",
"1095 170 OFFCURVE",
"1105 87 CURVE SMOOTH",
"1111 33 OFFCURVE",
"1218 0 OFFCURVE",
"1327 0 CURVE SMOOTH"
);
},
{
closed = 1;
nodes = (
"552 119 OFFCURVE",
"518 143 OFFCURVE",
"490 175 CURVE",
"522 237 OFFCURVE",
"582 289 OFFCURVE",
"620 289 CURVE SMOOTH",
"627 289 OFFCURVE",
"636 282 OFFCURVE",
"648 269 CURVE SMOOTH",
"670 242 OFFCURVE",
"691 197 OFFCURVE",
"695 164 CURVE",
"664 137 OFFCURVE",
"630 117 OFFCURVE",
"593 103 CURVE"
);
}
);
width = 1802;
}
);
unicode = 1ED3B;
},
{
glyphname = u1ED3C;
layers = (
{
layerId = master01;
paths = (
{
closed = 1;
nodes = (
"317 26 LINE",
"309 148 OFFCURVE",
"306 223 OFFCURVE",
"301 352 CURVE SMOOTH",
"298 426 OFFCURVE",
"294 502 OFFCURVE",
"283 553 CURVE SMOOTH",
"278 574 OFFCURVE",
"264 597 OFFCURVE",
"249 597 CURVE SMOOTH",
"223 597 OFFCURVE",
"181 585 OFFCURVE",
"140 556 CURVE SMOOTH",
"111 536 OFFCURVE",
"65 497 OFFCURVE",
"38 449 CURVE SMOOTH",
"24 425 OFFCURVE",
"18 397 OFFCURVE",
"18 378 CURVE SMOOTH",
"18 368 OFFCURVE",
"39 340 OFFCURVE",
"66 322 CURVE SMOOTH",
"113 291 OFFCURVE",
"200 274 OFFCURVE",
"250 273 CURVE",
"253 172 OFFCURVE",
"252 87 OFFCURVE",
"255 -1 CURVE"
);
},
{
closed = 1;
nodes = (
"178 348 OFFCURVE",
"107 376 OFFCURVE",
"74 407 CURVE",
"120 473 OFFCURVE",
"201 509 OFFCURVE",
"229 509 CURVE SMOOTH",
"236 509 OFFCURVE",
"247 379 OFFCURVE",
"248 347 CURVE"
);
}
);
width = 417;
}
);
unicode = 1ED3C;
},
{
glyphname = u1ED3D;
layers = (
{
layerId = master01;
paths = (
{
closed = 1;
nodes = (
"161 312 OFFCURVE",
"335 456 OFFCURVE",
"414 523 CURVE SMOOTH",
"427 534 OFFCURVE",
"433 542 OFFCURVE",
"433 555 CURVE SMOOTH",
"433 569 OFFCURVE",
"423 587 OFFCURVE",
"408 593 CURVE",
"249 456 OFFCURVE",
"151 371 OFFCURVE",
"81 310 CURVE SMOOTH",
"80 309 OFFCURVE",
"79 308 OFFCURVE",
"80 305 CURVE SMOOTH",
"83 296 OFFCURVE",
"88 282 OFFCURVE",
"100 262 CURVE"
);
},
{
closed = 1;
nodes = (
"171 91 OFFCURVE",
"345 235 OFFCURVE",
"424 302 CURVE SMOOTH",
"437 313 OFFCURVE",
"443 321 OFFCURVE",
"443 334 CURVE SMOOTH",
"443 348 OFFCURVE",
"433 366 OFFCURVE",
"418 372 CURVE",
"259 235 OFFCURVE",
"161 150 OFFCURVE",
"91 89 CURVE SMOOTH",
"90 88 OFFCURVE",
"89 87 OFFCURVE",
"90 84 CURVE SMOOTH",
"93 75 OFFCURVE",
"98 61 OFFCURVE",
"110 41 CURVE"
);
}
